<svg width="19" height="19" viewBox="0 0 19 19" fill="none" xmlns="http://www.w3.org/2000/svg">
<path d="M1.68848 7.53906H12.9385C14.7996 7.53906 16.3135 6.02523 16.3135 4.16406C16.3135 2.30289 14.7996 0.789062 12.9385 0.789062H11.8135C11.1916 0.789062 10.6885 1.29215 10.6885 1.91406C10.6885 2.53598 11.1916 3.03906 11.8135 3.03906H12.9385C13.5593 3.03906 14.0635 3.5432 14.0635 4.16406C14.0635 4.78492 13.5593 5.28906 12.9385 5.28906H1.68848C1.06656 5.28906 0.563477 5.7918 0.563477 6.41406C0.563477 7.03633 1.06656 7.53906 1.68848 7.53906ZM6.18848 12.0391H1.68848C1.06656 12.0391 0.563477 12.5421 0.563477 13.1641C0.563477 13.786 1.06656 14.2891 1.68848 14.2891H6.18848C6.80934 14.2891 7.31348 14.7932 7.31348 15.4141C7.31348 16.0349 6.80934 16.5391 6.18848 16.5391H5.06348C4.44156 16.5391 3.93848 17.0421 3.93848 17.6641C3.93848 18.286 4.44156 18.7891 5.06348 18.7891H6.18848C8.04965 18.7891 9.56348 17.2752 9.56348 15.4141C9.56348 13.5529 8.04824 12.0391 6.18848 12.0391ZM15.1885 8.66406H1.68848C1.06656 8.66406 0.563477 9.1668 0.563477 9.78906C0.563477 10.4113 1.06656 10.9141 1.68848 10.9141H15.1885C15.8093 10.9141 16.3135 11.4182 16.3135 12.0391C16.3135 12.6599 15.8093 13.1641 15.1885 13.1641H14.0635C13.4416 13.1641 12.9385 13.6671 12.9385 14.2891C12.9385 14.911 13.4416 15.4141 14.0635 15.4141H15.1885C17.0496 15.4141 18.5635 13.9002 18.5635 12.0391C18.5635 10.1779 17.0482 8.66406 15.1885 8.66406Z" fill="#3191C7"/>
</svg>
