<svg width="24" height="24" viewBox="0 0 24 24" fill="none" xmlns="http://www.w3.org/2000/svg">
<path d="M7.70489 15.5352V15.2815C7.70489 11.5509 7.70596 7.82061 7.70809 4.09046C7.70809 3.3033 7.47482 2.62766 6.91772 2.07271C6.90019 2.04978 6.88451 2.02548 6.87085 2H7.08069C10.9811 2 14.8811 2 18.7808 2C20.1214 2 21.0976 2.96979 21.0992 4.31189C21.1024 7.99535 21.1024 11.6786 21.0992 15.3617V15.5358L7.70489 15.5352Z" fill="#A0A0A0"/>
<path d="M6.8279 17.4859C6.2234 17.4859 5.64021 17.495 5.05808 17.4821C4.73532 17.4746 4.39925 17.4789 4.09408 17.391C3.43685 17.2009 3.00864 16.5829 3.00331 15.8916C2.99586 15.0387 3.00331 14.1853 3.00331 13.3324C3.00331 10.215 3.00331 7.09784 3.00331 3.98082C3.00331 2.97545 3.65362 2.19476 4.61496 2.02774C5.7217 1.8354 6.77517 2.69475 6.8263 3.83157C6.8295 3.89838 6.8295 3.96574 6.8295 4.03309V17.4859H6.8279Z" fill="#A0A0A0"/>
<path d="M7.70483 19.422H21.104C21.0667 19.9683 21.2014 20.5243 20.9559 21.0453C20.6555 21.6849 20.1405 21.9979 19.4433 21.9984C17.0917 22.0006 14.7403 22.0006 12.389 21.9984C11.3856 21.9984 10.3826 21.9984 9.37985 21.9984C8.38443 21.9984 7.70749 21.3088 7.70483 20.2997C7.70429 20.013 7.70483 19.7259 7.70483 19.422Z" fill="#A0A0A0"/>
<path d="M21.0911 16.5181V18.4297H7.7229V16.5181H21.0911Z" fill="#A0A0A0"/>
</svg>
