<svg width="24" height="24" viewBox="0 0 24 24" fill="none" xmlns="http://www.w3.org/2000/svg">
<g clip-path="url(#clip0_1530_345)">
<path d="M1 13.1055V12.7611C1.27608 12.1136 1.86843 12.3386 2.36549 12.2812V10.8245C2.18526 10.8245 2.01479 10.8135 1.84891 10.8245C1.45976 10.8537 1.16703 10.7217 1.00287 10.3532V10.0088C1.15383 9.64608 1.42819 9.49916 1.81562 9.53073C1.997 9.54508 2.18125 9.53073 2.36664 9.53073V8.05904C2.17034 8.05904 1.98667 8.05216 1.80299 8.05904C1.41786 8.07626 1.13833 7.93277 1.00287 7.55681V7.25603C1.14235 6.88123 1.4213 6.73948 1.80644 6.76244C1.98954 6.77334 2.17436 6.76244 2.36147 6.76244V5.29361C2.1669 5.29361 1.98839 5.28213 1.8116 5.29361C1.42359 5.3246 1.14923 5.17883 1.00229 4.81091V4.46652C1.17104 4.1009 1.46664 3.99699 1.85293 3.99756C8.6186 4.0033 15.3837 4.00466 22.1482 4.0016C22.1981 4.0016 22.2487 4.0016 22.2986 4.0016C22.7233 4.01365 23.0006 4.27136 22.9988 4.65248C22.9971 5.0336 22.721 5.28386 22.2923 5.2896C22.073 5.2896 21.8538 5.2896 21.6391 5.2896V6.77679C21.9106 6.77679 22.1677 6.76645 22.4237 6.77679C22.6797 6.78712 22.864 6.93578 22.9558 7.17857C23.12 7.61537 22.833 8.0246 22.3371 8.0533C22.1075 8.0665 21.8716 8.0533 21.6391 8.0533V9.52669H21.995C22.1166 9.52669 22.2383 9.52669 22.36 9.52669C22.647 9.53588 22.864 9.68512 22.9564 9.93652C23.1171 10.3733 22.8226 10.7975 22.3382 10.8124C22.1052 10.821 21.8716 10.8124 21.6385 10.8124V12.2801C21.8681 12.2801 22.0811 12.2801 22.2952 12.2801C22.7199 12.2864 22.9983 12.5435 22.9988 12.9258C22.9994 13.3081 22.7228 13.5646 22.2957 13.5681C22.077 13.5681 21.8578 13.5681 21.6379 13.5681V15.0403C21.8675 15.0403 22.0799 15.0403 22.294 15.0403C22.5598 15.0443 22.7871 15.127 22.9202 15.3778C23.14 15.7911 22.8909 16.2773 22.4243 16.318C22.1637 16.341 21.8997 16.322 21.6379 16.322V17.8144C21.9008 17.8144 22.1505 17.8046 22.399 17.8144C22.4961 17.8178 22.591 17.8439 22.6762 17.8905C22.7614 17.937 22.8345 18.0028 22.8899 18.0826C22.9452 18.1624 22.9812 18.254 22.9949 18.3501C23.0086 18.4462 22.9998 18.5442 22.969 18.6363C22.8714 18.9606 22.6401 19.0955 22.1918 19.0955C15.412 19.0955 8.63257 19.097 1.8535 19.1001C1.46722 19.1001 1.17104 18.9962 1.00229 18.6311V18.2868C1.14866 17.9188 1.42302 17.773 1.8116 17.804C1.99355 17.8184 2.1778 17.804 2.36836 17.804V16.3266C2.17493 16.3266 1.99069 16.318 1.80701 16.3266C1.4213 16.3484 1.14235 16.2067 1.00344 15.833V15.5322C1.13775 15.1545 1.41786 15.0156 1.80299 15.03C1.99126 15.038 2.1801 15.03 2.36434 15.03V13.5583C2.17149 13.5583 1.99298 13.5463 1.81677 13.5583C1.42589 13.6146 1.15268 13.4682 1 13.1055ZM11.9888 16.3461C14.0073 16.3461 16.0262 16.3461 18.0454 16.3461C18.6343 16.3461 18.8616 16.1165 18.8616 15.5254V7.60042C18.8616 6.99487 18.6383 6.77104 18.0328 6.77104C14.01 6.77104 9.98658 6.77104 5.96261 6.77104C5.35879 6.77104 5.13666 6.99546 5.13666 7.60216C5.13666 10.2367 5.13666 12.8713 5.13666 15.5058C5.13666 16.1251 5.35706 16.3461 5.97581 16.3461C7.98053 16.3469 9.98486 16.3469 11.9888 16.3461Z" fill="#A0A0A0"/>
<path d="M17.561 8.07922V15.037H6.4436V8.07922H17.561ZM12.0204 9.53541C10.8965 9.53541 9.77248 9.53541 8.64825 9.53541C8.15176 9.53541 7.90667 9.77647 7.90552 10.2689C7.90552 11.128 7.90552 11.9873 7.90552 12.8467C7.90552 13.3392 8.15234 13.5802 8.64768 13.5808H15.35C15.8454 13.5808 16.091 13.3386 16.0922 12.8467C16.0945 11.9876 16.0945 11.1284 16.0922 10.2689C16.0922 9.7759 15.8471 9.53599 15.35 9.53541C14.2399 9.53503 13.1301 9.53503 12.0204 9.53541Z" fill="#A0A0A0"/>
<path d="M14.7933 10.8367V12.2762H9.2085V10.8367H14.7933Z" fill="#A0A0A0"/>
</g>
<defs>
<clipPath id="clip0_1530_345">
<rect width="22" height="15.1163" fill="white" transform="translate(1 4)"/>
</clipPath>
</defs>
</svg>
