<svg width="24" height="24" viewBox="0 0 24 24" fill="none" xmlns="http://www.w3.org/2000/svg">
<g clip-path="url(#clip0_269_602)">
<path d="M12.0015 18.2854H3.96844C3.52895 18.2854 3.43175 18.3826 3.43175 18.8221C3.436 18.9553 3.42256 19.0885 3.3918 19.2181C3.34388 19.3762 3.24173 19.5124 3.1033 19.6026C2.96488 19.6928 2.79908 19.7313 2.63507 19.7113C2.47111 19.6909 2.31922 19.6145 2.2052 19.4949C2.09118 19.3754 2.02204 19.22 2.00952 19.0553C1.997 18.8478 2.00535 18.6379 2.00535 18.4304C2.00535 16.9952 2.00535 15.5597 2.00535 14.1237C2.00535 11.9871 3.55579 10.4313 5.68823 10.4313C9.92052 10.4313 14.1528 10.4313 18.3851 10.4313C20.1478 10.4313 21.5808 11.6025 21.932 13.3247C21.9743 13.5283 21.9964 13.7357 21.9982 13.9437C22.0042 15.6173 22.0051 17.291 22.0012 18.9647C22.0012 19.3171 21.8139 19.5771 21.5027 19.6802C21.361 19.7303 21.2066 19.7315 21.0643 19.6835C20.9219 19.6355 20.7997 19.5411 20.7173 19.4155C20.634 19.2769 20.5868 19.1196 20.5801 18.9581C20.5569 18.326 20.5277 18.2884 19.9033 18.2884L12.0015 18.2854Z" fill="#A0A0A0"/>
<path d="M19.8574 7.99953C19.8574 8.53622 19.8574 9.0729 19.8574 9.60601C19.8574 9.86959 19.7895 9.90416 19.5313 9.86361C19.1365 9.8004 18.7387 9.75272 18.3386 9.71992C18.171 9.7062 18.0876 9.66028 18.0482 9.48675C17.8693 8.69603 17.3475 8.28754 16.5371 8.28694C15.7715 8.28694 15.0056 8.28694 14.2395 8.28694C13.4434 8.28694 12.9121 8.70436 12.7433 9.476C12.704 9.6549 12.6187 9.72349 12.438 9.71753C12.1399 9.70799 11.8417 9.71037 11.5435 9.71753C11.3849 9.72051 11.305 9.66385 11.2651 9.50046C11.0695 8.67694 10.5674 8.28755 9.71999 8.28755C8.95391 8.28755 8.18784 8.28755 7.42176 8.28755C6.66026 8.28755 6.11583 8.72048 5.95899 9.46171C5.91844 9.65193 5.83257 9.70798 5.64294 9.72169C5.2446 9.75091 4.84745 9.80519 4.4503 9.8678C4.21177 9.90537 4.14081 9.86482 4.14081 9.61198C4.14081 8.58571 4.13545 7.55945 4.14081 6.53318C4.14857 5.09724 5.23506 4.00715 6.67219 4.00357C9.11114 3.9976 11.5501 4.00357 13.9896 4.00357C15.0678 4.00357 16.1459 4.00357 17.2241 4.00357C18.787 4.00357 19.8479 5.07219 19.8515 6.64051C19.8562 7.09332 19.8582 7.54632 19.8574 7.99953Z" fill="#A0A0A0"/>
</g>
<defs>
<clipPath id="clip0_269_602">
<rect width="20" height="15.7142" fill="white" transform="translate(2 4)"/>
</clipPath>
</defs>
</svg>
