<svg width="36" height="36" viewBox="0 0 36 36" fill="none" xmlns="http://www.w3.org/2000/svg">
<g clip-path="url(#clip0_3_1123)">
<path d="M18.0022 27.4282H5.95263C5.2934 27.4282 5.1476 27.574 5.1476 28.2332C5.15397 28.433 5.13381 28.6327 5.08767 28.8272C5.01579 29.0643 4.86256 29.2686 4.65493 29.4039C4.44729 29.5392 4.19858 29.5969 3.95258 29.5669C3.70663 29.5364 3.4788 29.4218 3.30777 29.2424C3.13673 29.0631 3.03303 28.8301 3.01425 28.583C2.99547 28.2717 3.008 27.9568 3.008 27.6456C3.008 25.4928 3.008 23.3395 3.008 21.1856C3.008 17.9807 5.33365 15.647 8.53231 15.647C14.8807 15.647 21.2292 15.647 27.5776 15.647C30.2217 15.647 32.3711 17.4037 32.898 19.987C32.9613 20.2925 32.9946 20.6035 32.9973 20.9155C33.0062 23.426 33.0077 25.9365 33.0017 28.447C33.0017 28.9756 32.7209 29.3656 32.2539 29.5204C32.0415 29.5955 31.8099 29.5972 31.5963 29.5252C31.3828 29.4532 31.1995 29.3117 31.0759 29.1232C30.951 28.9154 30.8802 28.6795 30.8702 28.4372C30.8353 27.489 30.7915 27.4327 29.8549 27.4327L18.0022 27.4282Z" fill="#E12E57"/>
<path d="M29.786 11.9994C29.786 12.8044 29.786 13.6094 29.786 14.4091C29.786 14.8045 29.6841 14.8563 29.2968 14.7955C28.7046 14.7007 28.108 14.6292 27.5078 14.58C27.2564 14.5594 27.1312 14.4905 27.0722 14.2302C26.8038 13.0441 26.0212 12.4314 24.8056 12.4305C23.6571 12.4305 22.5082 12.4305 21.3591 12.4305C20.165 12.4305 19.368 13.0566 19.1149 14.2141C19.0558 14.4824 18.9279 14.5853 18.6569 14.5764C18.2097 14.5621 17.7624 14.5656 17.3152 14.5764C17.0772 14.5809 16.9574 14.4959 16.8975 14.2508C16.6041 13.0155 15.8509 12.4314 14.5799 12.4314C13.4307 12.4314 12.2816 12.4314 11.1325 12.4314C9.99027 12.4314 9.17362 13.0808 8.93837 14.1926C8.87754 14.478 8.74873 14.5621 8.46429 14.5826C7.86678 14.6265 7.27105 14.7079 6.67533 14.8018C6.31754 14.8581 6.2111 14.7973 6.2111 14.4181C6.2111 12.8787 6.20305 11.3393 6.2111 9.79987C6.22273 7.64595 7.85247 6.01081 10.0082 6.00544C13.6666 5.9965 17.325 6.00544 20.9843 6.00544C22.6016 6.00544 24.2188 6.00544 25.836 6.00544C28.1804 6.00544 29.7717 7.60837 29.7771 9.96085C29.7842 10.6401 29.7872 11.3196 29.786 11.9994Z" fill="#E12E57"/>
</g>
<defs>
<clipPath id="clip0_3_1123">
<rect width="30" height="23.5714" fill="white" transform="translate(3 6)"/>
</clipPath>
</defs>
</svg>
