<svg width="24" height="24" viewBox="0 0 24 24" fill="none" xmlns="http://www.w3.org/2000/svg">
<g clip-path="url(#clip0_290_414)">
<path d="M1.00001 8.85635C1.12262 8.65495 1.29907 8.59233 1.53798 8.59289C4.12298 8.59966 6.70798 8.57822 9.29241 8.60417C10.8857 8.61997 12.2991 8.15792 13.5893 7.2609C14.0757 6.914 14.5846 6.59872 15.1127 6.31706C16.8887 5.39691 18.2935 6.63976 18.525 8.01744C18.6149 8.55396 18.6057 9.0854 18.4402 9.60669C18.426 9.64081 18.4038 9.67108 18.3752 9.69494C18.3467 9.7188 18.3128 9.73555 18.2763 9.74378C17.2376 9.75168 16.1995 9.74886 15.1614 9.74773C15.1368 9.74467 15.1125 9.739 15.0892 9.7308C15.1356 9.22306 15.2714 8.76383 15.6799 8.41969C15.9434 8.19854 16.2556 8.15228 16.5874 8.18895C16.8824 8.22167 17.0812 8.09304 17.103 7.85045C17.1236 7.62479 16.9534 7.45554 16.6693 7.42113C15.5876 7.28516 14.6394 7.97626 14.4023 9.10233C14.204 10.0433 13.9439 10.9641 13.5389 11.8391C13.2146 12.5364 12.8124 13.1829 12.2212 13.6963C11.8374 14.043 11.3598 14.2727 10.8462 14.3575C10.835 14.3314 10.8257 14.3047 10.8181 14.2774C10.7287 13.834 10.5202 13.6314 10.0681 13.5575C9.34855 13.4398 8.62878 13.3234 7.90881 13.2083C7.62637 13.1637 7.34392 13.1005 7.05975 13.0955C6.70263 13.087 6.35199 13.1904 6.05835 13.3908C5.76472 13.5911 5.54323 13.878 5.42579 14.2102C5.40402 14.2667 5.38397 14.3282 5.36105 14.3925H4.53032C4.53032 14.2655 4.53548 14.1414 4.53032 14.0184C4.51944 13.7792 4.36475 13.6303 4.13845 13.6325C3.91214 13.6348 3.76261 13.7899 3.7523 14.0275C3.74715 14.1454 3.7523 14.2633 3.7523 14.3885H2.98001C2.93418 14.0816 3.06996 13.6433 2.56923 13.6433C2.0685 13.6433 2.21288 14.0861 2.1573 14.4021H0.998291L1.00001 8.85635Z" fill="#A0A0A0"/>
<path d="M23 18.3771C22.8917 18.5943 22.709 18.6592 22.4723 18.6592C15.4908 18.6562 8.50941 18.6562 1.52823 18.6592C1.29161 18.6592 1.10885 18.596 1 18.3771V15.1614H2.16474C2.20484 15.4926 2.07479 15.9309 2.57437 15.9281C3.07396 15.9253 2.93875 15.4869 2.98 15.1806H3.75V15.4035C3.75 15.7628 3.88406 15.9422 4.14646 15.94C4.40885 15.9377 4.53031 15.7662 4.53203 15.3961C4.53203 15.3329 4.53203 15.2697 4.53203 15.1705C4.79729 15.1705 5.05167 15.1665 5.30547 15.1761C5.33927 15.1761 5.38281 15.2455 5.40115 15.2889C5.75693 16.1865 6.46677 16.5865 7.43729 16.4342C8.36962 16.2856 9.30156 16.1363 10.2331 15.9862C10.5815 15.9298 10.7866 15.7092 10.8215 15.3583C10.8267 15.3019 10.8313 15.2455 10.8387 15.1654H11.073C14.8688 15.1654 18.6644 15.1654 22.4597 15.1654C22.7049 15.1654 22.8963 15.2218 23 15.4565V18.3771Z" fill="#A0A0A0"/>
<path d="M21.4279 14.3891H12.6623C12.6623 14.3744 12.6583 14.3558 12.6652 14.3496C13.7279 13.4176 14.3089 12.2024 14.746 10.9048C14.8715 10.5325 14.8663 10.5302 15.2616 10.5302H20.4803C21.1506 10.5302 21.4279 10.805 21.4285 11.4701V14.3885L21.4279 14.3891ZM19.0692 11.6997C19.0715 11.6487 19.0632 11.5977 19.0449 11.5498C19.0266 11.502 18.9986 11.4583 18.9627 11.4214C18.9268 11.3845 18.8836 11.3552 18.8359 11.3351C18.7881 11.3151 18.7367 11.3048 18.6848 11.3048C18.6331 11.3039 18.5817 11.3131 18.5337 11.3319C18.4856 11.3507 18.4419 11.3787 18.4049 11.4143C18.3679 11.4499 18.3384 11.4923 18.3182 11.5392C18.298 11.5861 18.2875 11.6364 18.2872 11.6873C18.2887 11.7863 18.3284 11.8811 18.3984 11.9522C18.4683 12.0234 18.5631 12.0657 18.6636 12.0704C18.7149 12.0724 18.7662 12.0644 18.8143 12.0469C18.8625 12.0293 18.9067 12.0025 18.9443 11.9681C18.9819 11.9336 19.0122 11.8921 19.0334 11.8461C19.0547 11.8 19.0665 11.7503 19.0681 11.6997H19.0692ZM20.2603 12.8517C20.2087 12.8506 20.1573 12.8596 20.1092 12.8783C20.0611 12.8969 20.0173 12.9248 19.9803 12.9603C19.9433 12.9958 19.9138 13.0382 19.8936 13.0851C19.8734 13.1319 19.8629 13.1822 19.8627 13.2331C19.8622 13.284 19.8719 13.3345 19.8912 13.3816C19.9106 13.4288 19.9392 13.4717 19.9755 13.5079C20.0117 13.5442 20.0549 13.573 20.1025 13.5927C20.1501 13.6125 20.2012 13.6227 20.2529 13.623C20.3537 13.622 20.4502 13.5827 20.5222 13.5133C20.5943 13.4439 20.6363 13.3498 20.6396 13.2506C20.6418 13.1997 20.6337 13.1488 20.6157 13.101C20.5976 13.0532 20.5701 13.0095 20.5347 12.9723C20.4992 12.9352 20.4566 12.9053 20.4093 12.8846C20.362 12.8639 20.3109 12.8528 20.2592 12.8517H20.2603ZM15.9233 11.6941C15.9251 11.6433 15.9163 11.5927 15.8975 11.5453C15.8787 11.498 15.8503 11.4549 15.8141 11.4187C15.7779 11.3825 15.7345 11.3539 15.6867 11.3347C15.6389 11.3155 15.5877 11.3061 15.536 11.3071C15.4845 11.3071 15.4334 11.3172 15.3858 11.3368C15.3382 11.3563 15.2949 11.3849 15.2585 11.4209C15.2221 11.4569 15.1933 11.4996 15.1737 11.5465C15.154 11.5935 15.144 11.6439 15.1442 11.6946C15.1469 11.7937 15.1879 11.8879 15.2588 11.9582C15.3297 12.0284 15.4252 12.0694 15.5257 12.0726C15.5773 12.0744 15.6286 12.0659 15.6767 12.0476C15.7248 12.0294 15.7687 12.0017 15.8057 11.9664C15.8427 11.9311 15.8721 11.8887 15.8921 11.8419C15.9122 11.7951 15.9224 11.7449 15.9222 11.6941H15.9233ZM17.1299 11.3076C17.0784 11.3041 17.0268 11.3109 16.978 11.3276C16.9293 11.3443 16.8845 11.3706 16.8464 11.4048C16.8083 11.439 16.7776 11.4805 16.7562 11.5267C16.7348 11.573 16.7232 11.623 16.722 11.6738C16.7194 11.7245 16.7271 11.7753 16.7448 11.823C16.7624 11.8708 16.7897 11.9145 16.8248 11.9517C16.86 11.9889 16.9023 12.0188 16.9494 12.0395C16.9965 12.0603 17.0474 12.0716 17.099 12.0726C17.1996 12.0751 17.2974 12.0393 17.3721 11.9727C17.4467 11.9062 17.4925 11.8139 17.5 11.715C17.5033 11.6643 17.4963 11.6135 17.4794 11.5655C17.4626 11.5175 17.4362 11.4733 17.4019 11.4354C17.3676 11.3975 17.326 11.3667 17.2795 11.3448C17.233 11.3228 17.1825 11.3102 17.131 11.3076H17.1299ZM16.7214 13.2359C16.721 13.2868 16.7308 13.3372 16.7503 13.3843C16.7698 13.4314 16.7986 13.4742 16.8351 13.5102C16.8716 13.5462 16.9149 13.5747 16.9627 13.5941C17.0105 13.6134 17.0616 13.6233 17.1133 13.623C17.2171 13.6193 17.3155 13.5761 17.3877 13.5024C17.4598 13.4288 17.5001 13.3304 17.5 13.228C17.4965 13.1289 17.4548 13.0348 17.3832 12.965C17.3116 12.8951 17.2157 12.8548 17.115 12.8523C17.0633 12.8513 17.012 12.8605 16.964 12.8794C16.916 12.8983 16.8723 12.9264 16.8355 12.9622C16.7987 12.9979 16.7696 13.0406 16.7498 13.0876C16.73 13.1346 16.7199 13.185 16.7203 13.2359H16.7214ZM15.5464 13.6246C15.598 13.6227 15.6487 13.6107 15.6955 13.5894C15.7424 13.568 15.7845 13.5378 15.8195 13.5003C15.8544 13.4629 15.8815 13.419 15.8991 13.3712C15.9167 13.3234 15.9246 13.2726 15.9222 13.2218C15.9192 13.1228 15.8772 13.0288 15.805 12.9598C15.7327 12.8908 15.6361 12.8523 15.5355 12.8523C15.4313 12.8545 15.3321 12.8965 15.2588 12.9695C15.1856 13.0425 15.144 13.1407 15.143 13.2433C15.1473 13.3458 15.1917 13.4427 15.2668 13.5138C15.342 13.5849 15.4422 13.6246 15.5464 13.6246ZM18.6831 13.6246C18.7871 13.6217 18.8857 13.5787 18.9578 13.5048C19.03 13.431 19.0697 13.3322 19.0687 13.2297C19.0653 13.1306 19.0237 13.0364 18.9522 12.9665C18.8808 12.8966 18.7849 12.8561 18.6842 12.8534C18.5795 12.8534 18.479 12.8937 18.404 12.9657C18.3291 13.0377 18.2857 13.1357 18.2832 13.2388C18.2866 13.3414 18.33 13.4388 18.4045 13.5107C18.479 13.5826 18.5788 13.6234 18.6831 13.6246ZM20.2448 11.3088C20.193 11.3087 20.1416 11.319 20.094 11.3391C20.0463 11.3591 20.0032 11.3885 19.9673 11.4254C19.9315 11.4623 19.9037 11.506 19.8855 11.5539C19.8673 11.6017 19.8592 11.6527 19.8616 11.7037C19.8639 11.8026 19.9052 11.8968 19.9767 11.9664C20.0482 12.0359 20.1443 12.0754 20.2448 12.0766C20.2964 12.0774 20.3476 12.0681 20.3954 12.0492C20.4432 12.0303 20.4867 12.0022 20.5234 11.9665C20.5601 11.9308 20.5891 11.8883 20.6089 11.8414C20.6286 11.7946 20.6387 11.7443 20.6384 11.6935C20.6396 11.6424 20.6302 11.5915 20.6109 11.5441C20.5915 11.4966 20.5625 11.4535 20.5257 11.4175C20.4889 11.3814 20.445 11.353 20.3967 11.3341C20.3484 11.3153 20.2968 11.3062 20.2448 11.3076V11.3088Z" fill="#A0A0A0"/>
<path d="M10.032 15.2319C9.05291 15.3922 8.10473 15.558 7.15197 15.6985C6.76583 15.7549 6.44843 15.5896 6.24562 15.2585C6.14611 15.1099 6.09558 14.9347 6.10091 14.7568C6.10624 14.5789 6.16718 14.4069 6.27541 14.2644C6.49197 13.9547 6.80364 13.8131 7.1852 13.8751C8.08067 14.0156 8.97385 14.1685 9.86932 14.3084C9.99593 14.3282 10.0383 14.3722 10.0343 14.4957C10.0269 14.7338 10.032 14.9724 10.032 15.2319ZM7.67218 14.7806C7.67214 14.7298 7.6617 14.6795 7.64149 14.6327C7.62128 14.586 7.59172 14.5437 7.55456 14.5084C7.5174 14.4731 7.47341 14.4456 7.42521 14.4274C7.37701 14.4092 7.32559 14.4008 7.27401 14.4026C7.17361 14.4064 7.07843 14.4477 7.00771 14.5179C6.93698 14.5882 6.89599 14.6823 6.89301 14.7812C6.89286 14.832 6.90291 14.8823 6.92258 14.9292C6.94225 14.9762 6.97115 15.0189 7.00762 15.0548C7.04409 15.0907 7.08742 15.1191 7.1351 15.1385C7.18278 15.1579 7.23388 15.1678 7.28546 15.1676C7.3373 15.1688 7.38881 15.1594 7.43682 15.1401C7.48482 15.1209 7.5283 15.0921 7.56456 15.0556C7.60081 15.0191 7.62907 14.9757 7.64758 14.928C7.6661 14.8803 7.67447 14.8294 7.67218 14.7784V14.7806Z" fill="#A0A0A0"/>
</g>
<defs>
<clipPath id="clip0_290_414">
<rect width="22" height="12.6575" fill="white" transform="translate(1 6)"/>
</clipPath>
</defs>
</svg>
