<svg width="24" height="24" viewBox="0 0 24 24" fill="none" xmlns="http://www.w3.org/2000/svg">
<g clip-path="url(#clip0_290_408)">
<path d="M18.2905 13.7676H7.14621C6.58496 13.7676 6.16367 14.033 5.97204 14.5003C5.69353 15.1884 6.19279 15.9741 6.93533 16.0145C6.99967 16.0183 7.06449 16.0173 7.12883 16.0173H18.3435C19.7084 16.0173 20.7182 15.1719 20.9676 13.8277C20.9758 13.7945 20.9858 13.7617 20.9976 13.7296V13.166C20.9859 13.1338 20.9759 13.101 20.9676 13.0678C20.7177 11.7213 19.7089 10.8787 18.344 10.8782C14.5942 10.8782 10.8444 10.8793 7.09455 10.8815C6.8137 10.8816 6.53337 10.9058 6.25666 10.9538C4.08069 11.3324 2.59983 13.5675 3.09298 15.7172C3.52695 17.6076 5.15341 18.9077 7.08985 18.9081C11.3084 18.9081 15.527 18.9081 19.7455 18.9081C19.8099 18.9081 19.8747 18.9081 19.939 18.9044C20.1628 18.8931 20.3779 18.8145 20.5562 18.6788C20.7344 18.5431 20.8675 18.3567 20.938 18.144C20.9563 18.09 20.9779 18.0364 20.9976 17.9824V17.5959C20.9742 17.5376 20.9507 17.4789 20.9272 17.4207C20.7525 16.998 20.4434 16.7397 19.985 16.6767C19.8629 16.6623 19.7398 16.6564 19.6168 16.6589C15.4449 16.6589 11.273 16.6589 7.10112 16.6589C6.3614 16.6589 5.79545 16.356 5.44883 15.6994C4.85611 14.5759 5.67615 13.1805 6.9466 13.1312C7.02269 13.1284 7.09924 13.1284 7.17533 13.1284H18.2848C18.5967 13.1284 18.7512 13.2374 18.7465 13.4539C18.7418 13.6704 18.5948 13.7676 18.2905 13.7676Z" fill="#A0A0A0"/>
<path d="M3.71481 11.6114C4.61892 10.719 5.70479 10.2423 6.97806 10.2399C10.804 10.2334 14.6297 10.2334 18.4553 10.2399C19.1772 10.2399 19.8216 10.4748 20.3932 10.9125C20.4373 10.9463 20.4833 10.9783 20.5444 11.0229C20.5441 10.9861 20.5417 10.9495 20.5373 10.913C20.3598 10.0413 20.1912 9.16817 20.0015 8.29929C19.6727 6.80386 18.4154 5.74946 16.9078 5.74288C13.7453 5.73036 10.5815 5.73036 7.41625 5.74288C5.92694 5.74899 4.66119 6.79306 4.33336 8.2448C4.17602 8.94132 4.03089 9.64019 3.88107 10.3376C3.78432 10.7885 3.68945 11.2394 3.59222 11.6969C3.61806 11.6912 3.63168 11.6922 3.63919 11.6856C3.66502 11.6612 3.68991 11.6358 3.71481 11.6114Z" fill="#A0A0A0"/>
</g>
<defs>
<clipPath id="clip0_290_408">
<rect width="18" height="13.1775" fill="white" transform="translate(3 5.73208)"/>
</clipPath>
</defs>
</svg>
