<svg width="52" height="52" viewBox="0 0 52 52" fill="none" xmlns="http://www.w3.org/2000/svg">
<rect width="52" height="52" rx="12" fill="#5CD79A" fill-opacity="0.1"/>
<path d="M22.5714 14.3337V16.0003H29.4286V14.3337C29.4286 13.4133 30.1946 12.667 31.1429 12.667C32.0911 12.667 32.8571 13.4133 32.8571 14.3337V16.0003H35.4286C36.8482 16.0003 38 17.1196 38 18.5003V21.0003H14V18.5003C14 17.1196 15.1512 16.0003 16.5714 16.0003H19.1429V14.3337C19.1429 13.4133 19.9089 12.667 20.8571 12.667C21.8054 12.667 22.5714 13.4133 22.5714 14.3337ZM14 22.667H38V36.8337C38 38.2139 36.8482 39.3337 35.4286 39.3337H16.5714C15.1512 39.3337 14 38.2139 14 36.8337V22.667ZM31.5768 28.5055C32.1232 28.0628 32.1232 27.2712 31.5768 26.7816C31.1214 26.2972 30.3071 26.2972 29.8036 26.7816L24.7143 31.7347L22.1482 29.2816C21.6929 28.7972 20.8786 28.7972 20.375 29.2816C19.8768 29.7712 19.8768 30.5628 20.375 31.0055L23.8036 34.3389C24.3071 34.8701 25.1214 34.8701 25.5768 34.3389L31.5768 28.5055Z" fill="#5CD79A"/>
</svg>
