<svg width="27" height="28" viewBox="0 0 27 28" fill="none" xmlns="http://www.w3.org/2000/svg">
<path d="M25.2943 10.25H22.4002L21.5958 8.3C20.7692 6.29516 18.7964 5 16.5694 5H10.4303C8.20372 5 6.23048 6.29516 5.40339 8.3L4.59901 10.25H1.70539C1.32785 10.25 1.05086 10.5941 1.14271 10.9489L1.43275 12.0739C1.49704 12.3242 1.72907 12.5 1.99543 12.5H2.96561C2.3164 13.0498 1.89826 13.8491 1.89826 14.75V17C1.89826 17.7556 2.19604 18.4377 2.6717 18.9655V21.5C2.6717 22.3283 3.36441 23 4.21858 23H5.76546C6.61962 23 7.31233 22.3283 7.31233 21.5V20H19.6873V21.5C19.6873 22.3283 20.3801 23 21.2342 23H22.7811C23.6353 23 24.328 22.3283 24.328 21.5V18.9655C24.8036 18.4381 25.1014 17.7561 25.1014 17V14.75C25.1014 13.8491 24.6833 13.0498 24.0346 12.5H25.0047C25.2711 12.5 25.5031 12.3242 25.5674 12.0739L25.8575 10.9489C25.9488 10.5941 25.6718 10.25 25.2943 10.25ZM8.27575 9.41422C8.62814 8.56016 9.48134 8 10.4303 8H16.5694C17.5183 8 18.3715 8.56016 18.7239 9.41422L19.6873 11.75H7.31233L8.27575 9.41422ZM5.76546 16.9906C4.83733 16.9906 4.21858 16.3925 4.21858 15.4953C4.21858 14.5981 4.83733 14 5.76546 14C6.69358 14 8.08577 15.3458 8.08577 16.243C8.08577 17.1402 6.69358 16.9906 5.76546 16.9906ZM21.2342 16.9906C20.3061 16.9906 18.9139 17.1402 18.9139 16.243C18.9139 15.3458 20.3061 14 21.2342 14C22.1624 14 22.7811 14.5981 22.7811 15.4953C22.7811 16.3925 22.1624 16.9906 21.2342 16.9906Z" fill="#E12E57"/>
</svg>
