<svg width="24" height="24" viewBox="0 0 24 24" fill="none" xmlns="http://www.w3.org/2000/svg">
<g clip-path="url(#clip0_1530_2818)">
<path d="M3 14.8309C3.00778 14.4589 3.12487 14.0973 3.33667 13.7913C4.93186 11.396 6.79659 9.19154 8.89428 7.22126C10.3976 5.80592 12.0165 4.51846 13.7339 3.37228C14.4179 2.91626 15.132 2.8726 15.8583 3.27525C16.8945 3.85255 17.7755 4.62584 18.5895 5.47772C19.5045 6.43633 20.3098 7.47692 20.9006 8.67033C20.9636 8.78666 21.0077 8.91226 21.0311 9.04243C21.0583 9.24667 20.9419 9.42374 20.7561 9.51009C20.5703 9.59644 20.4024 9.56151 20.2516 9.43053C20.203 9.38687 20.1545 9.33932 20.106 9.29227C19.0614 8.24828 18.0161 7.20477 16.9702 6.16175C16.8782 6.06669 16.7666 5.99285 16.6432 5.94539C16.5236 5.90761 16.3947 5.91135 16.2775 5.956C16.1603 6.00064 16.0616 6.08357 15.9975 6.19134C15.9288 6.29995 15.8991 6.42876 15.9135 6.55648C15.9279 6.6842 15.9854 6.80319 16.0766 6.8938C16.4268 7.25377 16.7853 7.60597 17.1404 7.96108C17.855 8.67567 18.5735 9.38735 19.2813 10.1092C19.3861 10.2155 19.4615 10.3473 19.5001 10.4915C19.5267 10.6111 19.5113 10.7363 19.4566 10.8459C19.4018 10.9555 19.311 11.043 19.1993 11.0935C18.9669 11.208 18.719 11.1682 18.5163 10.9698C17.7895 10.2583 17.0641 9.54567 16.34 8.83188C15.9991 8.49682 15.6577 8.16192 15.3159 7.82718C15.0093 7.52592 14.6736 7.49536 14.4208 7.74617C14.1681 7.99698 14.1952 8.33996 14.4941 8.64171C15.529 9.68603 16.5649 10.7303 17.6018 11.7747C17.7512 11.9241 17.8497 12.09 17.8216 12.3083C17.7934 12.5266 17.676 12.6964 17.4664 12.7745C17.2569 12.8526 17.0458 12.8303 16.8717 12.6775C16.731 12.5538 16.602 12.417 16.4685 12.2845C15.5274 11.3511 14.5887 10.4153 13.6412 9.48777C13.5294 9.38009 13.393 9.30118 13.2439 9.25782C13.0261 9.19669 12.7889 9.32234 12.6734 9.52173C12.6133 9.61744 12.5833 9.72899 12.5873 9.84194C12.5912 9.9549 12.629 10.0641 12.6957 10.1553C12.7432 10.2181 12.7964 10.2762 12.8549 10.329C13.8898 11.3639 14.926 12.3989 15.9635 13.4338C16.1173 13.5871 16.2197 13.7583 16.1852 13.9815C16.1508 14.2046 16.0271 14.3725 15.8039 14.4462C15.701 14.4847 15.589 14.492 15.4819 14.4672C15.3749 14.4425 15.2775 14.3867 15.2019 14.307C14.7601 13.8753 14.3194 13.4427 13.8799 13.0093C13.2279 12.3683 12.5757 11.7279 11.9234 11.0882C11.6779 10.849 11.3185 10.8456 11.0924 11.0751C10.8663 11.3046 10.8731 11.6573 11.1084 11.9061C11.1462 11.9454 11.1855 11.9833 11.2239 12.0216C12.2514 13.0491 13.279 14.0761 14.3068 15.1026C14.4727 15.268 14.5673 15.4538 14.5149 15.6887C14.4962 15.7907 14.4486 15.8853 14.3779 15.9612C14.3071 16.0371 14.2162 16.0911 14.1157 16.117C13.8906 16.1835 13.697 16.1238 13.5335 15.9642C13.1221 15.5625 12.7119 15.1595 12.3028 14.7553C11.6236 14.089 10.9459 13.4228 10.2696 12.7565C10.1929 12.6737 10.0937 12.6149 9.98408 12.5874C9.87451 12.5599 9.75931 12.5649 9.65252 12.6018C9.55564 12.6301 9.46874 12.6852 9.40193 12.7609C9.33513 12.8365 9.29116 12.9296 9.27511 13.0292C9.22659 13.2645 9.3236 13.4488 9.48903 13.6113C10.3603 14.4778 11.2297 15.3462 12.0971 16.2165C12.2853 16.4052 12.475 16.592 12.6618 16.7821C12.9203 17.0465 12.933 17.4031 12.6943 17.6384C12.4556 17.8737 12.117 17.864 11.8521 17.6044C10.7793 16.554 9.70863 15.5016 8.64006 14.4472C8.49452 14.3017 8.33251 14.21 8.12391 14.2318C8.01698 14.2378 7.9142 14.2752 7.82842 14.3393C7.74265 14.4034 7.67768 14.4914 7.64167 14.5923C7.54998 14.83 7.60384 15.0454 7.78188 15.2258C8.28414 15.7343 8.78706 16.2417 9.29062 16.7482C9.86162 17.3245 10.4341 17.8989 11.0021 18.4781C11.0974 18.569 11.1582 18.6901 11.174 18.8208C11.1898 18.9515 11.1598 19.0837 11.089 19.1947C11.0249 19.3025 10.9259 19.3853 10.8085 19.4294C10.691 19.4735 10.562 19.4762 10.4428 19.4372C10.3195 19.3886 10.208 19.3141 10.1158 19.2189C9.06729 18.1872 8.02202 17.1523 6.97997 16.1141C6.81988 15.9545 6.64038 15.857 6.41237 15.9002C6.30941 15.9148 6.21286 15.9588 6.13423 16.0268C6.05559 16.0949 5.99821 16.1841 5.96896 16.2839C5.93285 16.3847 5.92642 16.4937 5.95041 16.598C5.9744 16.7023 6.02781 16.7975 6.10431 16.8724C6.33668 17.1106 6.57392 17.3444 6.80921 17.5797C7.66109 18.4316 8.51328 19.2831 9.36581 20.1343C9.49437 20.2624 9.60014 20.3992 9.57151 20.5942C9.523 20.9241 9.20281 21.1056 8.88748 20.9513C8.47185 20.7557 8.06846 20.535 7.67952 20.2906C6.02282 19.2111 4.61207 17.8746 3.52151 16.2155C3.30951 15.8929 3.1043 15.5615 3.03638 15.1691C3.02038 15.0599 3.01261 14.9449 3 14.8309Z" fill="#A0A0A0"/>
</g>
<defs>
<clipPath id="clip0_1530_2818">
<rect width="18.035" height="18.0098" fill="white" transform="translate(3 3)"/>
</clipPath>
</defs>
</svg>
