<svg width="24" height="24" viewBox="0 0 24 24" fill="none" xmlns="http://www.w3.org/2000/svg">
<g clip-path="url(#clip0_1530_2737)">
<path d="M14.834 18.0184H8.40062C7.98207 13.2599 7.56351 8.50583 7.14209 3.72516H16.0889C15.6732 8.48358 15.2547 13.2384 14.834 18.0184ZM14.3314 10.7285C14.3314 10.1542 14.3451 9.57986 14.3314 9.00911C14.3087 8.30748 14.0145 7.64206 13.5108 7.1531C13.0071 6.66414 12.3333 6.38982 11.6313 6.38795C10.1782 6.37503 8.93763 7.55244 8.90317 9.01414C8.87732 10.1599 8.87732 11.3062 8.90317 12.453C8.93547 13.9054 10.1531 15.0698 11.6033 15.0749C12.3097 15.0797 12.9899 14.8079 13.4985 14.3177C14.0072 13.8274 14.3038 13.1577 14.325 12.4516C14.3443 11.8758 14.33 11.3022 14.33 10.7293L14.3314 10.7285Z" fill="#A0A0A0"/>
<path d="M7 1.99988H16.2419C16.2053 2.4134 16.1701 2.8097 16.1342 3.22035C16.0258 3.22538 15.9382 3.23257 15.8513 3.23257C13.032 3.23257 10.2134 3.23256 7.39486 3.23974C7.14071 3.23974 7.07251 3.15431 7.06748 2.92242C7.06102 2.62233 7.02513 2.32079 7 1.99988Z" fill="#A0A0A0"/>
<path d="M8.35125 20.1097H10.1461C10.154 20.1865 10.1647 20.2533 10.1676 20.3251C10.1884 20.9489 10.5739 21.3388 11.1978 21.3553C11.4663 21.3625 11.7348 21.361 12.0026 21.3553C12.6667 21.3438 13.0637 20.941 13.0702 20.2784C13.0702 20.2267 13.0802 20.175 13.0867 20.1118H14.9038C14.8865 20.4909 14.9038 20.8585 14.8463 21.2146C14.7745 21.6547 14.3581 21.9885 13.8757 21.9928C12.3731 22.0057 10.8697 22.0086 9.36639 21.9928C8.76333 21.9856 8.3613 21.5369 8.34981 20.9324C8.34766 20.6618 8.35125 20.394 8.35125 20.1097Z" fill="#A0A0A0"/>
<path d="M8.35986 19.6036V18.5267H14.8729V19.6036H8.35986Z" fill="#A0A0A0"/>
<path d="M12.5697 20.1183C12.6415 20.6402 12.4513 20.8707 11.9767 20.8764C11.7374 20.8793 11.4964 20.8793 11.2537 20.8764C10.7814 20.87 10.589 20.6302 10.6694 20.1183H12.5697Z" fill="#A0A0A0"/>
<path d="M13.8526 10.7278C13.8526 11.3273 13.8813 11.9282 13.8461 12.5227C13.7743 13.7295 12.7628 14.6212 11.5394 14.5903C10.965 14.5736 10.4193 14.3355 10.0165 13.9256C9.61371 13.5157 9.38509 12.9659 9.37847 12.3913C9.36603 11.2823 9.36603 10.1731 9.37847 9.0637C9.38647 8.48438 9.61855 7.93067 10.026 7.51879C10.4335 7.10691 10.9846 6.86887 11.5638 6.85463C12.1431 6.8384 12.7058 7.0487 13.1324 7.44084C13.559 7.83298 13.8158 8.37604 13.8483 8.95457C13.8813 9.54327 13.854 10.1348 13.854 10.725L13.8526 10.7278Z" fill="#A0A0A0"/>
</g>
<defs>
<clipPath id="clip0_1530_2737">
<rect width="9.24187" height="20" fill="white" transform="translate(7 2)"/>
</clipPath>
</defs>
</svg>
