<svg width="24" height="24" viewBox="0 0 24 24" fill="none" xmlns="http://www.w3.org/2000/svg">
<path d="M11.6253 2C12.3167 2 12.8753 2.55977 12.8753 3.25V4.64375C12.9378 4.65195 12.9964 4.66094 13.0589 4.66992C13.473 4.73164 14.7073 4.93047 15.2152 5.05898C15.848 5.22852 16.2894 5.91016 16.1175 6.57812C15.9495 7.24609 15.2698 7.65234 14.598 7.48438C14.2347 7.35547 13.1292 7.20703 12.6917 7.14453C11.4378 6.95703 10.3636 7.05078 9.62531 7.33203C8.91125 7.60547 8.61476 7.99219 8.53625 8.42578C8.46047 8.84375 8.51789 9.08203 8.58664 9.23047C8.66047 9.38672 8.80461 9.5625 9.09172 9.75391C9.72687 10.1719 10.6956 10.4531 11.9534 10.793L12.0628 10.8242C13.1722 11.125 14.5316 11.4961 15.5394 12.1641C16.0902 12.5312 16.6097 13.0273 16.93 13.7148C17.2542 14.4102 17.3245 15.1914 17.1761 15.9883C16.9027 17.5078 15.848 18.5 14.6097 19.0156C14.0784 19.2344 13.4925 19.375 12.8753 19.4453V20.75C12.8753 21.4414 12.3167 22 11.6253 22C10.9339 22 10.3753 21.4414 10.3753 20.75V19.3867C10.3597 19.3867 10.3402 19.3477 10.3245 19.3789H10.3167C9.3675 19.2305 7.79992 18.8203 6.7425 18.3516C6.11164 18.0703 5.82765 17.332 6.10812 16.6992C6.38859 16.0703 7.12726 15.7852 7.72297 16.0664C8.57453 16.4297 9.91828 16.7852 10.6956 16.9062C11.9456 17.0938 12.973 16.9844 13.6683 16.7031C14.3284 16.4336 14.6292 16.043 14.7152 15.5742C14.7894 15.1562 14.7347 14.918 14.6644 14.7695C14.5902 14.6133 14.4456 14.4375 14.1605 14.2461C13.5237 13.8281 12.555 13.5469 11.2972 13.207L11.1878 13.1758C10.0784 12.875 8.71828 12.5039 7.70969 11.8359C7.15851 11.4688 6.64211 10.9727 6.3214 10.2852C5.99601 9.58984 5.92531 8.80859 6.07648 7.97656C6.35304 6.45703 7.44758 5.48789 8.73312 4.99727C9.24172 4.80313 9.79328 4.67539 10.3753 4.60664V3.25C10.3753 2.55977 10.9339 2 11.6253 2Z" fill="#A0A0A0"/>
</svg>
