<svg width="36" height="36" viewBox="0 0 36 36" fill="none" xmlns="http://www.w3.org/2000/svg">
<g clip-path="url(#clip0_3_1138)">
<path d="M17.8728 3.21436C18.3315 3.32394 18.8019 3.39854 19.2461 3.5501C20.7938 4.07765 21.9275 5.09366 22.7075 6.52823C22.7888 6.66123 22.9118 6.76367 23.0572 6.81969C23.7101 7.06626 24.1648 7.50463 24.2365 8.20122C24.3012 8.85117 24.2505 9.5122 24.2505 10.1831H20.7675C20.89 9.2767 20.5303 8.32714 21.1109 7.472C21.1494 7.41371 21.1109 7.27146 21.0625 7.19335C20.2155 5.76112 18.9541 5.00622 17.2933 4.96775C16.1013 4.93977 14.9075 4.94444 13.7154 4.96775C12.5625 4.98426 11.4623 5.45307 10.6518 6.27314C9.84132 7.09322 9.38549 8.19892 9.38255 9.35191C9.36856 12.5999 9.37672 15.8485 9.38663 19.0966C9.39993 19.2326 9.46581 19.3581 9.57025 19.4463C9.97072 19.7803 10.2418 20.1866 10.2441 20.713C10.2546 23.0493 10.2488 25.3857 10.2488 27.7465H6.76058V27.4469C6.76058 25.2942 6.76932 23.1414 6.75592 20.9893C6.75183 20.3283 6.97043 19.8054 7.49914 19.4008C7.58308 19.3367 7.62796 19.1735 7.62796 19.0552C7.63496 16.1274 7.63671 13.1992 7.63321 10.2706C7.63321 9.44692 7.61572 8.62384 7.8314 7.81592C8.14677 6.63841 8.80223 5.57998 9.71584 4.77295C10.6294 3.96593 11.7607 3.4461 12.9681 3.27845C13.0526 3.2633 13.1362 3.24384 13.2187 3.22016L17.8728 3.21436Z" fill="#E12E57"/>
<path d="M3.21167 30.9654C3.31251 30.7375 3.38655 30.4897 3.51945 30.2851C3.87328 29.7529 4.39383 29.5122 5.02863 29.5116C7.34398 29.5116 9.65934 29.5064 11.9741 29.5116C13.0607 29.5151 13.7876 30.2542 13.7998 31.3443C13.8025 31.5775 13.8025 31.8106 13.7998 32.0438C13.7928 32.6483 13.4454 32.9998 12.8397 33.0016C11.5614 33.0051 10.2825 33.0016 9.00414 33.0016C7.46406 33.0016 5.92341 32.9864 4.38334 33.0097C3.84297 33.0179 3.44425 32.8646 3.21167 32.3615V30.9654Z" fill="#E12E57"/>
<path d="M19.0361 24.5986V24.2233C19.0361 20.791 19.0361 17.359 19.0361 13.9272C19.0361 12.6325 19.731 11.9412 21.0326 11.9412H24.2719V12.2909C24.2719 15.3645 24.2719 18.4378 24.2719 21.5109C24.2719 22.6354 24.7324 23.5144 25.7671 23.9953C26.1741 24.1719 26.6129 24.2633 27.0565 24.2641C28.9178 24.2926 30.779 24.2763 32.6403 24.2763H32.9801C32.9866 24.3737 32.997 24.457 32.997 24.5404C32.997 26.45 33.0017 28.3602 32.997 30.2699C32.9935 31.5785 32.2725 32.5508 31.0425 32.9012C30.8094 32.9656 30.5686 32.9983 30.3267 32.9985C28.5039 33.0067 26.6811 33.0032 24.8589 33.0026C24.8129 33.0026 24.7674 32.9968 24.7027 32.9921C26.2894 30.9128 26.5027 28.7619 25.0798 26.5456C24.4468 25.5605 23.5223 24.9099 22.4101 24.5415C21.2979 24.1731 20.1833 24.1894 19.0361 24.5986Z" fill="#E12E57"/>
<path d="M26.0179 12.0439C26.7708 12.1068 27.5071 12.2999 28.194 12.6146C30.7232 13.7665 32.2686 15.7181 32.8573 18.4304C32.9214 18.7041 32.9579 18.9836 32.9663 19.2646C32.9786 20.3389 32.971 21.4138 32.971 22.5172C32.8946 22.5207 32.8013 22.5289 32.7087 22.5289C30.8282 22.5289 28.9475 22.5289 27.0666 22.5289C26.3467 22.5289 26.0208 22.2019 26.0173 21.4797C26.0173 18.4357 26.0173 15.3916 26.0173 12.3476L26.0179 12.0439Z" fill="#E12E57"/>
<path d="M24.2714 29.5097C24.2716 30.1997 24.0673 30.8743 23.6843 31.4482C23.3013 32.0221 22.7568 32.4696 22.1195 32.7341C21.4823 32.9987 20.7809 33.0684 20.1041 32.9345C19.4272 32.8006 18.8053 32.469 18.3168 31.9818C17.8283 31.4945 17.4952 30.8734 17.3596 30.1968C17.224 29.5203 17.2919 28.8188 17.5549 28.1809C17.8178 27.543 18.264 26.9974 18.8369 26.6129C19.4099 26.2285 20.0839 26.0225 20.7739 26.021C21.7 26.021 22.5882 26.3883 23.2439 27.0423C23.8996 27.6963 24.2691 28.5837 24.2714 29.5097ZM21.6482 29.501C21.6464 29.3288 21.5935 29.161 21.4963 29.0188C21.3991 28.8766 21.2619 28.7665 21.102 28.7023C20.9422 28.6381 20.7669 28.6227 20.5984 28.6581C20.4298 28.6935 20.2755 28.7781 20.155 28.9012C20.0346 29.0243 19.9533 29.1804 19.9215 29.3496C19.8897 29.5189 19.9088 29.6938 19.9764 29.8522C20.044 30.0107 20.1571 30.1455 20.3013 30.2396C20.4455 30.3338 20.6145 30.3831 20.7867 30.3812C21.0175 30.3775 21.2377 30.2831 21.3994 30.1184C21.5612 29.9537 21.6516 29.7319 21.6512 29.501H21.6482Z" fill="#E12E57"/>
</g>
<defs>
<clipPath id="clip0_3_1138">
<rect width="29.7883" height="29.7959" fill="white" transform="translate(3.21167 3.21436)"/>
</clipPath>
</defs>
</svg>
