<svg width="24" height="24" viewBox="0 0 24 24" fill="none" xmlns="http://www.w3.org/2000/svg">
<g clip-path="url(#clip0_269_632)">
<path d="M11.9151 2.14282C12.221 2.21588 12.5346 2.26561 12.8307 2.36665C13.8625 2.71835 14.6183 3.39569 15.1383 4.35207C15.1925 4.44074 15.2744 4.50903 15.3714 4.54638C15.8067 4.71076 16.1098 5.003 16.1576 5.4674C16.2007 5.9007 16.1669 6.34139 16.1669 6.78868H13.845C13.9266 6.18439 13.6868 5.55135 14.0739 4.98125C14.0995 4.94239 14.0739 4.84756 14.0416 4.79548C13.4769 3.84066 12.636 3.3374 11.5288 3.31175C10.7341 3.2931 9.93824 3.29621 9.14353 3.31175C8.37495 3.32276 7.64146 3.6353 7.10114 4.18201C6.56082 4.72873 6.25693 5.46587 6.25497 6.23453C6.24564 8.39988 6.25109 10.5656 6.25769 12.731C6.26656 12.8217 6.31048 12.9053 6.38011 12.9641C6.64708 13.1868 6.82779 13.4577 6.82934 13.8086C6.83634 15.3661 6.83245 16.9237 6.83245 18.4976H4.50699V18.2978C4.50699 16.8627 4.51282 15.4275 4.50388 13.9928C4.50116 13.5521 4.64689 13.2035 4.99936 12.9338C5.05532 12.8911 5.08525 12.7823 5.08525 12.7034C5.08991 10.7515 5.09108 8.79936 5.08874 6.84697C5.08874 6.29786 5.07709 5.74915 5.22087 5.21053C5.43112 4.42553 5.86809 3.7199 6.47716 3.18189C7.08624 2.64387 7.84038 2.29732 8.64533 2.18555C8.70165 2.17545 8.75743 2.16248 8.81243 2.14669L11.9151 2.14282Z" fill="#A0A0A0"/>
<path d="M2.14111 20.6435C2.20834 20.4916 2.2577 20.3264 2.3463 20.19C2.58219 19.8352 2.92922 19.6747 3.35242 19.6743C4.89599 19.6743 6.43956 19.6708 7.98274 19.6743C8.70711 19.6766 9.19171 20.1694 9.19987 20.8961C9.20169 21.0516 9.20169 21.207 9.19987 21.3624C9.19521 21.7654 8.9636 21.9998 8.55983 22.0009C7.7076 22.0033 6.85499 22.0009 6.00276 22.0009C4.97604 22.0009 3.94894 21.9908 2.92222 22.0064C2.56198 22.0118 2.29617 21.9096 2.14111 21.5742V20.6435Z" fill="#A0A0A0"/>
<path d="M12.6908 16.3991V16.1488C12.6908 13.8607 12.6908 11.5726 12.6908 9.28475C12.6908 8.42164 13.154 7.96075 14.0218 7.96075H16.1813V8.19392C16.1813 10.2429 16.1813 12.2918 16.1813 14.3406C16.1813 15.0902 16.4883 15.6763 17.1781 15.9969C17.4494 16.1146 17.742 16.1755 18.0377 16.176C19.2786 16.1951 20.5194 16.1842 21.7602 16.1842H21.9868C21.9911 16.2491 21.9981 16.3046 21.9981 16.3602C21.9981 17.6333 22.0012 18.9068 21.9981 20.1799C21.9957 21.0523 21.515 21.7005 20.6951 21.9341C20.5396 21.977 20.3791 21.9989 20.2178 21.999C19.0026 22.0044 17.7875 22.0021 16.5726 22.0017C16.5419 22.0017 16.5116 21.9978 16.4685 21.9947C17.5263 20.6085 17.6685 19.1746 16.7199 17.6971C16.2979 17.0403 15.6816 16.6066 14.9401 16.361C14.1986 16.1154 13.4556 16.1263 12.6908 16.3991Z" fill="#A0A0A0"/>
<path d="M17.3452 8.02914C17.8471 8.07107 18.338 8.1998 18.7959 8.4096C20.4821 9.1775 21.5123 10.4786 21.9048 12.2868C21.9475 12.4693 21.9718 12.6556 21.9774 12.8429C21.9856 13.5591 21.9805 14.2757 21.9805 15.0113C21.9296 15.0137 21.8675 15.0191 21.8057 15.0191C20.552 15.0191 19.2982 15.0191 18.0443 15.0191C17.5644 15.0191 17.3471 14.8011 17.3448 14.3196C17.3448 12.2903 17.3448 10.2609 17.3448 8.23161L17.3452 8.02914Z" fill="#A0A0A0"/>
<path d="M16.1809 19.6731C16.1811 20.1331 16.0449 20.5828 15.7895 20.9654C15.5342 21.348 15.1712 21.6463 14.7463 21.8227C14.3215 21.9991 13.8539 22.0456 13.4027 21.9563C12.9515 21.867 12.5368 21.646 12.2112 21.3211C11.8855 20.9963 11.6634 20.5822 11.573 20.1312C11.4826 19.6802 11.5279 19.2125 11.7032 18.7872C11.8785 18.362 12.176 17.9982 12.5579 17.7419C12.9399 17.4856 13.3892 17.3483 13.8492 17.3473C14.4666 17.3473 15.0588 17.5921 15.4959 18.0282C15.933 18.4642 16.1794 19.0557 16.1809 19.6731ZM14.4321 19.6673C14.4309 19.5525 14.3956 19.4406 14.3308 19.3458C14.266 19.251 14.1745 19.1776 14.068 19.1348C13.9614 19.092 13.8446 19.0818 13.7322 19.1054C13.6198 19.129 13.517 19.1854 13.4367 19.2674C13.3564 19.3495 13.3022 19.4535 13.281 19.5664C13.2598 19.6792 13.2725 19.7958 13.3176 19.9015C13.3627 20.0071 13.438 20.0969 13.5342 20.1597C13.6303 20.2225 13.743 20.2553 13.8578 20.2541C14.0117 20.2517 14.1584 20.1887 14.2663 20.0789C14.3741 19.9691 14.4344 19.8212 14.4341 19.6673H14.4321Z" fill="#A0A0A0"/>
</g>
<defs>
<clipPath id="clip0_269_632">
<rect width="19.8589" height="19.8639" fill="white" transform="translate(2.14111 2.14282)"/>
</clipPath>
</defs>
</svg>
