<svg width="24" height="24" viewBox="0 0 24 24" fill="none" xmlns="http://www.w3.org/2000/svg">
<g clip-path="url(#clip0_1530_2548)">
<path d="M15.44 22.0001H4.77387C4.63716 21.9667 4.49942 21.9374 4.36375 21.8999C3.30502 21.6076 2.66164 20.7963 2 20.0078V11.8829C2.15654 11.5448 2.42369 11.4159 2.78739 11.4514C2.91627 11.4639 3.0483 11.4514 3.1777 11.4514C4.24895 11.4884 5.13914 11.1065 5.88531 10.3368C6.75567 9.43934 7.64951 8.56584 8.53395 7.68244C8.9253 7.29213 9.39022 7.14498 9.92715 7.29682C10.9144 7.57703 11.2431 8.81003 10.5246 9.5536C9.9595 10.1391 9.37665 10.7068 8.80267 11.2823C8.75832 11.3267 8.7171 11.3741 8.64614 11.4508H9.53319C11.8051 11.4508 14.0774 11.4508 16.35 11.4508C16.6755 11.4461 16.9916 11.56 17.2394 11.7712C17.4871 11.9825 17.6495 12.2766 17.6962 12.5988C17.7917 13.225 17.3951 13.823 16.7476 14.0322C16.717 14.0485 16.6881 14.0675 16.661 14.0891C16.9991 14.0891 17.2981 14.0797 17.5965 14.0891C17.9423 14.0963 18.2711 14.24 18.5113 14.4888C18.7515 14.7376 18.8835 15.0713 18.8786 15.417C18.8746 15.7632 18.7348 16.094 18.4892 16.338C18.2436 16.582 17.912 16.7198 17.5658 16.7215C17.4009 16.7242 17.2365 16.7215 17.0721 16.7215C17.1 16.7524 17.1363 16.7743 17.1765 16.7847C17.7901 16.9965 18.1679 17.5752 18.0907 18.1888C18.0108 18.8338 17.511 19.3076 16.8457 19.3504C16.5472 19.3691 16.2467 19.3587 15.9477 19.3608C15.823 19.3608 15.6988 19.3608 15.574 19.3608C15.6033 19.4023 15.6452 19.4333 15.6935 19.449C15.9534 19.5497 16.1747 19.7302 16.3255 19.9646C16.4762 20.199 16.5488 20.4752 16.5326 20.7535C16.5152 21.0283 16.4128 21.291 16.2396 21.505C16.0664 21.7191 15.8309 21.8741 15.5657 21.9484C15.5224 21.9646 15.4817 21.9844 15.44 22.0001Z" fill="#A0A0A0"/>
<path d="M20.8708 22H17.3544C17.3688 21.9518 17.3862 21.9046 17.4066 21.8586C17.6249 21.4629 17.7255 21.013 17.6967 20.562C17.6853 20.4012 17.74 20.3392 17.8762 20.2729C18.3808 20.0273 18.7865 19.6169 19.0264 19.1095C19.2662 18.6021 19.3258 18.0281 19.1953 17.4823C19.1619 17.343 19.2084 17.271 19.2997 17.1828C20.3668 16.1282 20.2911 14.4173 19.1202 13.4812C18.9167 13.3189 18.8452 13.1853 18.8635 12.9155C18.9595 11.4978 17.8225 10.2924 16.3959 10.2841C14.8268 10.2742 13.2578 10.2841 11.6882 10.2841H11.4649C12.3817 9.15127 12.1792 7.82278 11.5014 6.99312C11.1618 6.56626 10.687 6.26761 10.1552 6.14625C9.35475 5.95996 8.62527 6.13269 7.93859 6.63622V6.39148C7.93859 5.33692 7.94693 4.28237 7.93284 3.22782C7.92971 2.95857 7.86709 2.68777 7.81022 2.4227C7.78047 2.28234 7.70586 2.15239 7.64429 2.00942C7.69125 2.00629 7.71682 2.00317 7.74239 2.00317C11.9098 2.00317 16.0771 2.00454 20.2441 2.00733C20.4394 2.00862 20.6331 2.04104 20.8181 2.10335C21.5606 2.35277 22.0042 3.01337 22.0042 3.84824C22.0042 9.41409 22.0042 14.9799 22.0042 20.5458C22.0042 20.5849 22.0042 20.6241 22.0042 20.6632C21.9985 20.945 21.9055 21.2181 21.7382 21.4449C21.5708 21.6717 21.3372 21.8411 21.0696 21.9296C21.0018 21.9499 20.9392 21.976 20.8708 22Z" fill="#A0A0A0"/>
<path d="M6.76446 7.24044C6.33346 7.24044 5.91341 7.28688 5.50797 7.22948C4.88755 7.14182 4.43307 6.57934 4.42628 5.9537C4.41585 5.01099 4.41585 4.0681 4.42628 3.12504C4.43411 2.50618 4.95695 2.00891 5.57424 2.00108C6.20405 1.99273 6.75194 2.4806 6.75872 3.10623C6.77489 4.4843 6.76446 5.86289 6.76446 7.24044Z" fill="#A0A0A0"/>
</g>
<defs>
<clipPath id="clip0_1530_2548">
<rect width="20.0037" height="20" fill="white" transform="translate(2 2)"/>
</clipPath>
</defs>
</svg>
