<svg width="52" height="52" viewBox="0 0 52 52" fill="none" xmlns="http://www.w3.org/2000/svg">
<rect width="52" height="52" rx="12" fill="#FFB74D" fill-opacity="0.1"/>
<g clip-path="url(#clip0_3_666)">
<path d="M27.436 12.4996C27.9454 12.5827 28.4625 12.6363 28.9634 12.7546C32.4775 13.586 34.856 15.7249 36.1854 19.0629C36.2523 19.2339 36.3336 19.3989 36.4285 19.5561C36.6854 19.9684 36.8211 20.4448 36.8202 20.9306C36.8202 22.0109 36.8202 23.0911 36.8202 24.1714C36.8167 25.6333 35.8501 26.6788 34.3938 26.7605C33.7746 26.795 33.1518 26.7661 32.5198 26.7661C34.2565 23.9762 34.2508 21.2089 32.5255 18.4119H34.0824C32.9982 16.1892 30.4091 14.2602 27.2345 14.0834C23.342 13.8664 20.4887 16.0927 19.3185 18.4007H20.8917C19.1516 21.1962 19.1537 23.9664 20.8917 26.7725C20.7938 26.7725 20.7015 26.7725 20.6099 26.7725C20.0463 26.7682 19.4827 26.7915 18.924 26.752C17.6559 26.6626 16.6864 25.7608 16.6209 24.4976C16.554 23.1928 16.6061 21.881 16.6266 20.5734C16.6398 20.3451 16.6982 20.1216 16.7985 19.9161C17.107 19.2299 17.4093 18.538 17.7658 17.873C19.3932 14.8485 21.9224 13.1027 25.3161 12.5933L25.9629 12.4961L27.436 12.4996Z" fill="#FFB74D"/>
<path d="M26.1149 28.141C25.533 27.9508 24.8996 27.8183 24.3346 27.545C22.2048 26.5129 21.1459 24.7769 21.1734 22.4161C21.1988 20.2631 22.6163 18.2468 24.6087 17.4647C28.809 15.8169 32.5394 19.2852 32.2259 23.072C32.1985 23.4102 32.0942 23.742 32.0385 24.0795C32.0047 24.2824 31.9054 24.3423 31.7004 24.3408C30.6365 24.3303 29.5734 24.3324 28.5103 24.3373C28.0171 24.3373 27.7297 24.5487 27.6395 24.9404C27.5282 25.4251 27.8156 25.864 28.3116 25.9035C28.7484 25.9387 29.1894 25.9218 29.6284 25.9239C30.1018 25.9239 30.5745 25.9239 31.1079 25.9239C30.6568 26.5387 30.0805 27.0509 29.417 27.4266C28.7632 27.7986 28.0552 28.0036 27.3168 28.1171C27.7987 28.1812 28.2841 28.2256 28.7625 28.3108C31.5644 28.8117 33.8308 30.213 35.602 32.4252C36.6834 33.7616 37.4441 35.3282 37.8254 37.0046C38.1249 38.3164 37.2435 39.4591 35.893 39.4866C34.8362 39.5084 33.7836 39.4951 32.7297 39.4958C27.6853 39.4958 22.6409 39.4969 17.5966 39.4993C16.5511 39.4993 15.7571 38.8885 15.5401 37.9226C15.4408 37.4787 15.5267 37.049 15.6542 36.6249C16.8759 32.5689 19.465 29.8375 23.53 28.5792C24.2853 28.3453 25.0962 28.2932 25.8817 28.1565C25.9592 28.1439 26.0388 28.1417 26.117 28.1312C26.1325 28.1319 26.1389 28.11 26.1149 28.141Z" fill="#FFB74D"/>
</g>
<defs>
<clipPath id="clip0_3_666">
<rect width="22.3875" height="27" fill="white" transform="translate(15.5 12.5)"/>
</clipPath>
</defs>
</svg>
