<svg width="24" height="24" viewBox="0 0 24 24" fill="none" xmlns="http://www.w3.org/2000/svg">
<path d="M9 14H10V7H9C8.44781 7 8 7.44781 8 8V13C8 13.5522 8.44781 14 9 14ZM20 13V8C20 7.44781 19.5522 7 19 7H18V14H19C19.5522 14 20 13.5522 20 13ZM21.5 16H6V4.5C6 4.22375 5.77625 4 5.5 4H2.5C2.22375 4 2 4.22375 2 4.5V5.5C2 5.77625 2.22375 6 2.5 6H4V17.5C4 17.7763 4.22375 18 4.5 18H7.09188C7.03594 18.1572 7 18.3238 7 18.5C7 19.3284 7.67156 20 8.5 20C9.32844 20 10 19.3284 10 18.5C10 18.3238 9.96406 18.1572 9.90812 18H16.0919C16.0359 18.1572 16 18.3238 16 18.5C16 19.3284 16.6716 20 17.5 20C18.3284 20 19 19.3284 19 18.5C19 18.3238 18.9641 18.1572 18.9081 18H21.5C21.7763 18 22 17.7763 22 17.5V16.5C22 16.2237 21.7763 16 21.5 16ZM17 7V5.5C17 4.67156 16.3284 4 15.5 4H12.5C11.6716 4 11 4.67156 11 5.5V14H17V7ZM15.5 7H12.5V5.5H15.5V7Z" fill="#A0A0A0"/>
</svg>
