<svg width="24" height="24" viewBox="0 0 24 24" fill="none" xmlns="http://www.w3.org/2000/svg">
<g clip-path="url(#clip0_290_403)">
<path d="M20 12.0246C20 14.3767 20 16.7287 20 19.0808C20 20.4643 19.0919 21.3775 17.7141 21.3775H6.49404C5.12523 21.3775 4.20886 20.4656 4.20886 19.1038C4.20886 14.3681 4.20886 9.63228 4.20886 4.8962C4.20886 3.54465 5.12523 2.62445 6.47103 2.62381C10.2264 2.62381 13.9822 2.62381 17.7384 2.62381C19.0849 2.62381 19.9987 3.54338 19.9993 4.89748C20.0006 7.2734 20.0008 9.64911 20 12.0246ZM11.4088 6.22859C11.402 6.41782 11.4697 6.60219 11.5973 6.7421C11.7249 6.88201 11.9022 6.96631 12.0913 6.97689C12.185 6.98109 12.2787 6.96676 12.3668 6.93472C12.455 6.90267 12.536 6.85354 12.6052 6.79014C12.6743 6.72674 12.7303 6.65031 12.7699 6.56525C12.8094 6.48018 12.8318 6.38814 12.8358 6.2944C12.8452 6.10501 12.7789 5.91965 12.6517 5.77908C12.5244 5.63852 12.3465 5.55425 12.1571 5.54482C11.9677 5.53818 11.7833 5.60607 11.6434 5.73391C11.5035 5.86175 11.4193 6.03935 11.4088 6.22859ZM16.4342 5.54418C16.2447 5.54566 16.0633 5.62113 15.9288 5.7545C15.7942 5.88787 15.7171 6.06855 15.714 6.25798C15.7153 6.44731 15.7906 6.62861 15.9239 6.76308C16.0572 6.89756 16.2378 6.97453 16.4271 6.97753C16.521 6.97787 16.614 6.95969 16.7008 6.92405C16.7876 6.88841 16.8665 6.836 16.9331 6.76982C16.9996 6.70364 17.0524 6.62499 17.0885 6.53837C17.1247 6.45175 17.1433 6.35886 17.1435 6.26501C17.1442 6.17111 17.1265 6.07797 17.0913 5.99092C17.056 5.90388 17.004 5.82462 16.9381 5.75768C16.8723 5.69075 16.7939 5.63744 16.7074 5.60081C16.6209 5.56418 16.5281 5.54494 16.4342 5.54418ZM12.8364 11.9984C12.8368 11.9045 12.8187 11.8115 12.7831 11.7247C12.7475 11.6378 12.6951 11.5588 12.6289 11.4923C12.5627 11.4257 12.484 11.3729 12.3974 11.3368C12.3107 11.3007 12.2178 11.2821 12.1239 11.282C11.935 11.2839 11.7544 11.3595 11.6205 11.4927C11.4866 11.626 11.4102 11.8063 11.4075 11.9952C11.4094 12.185 11.4853 12.3667 11.6191 12.5013C11.7529 12.636 11.9341 12.713 12.1239 12.716C12.3132 12.7152 12.4944 12.6394 12.6279 12.5053C12.7615 12.3711 12.8364 12.1896 12.8364 12.0003V11.9984ZM17.1435 11.9984C17.1442 11.9046 17.1263 11.8116 17.091 11.7247C17.0556 11.6377 17.0035 11.5587 16.9376 11.4919C16.8716 11.4252 16.7931 11.3722 16.7066 11.3358C16.6202 11.2995 16.5273 11.2805 16.4335 11.2801C16.2438 11.2813 16.0621 11.3569 15.9276 11.4906C15.793 11.6243 15.7163 11.8055 15.714 11.9952C15.7158 12.1847 15.7914 12.3661 15.9248 12.5007C16.0583 12.6353 16.2389 12.7125 16.4284 12.716C16.6181 12.7157 16.7999 12.6402 16.9339 12.506C17.0679 12.3718 17.1433 12.19 17.1435 12.0003V11.9984ZM12.8364 17.7395C12.8368 17.6456 12.8187 17.5526 12.7831 17.4657C12.7475 17.3789 12.6951 17.2999 12.6289 17.2333C12.5627 17.1668 12.484 17.1139 12.3974 17.0779C12.3107 17.0418 12.2178 17.0232 12.1239 17.0231C11.9345 17.0243 11.7531 17.0997 11.6186 17.2331C11.4842 17.3666 11.4075 17.5475 11.405 17.7369C11.4068 17.9271 11.4831 18.109 11.6175 18.2437C11.7519 18.3783 11.9337 18.4549 12.1239 18.4571C12.3132 18.4562 12.4944 18.3805 12.6279 18.2463C12.7615 18.1122 12.8364 17.9306 12.8364 17.7414V17.7395ZM8.53702 6.25862C8.53568 6.06915 8.45987 5.88782 8.32596 5.75378C8.19204 5.61975 8.01077 5.54377 7.82131 5.54227C7.63191 5.54412 7.45088 5.62057 7.31749 5.75503C7.1841 5.8895 7.10911 6.07114 7.10879 6.26054C7.10912 6.44997 7.18448 6.63156 7.31837 6.76557C7.45227 6.89958 7.63378 6.97511 7.82322 6.97561C8.01234 6.97427 8.19331 6.89846 8.32692 6.76461C8.46053 6.63076 8.53602 6.44966 8.53702 6.26054V6.25862ZM9.96909 8.41279C9.77969 8.41581 9.59905 8.49313 9.46613 8.62809C9.3332 8.76305 9.25863 8.94483 9.25849 9.13426C9.26051 9.32365 9.33712 9.50461 9.4717 9.63788C9.60629 9.77115 9.78799 9.84598 9.9774 9.84614C10.1669 9.84462 10.3481 9.76791 10.4811 9.63287C10.6141 9.49782 10.6881 9.31549 10.6867 9.12595C10.6844 8.93712 10.6077 8.75681 10.4734 8.62406C10.3391 8.4913 10.1579 8.41678 9.96909 8.41663V8.41279ZM14.9932 9.14065C14.9957 8.95113 14.9233 8.76827 14.7916 8.63193C14.6599 8.49559 14.4797 8.41682 14.2902 8.41279C14.1008 8.41192 13.9187 8.48553 13.7831 8.61776C13.6476 8.74999 13.5694 8.93022 13.5656 9.11956C13.5635 9.30882 13.6361 9.49125 13.7677 9.62728C13.8993 9.7633 14.0793 9.84195 14.2685 9.84614C14.4578 9.8487 14.6404 9.77607 14.7763 9.64418C14.9121 9.51228 14.9901 9.33189 14.9932 9.14257V9.14065ZM8.53894 11.999C8.53911 11.8095 8.46439 11.6276 8.33105 11.493C8.19771 11.3583 8.01655 11.2818 7.82706 11.2801C7.63768 11.2801 7.45602 11.3552 7.32187 11.4888C7.18772 11.6225 7.11202 11.8039 7.11134 11.9933C7.11099 12.1828 7.18542 12.3648 7.31847 12.4998C7.45152 12.6347 7.63244 12.7118 7.82195 12.7141C8.01075 12.7125 8.19138 12.6368 8.32507 12.5035C8.45876 12.3702 8.53485 12.1898 8.53702 12.001L8.53894 11.999ZM9.96781 15.5846C10.1574 15.5852 10.3395 15.5108 10.4745 15.3777C10.6095 15.2446 10.6865 15.0636 10.6886 14.874C10.6907 14.6851 10.6179 14.503 10.4863 14.3675C10.3546 14.232 10.1746 14.154 9.98571 14.1507C9.79613 14.1496 9.61383 14.2235 9.47847 14.3562C9.34311 14.489 9.26565 14.6698 9.26296 14.8593C9.26188 15.0484 9.33484 15.2303 9.46621 15.3662C9.59759 15.5021 9.77694 15.5812 9.96589 15.5866L9.96781 15.5846ZM14.9951 14.8555C14.992 14.6664 14.9141 14.4861 14.7784 14.3543C14.6427 14.2226 14.4602 14.15 14.271 14.1526C14.0818 14.1566 13.9017 14.2352 13.7701 14.3713C13.6385 14.5073 13.5659 14.6898 13.5681 14.8792C13.5723 15.0685 13.6506 15.2486 13.7863 15.3808C13.9219 15.513 14.104 15.5866 14.2934 15.5859C14.4823 15.5807 14.6617 15.5014 14.7926 15.3651C14.9235 15.2288 14.9956 15.0464 14.9932 14.8574L14.9951 14.8555ZM8.54086 17.7484C8.54326 17.5591 8.47072 17.3764 8.33905 17.2403C8.20738 17.1042 8.02725 17.0257 7.83792 17.0218C7.64875 17.0194 7.46633 17.092 7.33054 17.2237C7.19474 17.3555 7.11662 17.5356 7.11326 17.7248C7.11101 17.9143 7.18353 18.0971 7.3151 18.2336C7.44666 18.37 7.62669 18.4492 7.81619 18.4539C8.00436 18.4538 8.18505 18.3802 8.31972 18.2487C8.45438 18.1173 8.53235 17.9384 8.53702 17.7503L8.54086 17.7484ZM17.1544 17.7484C17.1559 17.5589 17.0825 17.3766 16.95 17.2411C16.8176 17.1055 16.637 17.0279 16.4476 17.025C16.2582 17.0233 16.0758 17.0968 15.9405 17.2295C15.8053 17.3621 15.7281 17.543 15.7261 17.7324C15.7246 17.9215 15.7974 18.1036 15.9289 18.2394C16.0604 18.3752 16.2401 18.4538 16.4291 18.4584C16.6186 18.4581 16.8005 18.3832 16.9355 18.2501C17.0704 18.1169 17.1477 17.9361 17.1505 17.7465L17.1544 17.7484Z" fill="#A0A0A0"/>
</g>
<defs>
<clipPath id="clip0_290_403">
<rect width="15.7917" height="18.7549" fill="white" transform="translate(4.20825 2.62254)"/>
</clipPath>
</defs>
</svg>
