<svg width="52" height="52" viewBox="0 0 52 52" fill="none" xmlns="http://www.w3.org/2000/svg">
<rect opacity="0.1" width="52" height="52" rx="12" fill="#AF87CE"/>
<path d="M32.9688 18.125H30.625V16.1719C30.625 15.5247 30.1003 15 29.4531 15H16.1719C15.5247 15 15 15.5247 15 16.1719V35.7031C15 36.3503 15.5247 36.875 16.1719 36.875H29.4531C30.1003 36.875 30.625 36.3503 30.625 35.7031V33.647L34.5608 31.8903C35.9666 31.2628 36.875 29.8627 36.875 28.3232V22.0312C36.875 19.8773 35.1227 18.125 32.9688 18.125ZM33.75 28.3232C33.7499 28.4741 33.7061 28.6218 33.624 28.7484C33.5419 28.8749 33.4249 28.9751 33.2872 29.0367L30.625 30.2249V21.25H32.9688C33.3995 21.25 33.75 21.6005 33.75 22.0312V28.3232ZM25.1562 32.1875C24.7248 32.1875 24.375 31.8377 24.375 31.4062V20.4688C24.375 20.0373 24.7248 19.6875 25.1562 19.6875C25.5877 19.6875 25.9375 20.0373 25.9375 20.4688V31.4062C25.9375 31.8377 25.5877 32.1875 25.1562 32.1875ZM20.4688 32.1875C20.0373 32.1875 19.6875 31.8377 19.6875 31.4062V20.4688C19.6875 20.0373 20.0373 19.6875 20.4688 19.6875C20.9002 19.6875 21.25 20.0373 21.25 20.4688V31.4062C21.25 31.8377 20.9002 32.1875 20.4688 32.1875Z" fill="#AF87CE"/>
</svg>
