<svg width="24" height="24" viewBox="0 0 24 24" fill="none" xmlns="http://www.w3.org/2000/svg">
<path d="M6.09063 13.7304C4.82188 12.2218 2 8.56543 2 6.51168C2 4.01991 4.08931 2 6.66667 2C9.24306 2 11.3333 4.01991 11.3333 6.51168C11.3333 8.56543 8.48958 12.2218 7.24271 13.7304C6.94375 14.0899 6.38958 14.0899 6.09063 13.7304ZM6.66667 8.01557C7.52465 8.01557 8.22222 7.34117 8.22222 6.51168C8.22222 5.68219 7.52465 5.00778 6.66667 5.00778C5.80868 5.00778 5.11111 5.68219 5.11111 6.51168C5.11111 7.34117 5.80868 8.01557 6.66667 8.01557Z" fill="#A0A0A0"/>
<path d="M16.7607 21.7304C15.4919 20.2218 12.67 16.5654 12.67 14.5117C12.67 12.0199 14.7593 10 17.3367 10C19.9131 10 22.0034 12.0199 22.0034 14.5117C22.0034 16.5654 19.1596 20.2218 17.9128 21.7304C17.6138 22.0899 17.0596 22.0899 16.7607 21.7304ZM17.3367 16.0156C18.1947 16.0156 18.8923 15.3412 18.8923 14.5117C18.8923 13.6822 18.1947 13.0078 17.3367 13.0078C16.4787 13.0078 15.7812 13.6822 15.7812 14.5117C15.7812 15.3412 16.4787 16.0156 17.3367 16.0156Z" fill="#A0A0A0"/>
</svg>
