<svg width="44" height="44" viewBox="0 0 44 44" fill="none" xmlns="http://www.w3.org/2000/svg">
<rect width="44" height="44" rx="8" fill="#3A3A3C"/>
<path d="M16.8571 13.25C16.8571 12.5598 17.4317 12 18.1429 12C18.854 12 19.4286 12.5598 19.4286 13.25V14.5H24.5714V13.25C24.5714 12.5598 25.146 12 25.8571 12C26.5683 12 27.1429 12.5598 27.1429 13.25V14.5H29.0714C30.1362 14.5 31 15.3395 31 16.375V18.25H13V16.375C13 15.3395 13.8634 14.5 14.9286 14.5H16.8571V13.25ZM31 30.125C31 31.1602 30.1362 32 29.0714 32H14.9286C13.8634 32 13 31.1602 13 30.125V19.5H31V30.125Z" fill="#A0A0A0"/>
</svg>
