<svg width="52" height="52" viewBox="0 0 52 52" fill="none" xmlns="http://www.w3.org/2000/svg">
<rect opacity="0.1" width="52" height="52" rx="12" fill="#E12E57"/>
<path d="M27.1956 18.2928V16.2841H28.1607C28.963 16.2841 29.6084 15.6387 29.6084 14.8364C29.6084 14.0341 28.963 13.3887 28.1607 13.3887H23.2807C22.5328 13.3887 21.8873 14.0371 21.8873 14.7821C21.8873 15.5271 22.5328 16.2841 23.2807 16.2841H24.3002V18.294C17.5201 19.0166 12.2359 24.7532 12.2359 31.7263H39.2598C39.2598 24.7532 33.9757 19.0166 27.1956 18.2928ZM39.7424 33.6566H11.7534C10.9541 33.6566 10.3057 34.302 10.3057 35.05C10.3057 35.9066 10.9541 36.552 11.6991 36.552H39.6881C40.4874 36.552 41.1358 35.9035 41.1358 35.1586C41.1901 34.302 40.5447 33.6566 39.7424 33.6566Z" fill="#E12E57"/>
</svg>
