<svg width="24" height="24" viewBox="0 0 24 24" fill="none" xmlns="http://www.w3.org/2000/svg">
<rect x="2" y="5" width="20" height="14" rx="4" fill="#A0A0A0"/>
<path d="M8.14815 12C8.14815 13.1445 7.21963 14.0741 6.07407 14.0741C4.92852 14.0741 4 13.1445 4 12C4 10.8556 4.92852 9.92593 6.07407 9.92593C7.21963 9.92593 8.14815 10.8556 8.14815 12ZM14.0741 12C14.0741 13.1445 13.1444 14.0741 12 14.0741C10.8556 14.0741 9.92593 13.1445 9.92593 12C9.92593 10.8556 10.8556 9.92593 12 9.92593C13.1444 9.92593 14.0741 10.8556 14.0741 12ZM15.8519 12C15.8519 10.8556 16.7815 9.92593 17.9259 9.92593C19.0704 9.92593 20 10.8556 20 12C20 13.1445 19.0704 14.0741 17.9259 14.0741C16.7815 14.0741 15.8519 13.1445 15.8519 12Z" fill="white"/>
</svg>
