<svg width="24" height="24" viewBox="0 0 24 24" fill="none" xmlns="http://www.w3.org/2000/svg">
<path d="M21.3939 7.65285C21.783 7.1709 22 6.56617 22 5.93938C22 4.43555 20.7766 3.21211 19.2727 3.21211C18.6459 3.21211 18.0412 3.42914 17.5592 3.81817H6.44078C5.95887 3.42914 5.35414 3.21211 4.72727 3.21211C3.2234 3.21211 2 4.43559 2 5.93938C2 6.56617 2.21703 7.1709 2.60605 7.65282V16.347C2.21703 16.8291 2 17.4338 2 18.0606C2 19.5644 3.2234 20.7879 4.72727 20.7879C5.35406 20.7879 5.95879 20.5708 6.44078 20.1818H17.5591C18.0411 20.5708 18.6459 20.7879 19.2727 20.7879C20.7765 20.7879 21.9999 19.5643 21.9999 18.0606C21.9999 17.4338 21.7829 16.8291 21.3939 16.3471V7.65285Z" fill="#A0A0A0"/>
</svg>
