<svg width="192" height="180" viewBox="0 0 192 180" fill="none" xmlns="http://www.w3.org/2000/svg">
<path d="M22.1116 133.039C25.7407 133.039 28.6827 130.092 28.6827 126.457C28.6827 122.823 25.7407 119.876 22.1116 119.876C18.4824 119.876 15.5404 122.823 15.5404 126.457C15.5404 130.092 18.4824 133.039 22.1116 133.039Z" fill="#E0E0E0"/>
<path d="M39.5773 131.002C42.1435 128.432 42.1435 124.265 39.5773 121.695C37.0111 119.125 32.8505 119.125 30.2843 121.695C27.7181 124.265 27.7181 128.432 30.2843 131.002C32.8505 133.573 37.0111 133.573 39.5773 131.002Z" fill="#EBEBEB"/>
<path d="M13.9586 130.998C16.5283 128.431 16.5283 124.27 13.9586 121.703C11.3889 119.136 7.22258 119.136 4.65287 121.703C2.08316 124.27 2.08316 128.431 4.65287 130.998C7.22258 133.565 11.3889 133.565 13.9586 130.998Z" fill="#EBEBEB"/>
<path d="M0.560966 127.765H43.4817C43.4817 127.765 43.0524 145.489 31.5197 147.655L31.3351 151.408H12.0208V147.578C12.0208 147.578 0.560966 144.655 0.560966 127.765Z" fill="#E0E0E0"/>
<path d="M31.5152 147.656C31.5152 147.72 27.133 147.768 21.7293 147.768C16.3255 147.768 11.9433 147.72 11.9433 147.656C11.9433 147.591 16.3255 147.544 21.7293 147.544C27.133 147.544 31.5152 147.596 31.5152 147.656Z" fill="white"/>
<path d="M41.816 136.895C41.816 136.895 41.7216 136.895 41.5414 136.929L40.7301 136.998C39.6897 137.1 38.64 137.049 37.6141 136.848C36.8698 136.697 36.1588 136.413 35.5153 136.009C34.7446 135.523 34.1282 134.827 33.7384 134.002C33.5325 133.535 33.43 133.029 33.4379 132.519C33.4562 131.97 33.6453 131.441 33.9787 131.006C34.1571 130.777 34.3864 130.593 34.6483 130.468C34.919 130.354 35.2153 130.314 35.5067 130.352C35.8093 130.412 36.0951 130.537 36.3436 130.72C36.5922 130.903 36.7974 131.138 36.9445 131.41C37.2411 131.984 37.3292 132.643 37.1935 133.275C37.061 133.923 36.8108 134.541 36.4552 135.098C35.6973 136.283 34.5749 137.188 33.2577 137.677C31.8466 138.201 30.2931 138.192 28.8883 137.652C28.1561 137.371 27.4812 136.959 26.8968 136.435C26.2722 135.912 25.8043 135.226 25.5448 134.453C25.4247 134.045 25.4247 133.611 25.5448 133.202C25.6655 132.777 25.9494 132.417 26.3346 132.201C26.7375 132.022 27.1875 131.978 27.6174 132.075C28.0474 132.173 28.4344 132.407 28.7209 132.742C29.2774 133.418 29.625 134.241 29.721 135.111C29.8541 135.981 29.8279 136.868 29.6437 137.729C29.2796 139.513 28.2956 141.109 26.8668 142.234C26.1338 142.797 25.2963 143.207 24.4031 143.442C23.4959 143.669 22.5554 143.732 21.6262 143.627C19.7604 143.44 18.0363 142.547 16.8062 141.129C16.2045 140.434 15.7973 139.592 15.6258 138.688C15.4617 137.782 15.6589 136.848 16.1752 136.087C16.4142 135.702 16.7476 135.385 17.1435 135.166C17.5395 134.947 17.9848 134.834 18.4371 134.836C18.8822 134.861 19.3127 135.004 19.6839 135.251C20.0552 135.498 20.3538 135.84 20.5488 136.242C20.7296 136.648 20.76 137.105 20.6347 137.531C20.5079 137.947 20.274 138.322 19.9565 138.619C19.3396 139.178 18.5908 139.572 17.7805 139.762C16.2938 140.17 14.7271 140.187 13.2322 139.81C11.7373 139.434 10.3648 138.677 9.24783 137.613C8.73603 137.112 8.34041 136.504 8.08897 135.833C7.84818 135.179 7.80782 134.468 7.97309 133.791C8.11964 133.131 8.49341 132.544 9.02894 132.132C9.55673 131.757 10.2094 131.603 10.8488 131.702C11.4613 131.778 12.0217 132.086 12.4154 132.562C12.782 133.015 12.9861 133.578 12.9948 134.161C12.997 134.711 12.8207 135.246 12.4926 135.687C12.1876 136.094 11.8036 136.434 11.3638 136.689C10.5788 137.135 9.73082 137.46 8.84867 137.652C8.11575 137.827 7.37137 137.951 6.62109 138.021C5.5822 138.127 4.53535 138.127 3.49646 138.021C2.78827 137.94 2.41915 137.858 2.41915 137.858C2.41915 137.858 2.51358 137.858 2.69814 137.888C2.88269 137.918 3.1488 137.944 3.50075 137.974C4.53633 138.066 5.57829 138.059 6.6125 137.953C7.35714 137.873 8.09561 137.744 8.82292 137.566C9.69217 137.376 10.5273 137.054 11.2994 136.611C11.7243 136.364 12.0951 136.034 12.3896 135.64C12.6976 135.222 12.8618 134.715 12.8575 134.195C12.8453 133.645 12.6505 133.114 12.3038 132.686C11.932 132.242 11.4061 131.955 10.8316 131.883C10.2253 131.797 9.60975 131.952 9.11478 132.312C8.61595 132.704 8.26851 133.257 8.13189 133.877C7.97521 134.522 8.01559 135.199 8.24778 135.82C8.49218 136.468 8.87444 137.055 9.36801 137.54C10.4664 138.573 11.8115 139.306 13.2742 139.668C14.7369 140.03 16.268 140.009 17.7204 139.608C18.4955 139.424 19.2116 139.047 19.802 138.511C20.0923 138.24 20.3068 137.898 20.4244 137.518C20.5354 137.137 20.5065 136.728 20.3428 136.366C20.1672 135.998 19.896 135.685 19.5578 135.458C19.2195 135.231 18.8265 135.099 18.42 135.077C18.0084 135.06 17.6011 135.165 17.2482 135.378C16.8864 135.592 16.5782 135.886 16.3469 136.237C15.8635 136.953 15.6801 137.83 15.8362 138.679C16.0035 139.543 16.3942 140.348 16.9693 141.013C18.163 142.386 19.8346 143.252 21.6433 143.433C22.5454 143.533 23.458 143.472 24.3387 143.253C25.2034 143.023 26.0143 142.624 26.7251 142.079C28.1277 140.975 29.0886 139.404 29.4334 137.652C29.6132 136.816 29.6394 135.956 29.5107 135.111C29.419 134.284 29.0928 133.501 28.5707 132.854C28.315 132.55 27.9679 132.336 27.5811 132.246C27.1944 132.155 26.7887 132.192 26.4247 132.351C26.092 132.536 25.8454 132.845 25.738 133.211C25.6285 133.581 25.6285 133.975 25.738 134.346C25.9886 135.081 26.4336 135.735 27.0256 136.237C27.594 136.742 28.2481 137.141 28.957 137.415C30.3188 137.953 31.8297 137.974 33.2062 137.475C34.4876 136.999 35.5807 136.119 36.3222 134.969C36.6692 134.433 36.9137 133.837 37.0433 133.211C37.1734 132.617 37.0946 131.995 36.8201 131.453C36.6858 131.201 36.4977 130.982 36.2691 130.812C36.0406 130.642 35.7773 130.525 35.4981 130.468C35.2294 130.427 34.9545 130.461 34.7041 130.567C34.4639 130.682 34.2526 130.849 34.086 131.057C33.767 131.468 33.5853 131.969 33.5667 132.489C33.5549 132.979 33.6501 133.466 33.8457 133.916C34.2201 134.722 34.8155 135.405 35.5625 135.885C36.1906 136.296 36.889 136.587 37.6227 136.745C38.6401 136.954 39.6818 137.019 40.7173 136.938L41.5242 136.891C41.7216 136.895 41.816 136.895 41.816 136.895Z" fill="white"/>
<path d="M170.922 51.8994C170.754 52.4626 167.896 56.9763 163.771 58.511C159.647 60.0457 156.582 61.7437 157.728 63.7641C158.874 65.7846 163.939 64.6841 163.939 64.6841C163.939 64.6841 153.659 75.861 163.338 82.2705C175.137 90.0729 187.481 62.1564 187.481 62.1564L170.922 51.8994Z" fill="#EBEBEB"/>
<path d="M185.523 65.9869C185.493 66.0384 181.605 63.7171 176.836 60.8025C172.068 57.8879 168.23 55.4763 168.252 55.4247C168.273 55.3731 172.175 57.6944 176.939 60.609C181.703 63.5236 185.558 65.9353 185.523 65.9869Z" fill="#E0E0E0"/>
<path d="M183.699 69.3354C183.665 69.3869 179.463 66.9151 174.312 63.82C169.162 60.7248 165.011 58.1627 165.042 58.1111C165.072 58.0596 169.278 60.5271 174.428 63.6265C179.579 66.726 183.729 69.301 183.699 69.3354Z" fill="#E0E0E0"/>
<path d="M181.493 72.508C181.463 72.5596 176.742 69.7782 170.956 66.2962C165.17 62.8141 160.5 59.9468 160.53 59.8952C160.561 59.8437 165.282 62.6207 171.072 66.1027C176.862 69.5848 181.523 72.4521 181.493 72.508Z" fill="#E0E0E0"/>
<path d="M178.742 76.4321C178.707 76.4837 175.051 74.2483 170.587 71.4412C166.123 68.6341 162.505 66.317 162.539 66.2826C162.574 66.2482 166.226 68.4664 170.694 71.2735C175.162 74.0807 178.772 76.3805 178.742 76.4321Z" fill="#E0E0E0"/>
<path d="M175.506 80.2202C175.471 80.2718 172.072 78.0708 167.9 75.3067C163.728 72.5426 160.385 70.2556 160.44 70.204C160.496 70.1524 163.874 72.3534 168.046 75.1219C172.218 77.8903 175.54 80.1687 175.506 80.2202Z" fill="#E0E0E0"/>
<path d="M171.377 82.851C171.197 82.7881 171.025 82.7074 170.861 82.6103C170.535 82.4383 170.072 82.1804 169.501 81.8623C168.359 81.2217 166.805 80.2975 165.123 79.2185C163.441 78.1395 161.951 77.1078 160.891 76.3383C160.363 75.9514 159.938 75.6333 159.651 75.4097C159.494 75.3027 159.35 75.1787 159.221 75.04C159.392 75.1227 159.555 75.222 159.706 75.3367L160.994 76.1964C162.076 76.9315 163.569 77.9417 165.256 79.0207C166.943 80.0997 168.475 81.0412 169.595 81.7204L170.917 82.5243C171.08 82.6185 171.234 82.7279 171.377 82.851Z" fill="#E0E0E0"/>
<path d="M161.698 64.942C160.881 64.7322 160.109 64.3769 159.419 63.8931C158.689 63.4721 158.042 62.9215 157.509 62.2681C157.552 62.2165 158.367 62.9731 159.539 63.7039C160.711 64.4347 161.728 64.8775 161.698 64.942Z" fill="#E0E0E0"/>
<path d="M186.699 61.5635C186.663 61.6518 186.614 61.7343 186.553 61.8085L186.094 62.4748C185.695 63.0552 185.103 63.8848 184.377 64.8994C182.897 66.937 180.806 69.7183 178.42 72.7275C176.034 75.7367 173.797 78.4062 172.154 80.3149C171.334 81.2692 170.66 82.0344 170.188 82.5546C169.965 82.7996 169.784 82.9845 169.643 83.1521C169.583 83.2263 169.515 83.294 169.441 83.3542C169.489 83.2725 169.545 83.1961 169.608 83.1263L170.123 82.4987L172.029 80.2203C173.643 78.2902 175.853 75.6034 178.24 72.5985C180.626 69.5937 182.733 66.8252 184.249 64.8134L186.043 62.4318L186.532 61.7913C186.582 61.7111 186.638 61.6349 186.699 61.5635Z" fill="#E0E0E0"/>
<path d="M183.356 59.1858C183.403 59.2244 179.304 64.5808 174.201 71.1494C169.098 77.718 164.921 83.0141 164.87 82.9754C164.818 82.9367 168.922 77.5847 174.025 71.0118C179.128 64.4389 183.309 59.1471 183.356 59.1858Z" fill="#E0E0E0"/>
<path d="M178.69 56.5381C178.654 56.6307 178.609 56.7199 178.557 56.8046L178.128 57.544C177.759 58.1845 177.201 59.1002 176.484 60.2093C175.051 62.4318 172.922 65.4022 170.411 68.5619C167.9 71.7215 165.526 74.4942 163.814 76.5061L161.775 78.8747L161.209 79.5153C161.146 79.5914 161.077 79.6619 161.003 79.7259C161.054 79.6418 161.112 79.5613 161.174 79.4852L161.707 78.8188L163.694 76.4029C165.376 74.3653 167.728 71.5753 170.235 68.42C172.741 65.2647 174.887 62.3157 176.351 60.119C177.085 59.0228 177.66 58.1243 178.068 57.4967L178.523 56.7788C178.569 56.6925 178.626 56.6117 178.69 56.5381Z" fill="#E0E0E0"/>
<path d="M174.862 54.3411C174.909 54.3798 171.428 59.0096 167.059 64.684C162.689 70.3584 159.153 74.9281 159.08 74.8894C159.007 74.8507 162.514 70.2209 166.883 64.5422C171.252 58.8634 174.81 54.3024 174.862 54.3411Z" fill="#E0E0E0"/>
<path d="M171.982 52.4629C171.875 52.6786 171.751 52.8856 171.612 53.0819C171.492 53.2754 171.333 53.5118 171.14 53.7783C170.947 54.0449 170.733 54.3544 170.466 54.6725C169.861 55.4268 169.212 56.1445 168.522 56.8219C166.827 58.4959 164.898 59.9149 162.796 61.0347C161.94 61.4897 161.057 61.8931 160.153 62.2427C159.771 62.4018 159.41 62.5092 159.101 62.6167C158.836 62.7121 158.567 62.7939 158.294 62.8617C158.065 62.9343 157.831 62.9904 157.595 63.0294C157.811 62.9267 158.037 62.8432 158.268 62.78C158.487 62.707 158.753 62.621 159.058 62.5006C159.363 62.3803 159.719 62.2642 160.092 62.0965C160.982 61.7277 161.851 61.313 162.698 60.8542C163.73 60.2829 164.726 59.6483 165.681 58.9541C166.627 58.2504 167.529 57.488 168.38 56.6714C169.073 56.0022 169.728 55.2947 170.342 54.5521C170.617 54.2426 170.836 53.9417 171.037 53.6924C171.239 53.443 171.411 53.2066 171.544 53.0174C171.673 52.82 171.819 52.6344 171.982 52.4629Z" fill="#E0E0E0"/>
<path d="M192 46.2939H137.117V52.0973H192V46.2939Z" fill="#E0E0E0"/>
<path d="M154.518 51.8994C154.35 52.4626 151.492 56.9763 147.367 58.511C143.242 60.0457 140.178 61.7437 141.324 63.7641C142.47 65.7846 147.534 64.6841 147.534 64.6841C147.534 64.6841 137.255 75.861 146.933 82.2705C158.732 90.0729 171.063 62.1564 171.063 62.1564L154.518 51.8994Z" fill="#F5F5F5"/>
<path d="M169.119 65.9869C169.089 66.0384 165.2 63.7171 160.432 60.8025C155.663 57.8879 151.826 55.4763 151.848 55.4247C151.869 55.3731 155.771 57.6944 160.535 60.609C165.299 63.5236 169.153 65.9353 169.119 65.9869Z" fill="#E0E0E0"/>
<path d="M167.308 69.3358C167.273 69.3874 163.072 66.9156 157.921 63.8204C152.771 60.7253 148.607 58.1632 148.637 58.1245C148.667 58.0858 152.874 60.5404 158.024 63.6399C163.175 66.7393 167.308 69.3014 167.308 69.3358Z" fill="#E0E0E0"/>
<path d="M165.089 72.508C165.059 72.5596 160.337 69.7782 154.552 66.2962C148.766 62.8141 144.096 59.9468 144.131 59.8952C144.165 59.8437 148.882 62.6207 154.672 66.1027C160.462 69.5848 165.119 72.4521 165.089 72.508Z" fill="#E0E0E0"/>
<path d="M162.338 76.4321C162.303 76.4837 158.646 74.2483 154.183 71.4412C149.719 68.6341 146.101 66.317 146.135 66.2826C146.169 66.2482 149.822 68.4664 154.29 71.2735C158.758 74.0807 162.368 76.3805 162.338 76.4321Z" fill="#E0E0E0"/>
<path d="M159.101 80.2202C159.067 80.2718 155.668 78.0708 151.496 75.3067C147.324 72.5426 143.98 70.2556 144.015 70.204C144.049 70.1524 147.448 72.3534 151.62 75.1219C155.792 77.8903 159.153 80.1687 159.101 80.2202Z" fill="#E0E0E0"/>
<path d="M154.972 82.851C154.793 82.7881 154.621 82.7074 154.457 82.6103C154.131 82.4383 153.667 82.1804 153.097 81.8623C151.955 81.2217 150.401 80.2975 148.719 79.2185C147.036 78.1395 145.547 77.1078 144.487 76.3383C143.959 75.9514 143.534 75.6333 143.246 75.4097C143.09 75.3027 142.946 75.1787 142.817 75.04C142.988 75.1227 143.151 75.222 143.302 75.3367L144.59 76.1964C145.671 76.9315 147.165 77.9417 148.852 79.0207C150.539 80.0997 152.071 81.0412 153.187 81.7204L154.513 82.5243C154.676 82.6185 154.83 82.7279 154.972 82.851Z" fill="#E0E0E0"/>
<path d="M145.294 64.942C144.477 64.7322 143.705 64.3769 143.015 63.8931C142.285 63.4721 141.637 62.9215 141.105 62.2681C141.147 62.2165 141.963 62.9731 143.135 63.7039C144.306 64.4347 145.319 64.8775 145.294 64.942Z" fill="#E0E0E0"/>
<path d="M170.312 61.5635C170.276 61.6518 170.226 61.7343 170.166 61.8085L169.707 62.4748C169.308 63.0552 168.715 63.8848 167.99 64.8994C166.509 66.937 164.419 69.7183 162.033 72.7275C159.646 75.7367 157.376 78.4148 155.719 80.3235C154.899 81.2778 154.225 82.043 153.753 82.5632C153.53 82.8082 153.35 82.9931 153.208 83.1607C153.148 83.2349 153.081 83.3026 153.007 83.3628C153.054 83.2811 153.11 83.2047 153.174 83.1349L153.689 82.5073L155.599 80.2203C157.213 78.2902 159.423 75.6034 161.81 72.5985C164.196 69.5937 166.303 66.8252 167.818 64.8134L169.613 62.4318L170.102 61.7913C170.165 61.7095 170.236 61.6333 170.312 61.5635Z" fill="#E0E0E0"/>
<path d="M166.952 59.1858C166.999 59.2244 162.9 64.5808 157.797 71.1494C152.693 77.718 148.517 83.0141 148.466 82.9754C148.414 82.9367 152.517 77.5847 157.621 71.0118C162.724 64.4389 166.904 59.1471 166.952 59.1858Z" fill="#E0E0E0"/>
<path d="M162.286 56.5381C162.25 56.6307 162.205 56.7199 162.153 56.8046L161.724 57.544C161.355 58.1845 160.797 59.1002 160.08 60.2093C158.646 62.4318 156.517 65.4022 154.007 68.5619C151.496 71.7215 149.122 74.4942 147.41 76.5061L145.371 78.8747L144.804 79.5153C144.742 79.5914 144.673 79.6619 144.598 79.7259C144.648 79.6405 144.705 79.5599 144.77 79.4852L145.302 78.8188L147.29 76.4029C148.972 74.3653 151.324 71.5753 153.831 68.42C156.337 65.2647 158.483 62.3157 159.947 60.119C160.681 59.0228 161.256 58.1243 161.664 57.4967C161.848 57.2001 162.003 56.9637 162.119 56.7788C162.165 56.6925 162.221 56.6117 162.286 56.5381Z" fill="#E0E0E0"/>
<path d="M158.457 54.3411C158.505 54.3798 155.024 59.0096 150.654 64.684C146.285 70.3584 142.727 74.9281 142.676 74.8894C142.624 74.8507 146.109 70.2209 150.478 64.5422C154.848 58.8634 158.406 54.3024 158.457 54.3411Z" fill="#E0E0E0"/>
<path d="M155.578 52.4629C155.471 52.6786 155.348 52.8856 155.209 53.0819C155.088 53.2754 154.93 53.5118 154.737 53.7783C154.543 54.0449 154.329 54.3544 154.063 54.6725C153.457 55.4268 152.808 56.1445 152.118 56.8219C150.423 58.4959 148.494 59.9149 146.393 61.0347C145.536 61.4889 144.653 61.8923 143.749 62.2427C143.367 62.4018 143.006 62.5092 142.697 62.6167C142.433 62.7121 142.163 62.7939 141.89 62.8617C141.661 62.9343 141.428 62.9904 141.191 63.0294C141.408 62.9267 141.633 62.8432 141.865 62.78C142.083 62.707 142.35 62.621 142.654 62.5006C142.959 62.3803 143.315 62.2642 143.689 62.0965C144.578 61.7277 145.448 61.313 146.294 60.8542C147.327 60.2927 148.325 59.6682 149.281 58.9842C150.228 58.2805 151.13 57.5181 151.981 56.7015C152.674 56.0323 153.329 55.3247 153.942 54.5822C154.217 54.2727 154.436 53.9718 154.638 53.7224C154.84 53.4731 155.007 53.2367 155.14 53.0475C155.268 52.8402 155.415 52.6445 155.578 52.4629Z" fill="#E0E0E0"/>
<path d="M166.346 17.252H162.836V20.7684H166.346V17.252Z" fill="#E0E0E0"/>
<path d="M181.029 25.4443H148.315V46.1216H181.029V25.4443Z" fill="#F5F5F5"/>
<path d="M148.315 25.4528C148.315 25.4528 153.324 20.2125 165.883 20.4232C178.441 20.6338 181.042 25.4528 181.042 25.4528H148.315Z" fill="#F5F5F5"/>
<path d="M180.905 25.7842C180.905 25.8444 173.548 25.8961 164.479 25.8961C155.41 25.8961 148.053 25.8444 148.053 25.7842C148.053 25.7239 155.406 25.668 164.479 25.668C173.552 25.668 180.905 25.7196 180.905 25.7842Z" fill="#E0E0E0"/>
<path d="M180.905 25.7836H188.296C188.61 25.7836 188.912 25.9086 189.134 26.1311C189.356 26.3536 189.481 26.6554 189.481 26.9701V27.4257C189.481 27.7404 189.356 28.0422 189.134 28.2647C188.912 28.4872 188.61 28.6122 188.296 28.6122H180.905V25.7793V25.7836Z" fill="#E0E0E0"/>
<path d="M148.436 28.6129H141.045C140.73 28.6129 140.429 28.4879 140.207 28.2654C139.985 28.0429 139.86 27.7411 139.86 27.4264V26.9707C139.86 26.6561 139.985 26.3543 140.207 26.1318C140.429 25.9093 140.73 25.7843 141.045 25.7843H148.436V28.6172V28.6129Z" fill="#E0E0E0"/>
<path d="M168.252 16.2363H161.097C160.628 16.2363 160.247 16.6174 160.247 17.0875V17.4142C160.247 17.8843 160.628 18.2654 161.097 18.2654H168.252C168.721 18.2654 169.102 17.8843 169.102 17.4142V17.0875C169.102 16.6174 168.721 16.2363 168.252 16.2363Z" fill="#E0E0E0"/>
<path d="M190.7 151.31C190.7 151.37 148.324 151.422 96.0638 151.422C43.8036 151.422 1.41945 151.37 1.41945 151.31C1.41945 151.25 43.7864 151.198 96.0638 151.198C148.341 151.198 190.7 151.25 190.7 151.31Z" fill="#263238"/>
<path d="M127.786 88.4574C127.615 89.1925 123.962 122.5 123.962 122.5L120.657 127.207L119.76 134.412L126.627 151.422H75.8179C75.8179 151.422 75.0153 142.433 75.084 140.03C75.1526 137.627 76.3716 128.81 76.3716 128.81L76.2557 119.856L74.3329 80.827L91.544 75.2644C101.944 73.4718 117.249 81.2827 117.249 81.2827L127.786 88.4574Z" fill="#E12E57"/>
<path d="M121.185 63.6313C123.447 63.4894 125.181 61.5979 126.426 59.7022C127.593 57.9311 128.572 55.945 128.597 53.8257C128.597 51.9858 127.876 50.2319 127.155 48.5381C126.434 46.8444 125.657 45.0303 124.494 43.5386C123.331 42.0469 121.683 40.8347 119.803 40.6025" fill="#263238"/>
<path d="M94.7462 72.5084L94.7719 71.9452L96.0982 39.4247L96.8321 37.5805L113.073 35.3408C114.332 35.2425 115.598 35.4009 116.795 35.8062C117.991 36.2115 119.093 36.8555 120.034 37.6992C120.975 38.5428 121.736 39.5688 122.27 40.715C122.804 41.8612 123.101 43.104 123.142 44.3683C123.349 50.2878 123.374 57.5227 122.55 61.9118C120.902 70.7157 114.086 71.6572 114.086 71.6572C114.086 71.6572 113.97 73.9656 113.842 77.3058C113.747 79.8249 111.524 87.0942 109.004 87.1673C107.923 87.1974 104.97 86.256 103.562 86.0496C94.6818 84.7514 94.7462 72.5084 94.7462 72.5084Z" fill="#FFBE9D"/>
<path d="M120.142 49.5014C120.138 49.7979 120.018 50.0809 119.808 50.2897C119.597 50.4986 119.314 50.6168 119.018 50.619C118.873 50.6265 118.728 50.605 118.592 50.5556C118.456 50.5062 118.331 50.4299 118.224 50.3314C118.118 50.2328 118.032 50.1139 117.973 49.9817C117.913 49.8495 117.88 49.7066 117.876 49.5615C117.881 49.265 118.001 48.982 118.211 48.7731C118.421 48.5643 118.705 48.4461 119.001 48.4438C119.145 48.4363 119.29 48.4579 119.426 48.5073C119.563 48.5567 119.688 48.633 119.794 48.7315C119.901 48.8301 119.986 48.9489 120.046 49.0812C120.106 49.2134 120.139 49.3562 120.142 49.5014Z" fill="#263238"/>
<path d="M121.473 48.0611C121.327 48.2073 120.486 47.5453 119.262 47.5152C118.039 47.4851 117.116 48.0697 117 47.915C116.936 47.8505 117.086 47.584 117.485 47.3131C118.023 46.9591 118.658 46.7818 119.301 46.8059C119.937 46.8209 120.551 47.0377 121.056 47.4249C121.421 47.7258 121.541 47.9967 121.473 48.0611Z" fill="#263238"/>
<path d="M108.189 49.3851C108.184 49.6817 108.064 49.9646 107.854 50.1735C107.644 50.3824 107.36 50.5006 107.064 50.5028C106.92 50.5103 106.775 50.4887 106.638 50.4393C106.502 50.3899 106.377 50.3137 106.271 50.2152C106.164 50.1166 106.079 49.9977 106.019 49.8655C105.959 49.7333 105.926 49.5904 105.923 49.4453C105.927 49.1488 106.047 48.8658 106.257 48.6569C106.468 48.448 106.751 48.3298 107.047 48.3276C107.192 48.3201 107.337 48.3417 107.473 48.3911C107.609 48.4405 107.734 48.5167 107.841 48.6153C107.947 48.7138 108.033 48.8327 108.092 48.9649C108.152 49.0972 108.185 49.24 108.189 49.3851Z" fill="#263238"/>
<path d="M109.459 47.9587C109.313 48.1049 108.468 47.4428 107.249 47.4127C106.03 47.3827 105.103 47.9673 104.987 47.8125C104.923 47.7481 105.073 47.4815 105.472 47.2107C106.009 46.8561 106.644 46.6788 107.287 46.7034C107.923 46.7185 108.538 46.9352 109.043 47.3225C109.408 47.6234 109.528 47.8942 109.459 47.9587Z" fill="#263238"/>
<path d="M113.657 57.1536C113.657 57.0849 114.417 56.9731 115.653 56.8527C115.966 56.8269 116.262 56.7711 116.322 56.5604C116.356 56.238 116.291 55.9129 116.138 55.6276L115.279 53.2245C114.095 49.7855 113.241 46.9912 113.382 46.944C113.524 46.8967 114.593 49.635 115.782 53.0569C116.065 53.9166 116.34 54.7033 116.597 55.4728C116.785 55.8558 116.83 56.293 116.726 56.7066C116.676 56.8128 116.603 56.9065 116.513 56.9809C116.422 57.0553 116.316 57.1084 116.202 57.1365C116.028 57.1782 115.849 57.197 115.67 57.1923C114.412 57.2396 113.657 57.2224 113.657 57.1536Z" fill="#263238"/>
<path d="M114.086 71.657C109.916 71.6049 105.842 70.3951 102.317 68.1621C102.317 68.1621 105.025 74.3309 113.906 73.7506L114.086 71.657Z" fill="#EB996E"/>
<path d="M113.043 60.0895C112.817 59.7926 112.52 59.5579 112.179 59.4075C111.838 59.2571 111.465 59.1959 111.094 59.2298C110.824 59.2467 110.559 59.3178 110.317 59.4389C110.074 59.56 109.858 59.7286 109.682 59.9348C109.515 60.1356 109.413 60.3824 109.389 60.6427C109.365 60.9029 109.421 61.1643 109.549 61.3921C109.741 61.6139 109.995 61.7733 110.277 61.8499C110.56 61.9265 110.86 61.9168 111.137 61.822C111.72 61.6345 112.26 61.3319 112.725 60.9321C112.865 60.8384 112.986 60.7188 113.081 60.5796C113.127 60.5125 113.152 60.4331 113.152 60.3518C113.152 60.2705 113.127 60.1911 113.081 60.1239" fill="#EB996E"/>
<path d="M110.021 57.9006C110.223 57.9006 110.189 59.2203 111.309 60.1961C112.429 61.172 113.833 61.0559 113.841 61.2493C113.841 61.331 113.519 61.4987 112.918 61.4987C112.142 61.4889 111.394 61.2042 110.807 60.6948C110.242 60.2067 109.889 59.5174 109.824 58.7732C109.794 58.2144 109.931 57.892 110.021 57.9006Z" fill="#263238"/>
<path d="M109.905 43.1735C109.777 43.5002 108.562 43.3111 107.124 43.4444C105.686 43.5776 104.515 43.9344 104.334 43.6335C104.253 43.4873 104.463 43.2036 104.939 42.8726C105.574 42.4951 106.286 42.2672 107.021 42.2061C107.757 42.145 108.496 42.2524 109.184 42.5201C109.704 42.7479 109.961 43.0145 109.905 43.1735Z" fill="#263238"/>
<path d="M121.121 44.5059C120.897 44.781 120.065 44.4672 119.052 44.4285C118.039 44.3898 117.176 44.5618 116.987 44.2652C116.906 44.1233 117.047 43.8353 117.417 43.5946C117.929 43.2936 118.518 43.1513 119.111 43.1857C119.704 43.2201 120.273 43.4297 120.747 43.788C121.108 44.0846 121.219 44.3684 121.121 44.5059Z" fill="#263238"/>
<path d="M94.6599 49.364C92.9362 50.4224 91.424 51.7927 90.2005 53.4049C88.7927 55.1717 87.8785 57.4586 88.2304 59.694C88.7154 62.7935 91.398 64.9945 93.8917 66.8945C95.3252 67.1009 96.3939 65.5146 96.6171 64.0788C96.8403 62.643 96.6429 61.0911 97.321 59.8058C97.9305 58.6537 99.1323 57.9487 99.9349 56.9213C101.429 55.0126 101.33 52.3259 100.965 49.9271C100.6 47.5284 100.965 43.9088 104.042 40.4697C104.042 40.4998 96.557 43.4273 94.6599 49.364Z" fill="#263238"/>
<path d="M92.0075 57.3467C93.2951 55.4854 92.9689 52.7556 91.4795 51.0318C89.9902 49.308 87.5866 48.56 85.3204 48.7534C83.6723 48.8953 82.0027 49.5444 80.9382 50.8125C79.8738 52.0807 79.5519 54.0367 80.436 55.4381C80.9253 56.2119 81.7752 56.9427 81.582 57.8411C81.3889 58.7396 80.3717 59.0276 79.6506 59.5348C79.0312 60.0008 78.5736 60.6498 78.3426 61.3904C78.1115 62.1309 78.1187 62.9254 78.363 63.6617C78.63 64.3884 79.0755 65.0359 79.6584 65.5446C80.2412 66.0532 80.9427 66.4066 81.6979 66.572C83.2249 66.8804 84.8119 66.5945 86.1359 65.7724C86.1359 67.1523 87.6167 68.2055 88.9858 68.0895C90.355 67.9734 91.5182 66.9718 92.2521 65.8068C93.2381 64.1164 93.7067 62.1732 93.5998 60.2183C93.4924 58.2737 93.1948 56.3444 92.7114 54.4579" fill="#263238"/>
<path d="M94.2735 67.3159C94.2008 67.2822 94.1329 67.2388 94.0718 67.187L93.5138 66.7829C93.0374 66.4261 92.3463 65.9231 91.5437 65.2009C90.5879 64.384 89.7437 63.4445 89.0329 62.4067C88.1525 61.1211 87.6431 59.6173 87.5607 58.0606C87.5237 57.2525 87.6508 56.4452 87.9341 55.6876C88.21 54.9858 88.618 54.3437 89.1359 53.7962C90.0327 52.9181 91.023 52.1411 92.0888 51.4791C92.7884 51.0187 93.4553 50.5102 94.0846 49.9573C94.3035 49.7553 94.4666 49.5919 94.5739 49.4759C94.6251 49.4153 94.6826 49.3605 94.7456 49.3125C94.7456 49.3125 94.7027 49.3856 94.604 49.5059C94.4633 49.6872 94.3098 49.8582 94.1447 50.0175C93.5345 50.6025 92.877 51.136 92.179 51.6124C91.1372 52.2872 90.1678 53.068 89.2861 53.9423C88.7903 54.4718 88.4012 55.0921 88.1401 55.7693C87.8704 56.5002 87.7493 57.2778 87.7839 58.0563C87.8615 59.5707 88.3481 61.0357 89.1917 62.2949C89.8869 63.3242 90.7088 64.2616 91.6382 65.0849C92.4236 65.7985 93.0975 66.3358 93.5567 66.7141L94.0846 67.144C94.1536 67.1943 94.2169 67.252 94.2735 67.3159Z" fill="#455A64"/>
<path d="M87.9644 56.0957C87.9257 56.1172 87.7025 55.64 87.136 55.0382C86.4107 54.2413 85.4649 53.6788 84.4192 53.4223C83.3735 53.1658 82.2753 53.227 81.2644 53.5981C80.4876 53.8732 80.067 54.187 80.0455 54.1526C80.024 54.1182 80.1313 54.0538 80.3245 53.9162C80.6022 53.7298 80.8985 53.5728 81.2086 53.4476C82.2441 53.025 83.3864 52.9408 84.4725 53.2071C85.5585 53.4735 86.5328 54.0767 87.2562 54.9307C87.4748 55.1841 87.6648 55.4609 87.8227 55.7561C87.8892 55.8602 87.9372 55.9751 87.9644 56.0957Z" fill="#455A64"/>
<path d="M81.0758 58.4511C81.05 58.4511 81.2088 58.0212 81.7883 57.6601C82.1261 57.4596 82.499 57.3253 82.887 57.2646C83.3541 57.1926 83.8269 57.1652 84.2991 57.183C85.1541 57.2062 86.0025 57.3405 86.8229 57.5828C87.168 57.6617 87.4983 57.7952 87.8015 57.9782C87.4567 57.9154 87.1157 57.8336 86.7799 57.7332C85.9631 57.5416 85.1291 57.4321 84.2905 57.4065C83.4621 57.3271 82.6272 57.4618 81.8655 57.7977C81.5701 57.9732 81.3036 58.1936 81.0758 58.4511Z" fill="#455A64"/>
<path d="M79.5992 65.4757C79.5992 65.437 80.213 65.4499 81.1787 65.2607C82.4308 65.0175 83.6189 64.5169 84.6681 63.7905C85.7067 63.0506 86.5831 62.1055 87.2434 61.0135C87.7498 60.1752 87.9515 59.5906 87.9902 59.6078C87.9717 59.7558 87.9327 59.9005 87.8743 60.0377C87.7372 60.4065 87.5722 60.7644 87.3807 61.1081C86.7462 62.251 85.8604 63.2343 84.7903 63.9835C83.7203 64.7328 82.494 65.2283 81.2044 65.4327C80.8168 65.4934 80.425 65.5236 80.0327 65.523C79.8865 65.5327 79.7398 65.5167 79.5992 65.4757Z" fill="#455A64"/>
<path d="M88.3934 55.976C88.3934 55.9545 88.6552 56.2081 89.196 56.5047C89.9706 56.9089 90.8389 57.0989 91.7112 57.055C92.3086 57.0339 92.8993 56.9208 93.4624 56.7197C94.1078 56.4773 94.7106 56.1334 95.2479 55.7008C96.4614 54.6773 97.427 53.3911 98.072 51.9394C98.7076 50.4771 99.2523 48.9768 99.703 47.4471C100.084 46.1918 100.561 44.9674 101.128 43.7845C101.514 42.9864 101.994 42.2374 102.557 41.5534C102.759 41.317 102.926 41.1236 103.047 41.0247C103.104 40.9644 103.167 40.9097 103.235 40.8613C103.235 40.8613 103.004 41.1193 102.626 41.6093C102.095 42.3066 101.64 43.0589 101.27 43.8533C100.726 45.038 100.268 46.2607 99.9005 47.5116C99.4585 49.0534 98.9151 50.5641 98.2738 52.034C97.6163 53.5188 96.623 54.8301 95.3723 55.8642C94.8168 56.3046 94.1935 56.6516 93.5267 56.8916C92.9439 57.0947 92.3325 57.2036 91.7155 57.214C90.8145 57.2483 89.922 57.0278 89.1403 56.5778C89.0171 56.5119 88.9007 56.4342 88.7926 56.3457C88.7083 56.2883 88.6293 56.2236 88.5565 56.1522C88.4968 56.0987 88.4422 56.0397 88.3934 55.976Z" fill="#455A64"/>
<path d="M100.991 47.9883C101.012 47.9883 100.836 48.2462 100.639 48.7492C100.385 49.4671 100.24 50.2192 100.21 50.9803C100.187 52.1245 100.059 53.2642 99.8276 54.3849C99.4463 55.7573 98.6629 56.9837 97.5786 57.9057C96.5054 58.8455 95.1648 59.4243 93.7458 59.5607C92.5945 59.6606 91.4361 59.4822 90.3679 59.0405C89.651 58.7479 88.9891 58.3351 88.4107 57.8197C88.2584 57.686 88.115 57.5424 87.9815 57.3898C87.9294 57.3379 87.8833 57.2802 87.8442 57.2178C87.8656 57.2178 88.0588 57.4328 88.4794 57.7681C89.068 58.2518 89.7302 58.6379 90.4409 58.9116C91.49 59.3214 92.6205 59.4789 93.7415 59.3715C95.114 59.2289 96.4084 58.6626 97.4455 57.7509C98.498 56.8585 99.2627 55.6737 99.6431 54.3462C99.8824 53.2401 100.026 52.1154 100.072 50.9846C100.12 50.2114 100.291 49.4509 100.579 48.732C100.665 48.5398 100.765 48.3544 100.879 48.1774C100.909 48.1103 100.946 48.0468 100.991 47.9883Z" fill="#455A64"/>
<path d="M126.425 59.1266C126.425 59.1266 126.571 58.9933 126.799 58.7311C127.126 58.3603 127.38 57.9317 127.55 57.4673C127.803 56.7805 127.907 56.0479 127.855 55.3178C127.778 54.4188 127.529 53.543 127.121 52.7386C126.262 51.019 125.104 49.6993 124.335 48.6934C124.03 48.2941 123.752 47.8747 123.503 47.4381C123.402 47.2826 123.321 47.115 123.262 46.9395C123.381 47.0807 123.486 47.2333 123.576 47.3951C123.769 47.6874 124.065 48.1044 124.46 48.5945C125.249 49.5703 126.456 50.8815 127.323 52.6397C127.742 53.4643 127.993 54.3646 128.061 55.2878C128.106 56.0448 127.983 56.8023 127.7 57.5059C127.502 57.9811 127.21 58.411 126.842 58.7698C126.744 58.8648 126.639 58.9525 126.528 59.032C126.473 59.1094 126.43 59.1352 126.425 59.1266Z" fill="#455A64"/>
<path d="M125.155 61.6457C125.581 61.1868 125.938 60.6684 126.215 60.1067C126.493 59.4902 126.639 58.8227 126.644 58.1465C126.644 57.317 126.475 56.4964 126.147 55.7348C125.805 54.9702 125.418 54.2266 124.988 53.5081C124.614 52.8288 124.292 52.2184 124.031 51.6811C123.769 51.1437 123.571 50.7267 123.443 50.4258C123.363 50.2736 123.304 50.1118 123.267 49.9443C123.364 50.0796 123.449 50.2235 123.52 50.3742L124.172 51.5951C124.451 52.1109 124.786 52.7214 125.168 53.3963C125.613 54.1151 126.009 54.8634 126.353 55.636C126.692 56.4256 126.862 57.2781 126.85 58.1379C126.834 58.8396 126.668 59.5297 126.365 60.1626C126.158 60.5846 125.884 60.9706 125.554 61.3061C125.464 61.3957 125.37 61.4803 125.271 61.5597C125.198 61.6242 125.159 61.65 125.155 61.6457Z" fill="#455A64"/>
<path d="M94.2392 50.5031C97.1793 45.4777 101.291 40.8049 106.948 39.4508C109.709 38.7675 112.581 38.658 115.386 39.1289C118.191 39.5999 120.87 40.6414 123.258 42.1891V32.2804L116.197 9.45366L110.699 6.53906L97.7029 13.9846L94.3422 41.4411L94.2392 50.5031Z" fill="#E12E57"/>
<g opacity="0.7">
<path opacity="0.7" d="M94.2392 50.5031C97.1793 45.4777 101.291 40.8049 106.948 39.4508C109.709 38.7675 112.581 38.658 115.386 39.1289C118.191 39.5999 120.87 40.6414 123.258 42.1891V32.2804L116.197 9.45366L110.699 6.53906L97.7029 13.9846L94.3422 41.4411L94.2392 50.5031Z" fill="white"/>
</g>
<path d="M122.988 32.6415C122.878 32.6035 122.773 32.5545 122.674 32.4953C122.472 32.3965 122.189 32.2245 121.816 32.0654C120.734 31.5375 119.604 31.1143 118.442 30.8016C116.72 30.3346 114.947 30.0791 113.163 30.0407C112.11 30.0165 111.057 30.0553 110.008 30.1568C108.884 30.2408 107.772 30.444 106.691 30.7629C104.616 31.4472 102.652 32.432 100.862 33.6861C99.3906 34.6943 98.0586 35.8925 96.9003 37.2498C96.1234 38.1739 95.4538 39.1835 94.9045 40.259C94.7414 40.633 94.6084 40.9296 94.5054 41.1531C94.4664 41.2614 94.4161 41.3651 94.3551 41.4627C94.382 41.3519 94.4193 41.2439 94.4667 41.1403C94.5483 40.9296 94.6599 40.6158 94.8273 40.2203C95.351 39.1237 96.0053 38.0945 96.7759 37.1552C97.9311 35.772 99.2664 34.5503 100.746 33.5227C102.548 32.246 104.529 31.2462 106.626 30.5566C107.723 30.2352 108.851 30.0306 109.991 29.9461C111.047 29.8466 112.107 29.8121 113.167 29.843C114.967 29.8918 116.753 30.1648 118.485 30.6554C119.651 30.9851 120.78 31.4346 121.854 31.9967C122.241 32.1815 122.52 32.3664 122.713 32.4781C122.809 32.5253 122.9 32.58 122.988 32.6415Z" fill="#263238"/>
<path d="M114.399 29.9893C114.339 29.9893 113.416 24.7834 112.343 18.3395C111.27 11.8955 110.446 6.66388 110.506 6.65528C110.566 6.64669 111.489 11.8612 112.562 18.3051C113.635 24.749 114.459 29.9807 114.399 29.9893Z" fill="#263238"/>
<path d="M105.785 30.9303C105.725 30.9303 105.819 25.9823 106.004 19.878C106.188 13.7737 106.381 8.83008 106.433 8.83008C106.484 8.83008 106.394 13.7823 106.214 19.8866C106.034 25.9909 105.849 30.9346 105.785 30.9303Z" fill="#263238"/>
<path d="M98.4542 35.0446C98.4439 34.9661 98.4439 34.8866 98.4542 34.8081C98.4542 34.6276 98.4542 34.404 98.4799 34.1332C98.51 33.5486 98.5658 32.6974 98.6473 31.6528C98.8104 29.5636 99.0765 26.6748 99.5057 23.485C99.9349 20.2953 100.364 17.4667 100.703 15.3775C100.883 14.3415 101.038 13.5075 101.158 12.9315C101.214 12.6649 101.261 12.45 101.296 12.2737C101.306 12.1951 101.328 12.1183 101.36 12.0459C101.369 12.1244 101.369 12.2038 101.36 12.2823C101.33 12.4586 101.3 12.6778 101.261 12.9487C101.167 13.5591 101.034 14.3888 100.879 15.4033C100.557 17.4753 100.145 20.3426 99.7461 23.5151C99.3469 26.6877 99.0379 29.5679 98.8362 31.6528C98.7375 32.6759 98.6559 33.5099 98.6001 34.1246C98.5701 34.3997 98.5486 34.619 98.5271 34.7995C98.5148 34.8843 98.4903 34.9669 98.4542 35.0446Z" fill="#263238"/>
<path d="M115.653 31.6611C115.688 31.9926 115.688 32.3269 115.653 32.6585C115.601 33.3549 115.541 34.1587 115.477 35.0486C115.412 35.9385 115.348 36.7423 115.296 37.4387C115.29 37.7718 115.249 38.1033 115.172 38.4275C115.12 38.0977 115.108 37.7627 115.138 37.4301C115.138 36.8154 115.185 35.9685 115.254 35.0314C115.322 34.0943 115.412 33.2517 115.494 32.6413C115.509 32.3095 115.562 31.9806 115.653 31.6611Z" fill="#263238"/>
<path d="M74.6935 129.421C74.1527 128.63 72.6977 127.925 71.7449 127.822C68.4486 127.461 65.4441 128.883 62.8431 130.947L62.3324 131.88C60.9332 132.972 59.4739 134.218 59.0404 135.942C58.644 137.738 58.4439 139.571 58.4438 141.41C58.4846 142.387 58.8798 143.315 59.5554 144.02C60.1773 144.709 61.0421 145.13 61.9676 145.193C63.7176 145.329 65.4683 144.937 66.9936 144.067C68.5088 143.194 69.8456 142.041 70.9337 140.671C72.965 138.184 74.3457 135.229 74.9511 132.073C75.1228 131.205 75.2086 130.182 74.6935 129.421Z" fill="#E12E57"/>
<g opacity="0.4">
<path opacity="0.4" d="M74.6935 129.421C74.1527 128.63 72.6977 127.925 71.7449 127.822C68.4486 127.461 65.4441 128.883 62.8431 130.947L62.3324 131.88C60.9332 132.972 59.4739 134.218 59.0404 135.942C58.644 137.738 58.4439 139.571 58.4438 141.41C58.4846 142.387 58.8798 143.315 59.5554 144.02C60.1773 144.709 61.0421 145.13 61.9676 145.193C63.7176 145.329 65.4683 144.937 66.9936 144.067C68.5088 143.194 69.8456 142.041 70.9337 140.671C72.965 138.184 74.3457 135.229 74.9511 132.073C75.1228 131.205 75.2086 130.182 74.6935 129.421Z" fill="black"/>
</g>
<path d="M74.3372 80.8271C73.8179 80.9991 48.0955 117.513 47.4045 119.946C46.7134 122.379 42.9493 128.161 48.2629 133.591C51.5583 136.934 55.0712 140.054 58.7784 142.932C57.5852 133.728 66.6286 126.309 72.9423 128.234L68.1137 124.954L79.1486 110.274" fill="#E12E57"/>
<path d="M127.786 88.457C127.786 88.457 131.834 93.5253 132.842 96.8053C133.701 99.6082 138.293 112.578 138.293 112.578L146.65 133.319C146.65 133.319 145.362 135.151 145.075 136.703C144.954 137.322 143.894 146.852 141.362 150.889L127.958 144.87L126.267 132.855L123.958 122.499L126.344 94.6215L127.786 88.457Z" fill="#E12E57"/>
<path d="M90.1664 75.5561C90.1664 75.5561 93.6001 72.3836 94.5529 71.9365C94.5529 71.9365 95.6431 75.6636 98.845 77.4261C102.047 79.1886 104.111 81.0887 104.111 81.3423V85.9636C104.111 85.9636 90.9905 82.374 90.1664 75.5561Z" fill="#E12E57"/>
<path d="M92.3596 99.0668L117.855 97.5235L116.661 82.9377L115.567 80.4787L113.85 77.375C113.762 78.4244 113.339 79.4176 112.644 80.2079C111.24 81.6343 109.431 82.592 107.463 82.9506L106.961 85.9597L94.0421 80.6163C94.0421 80.6163 92.3596 98.2415 92.3596 98.6455" fill="#E12E57"/>
<path d="M107.455 82.9375C107.462 83.0032 107.462 83.0695 107.455 83.1352C107.433 83.2771 107.403 83.4706 107.369 83.7156C107.286 84.24 107.169 84.9923 107.017 85.9725V86.0112H106.974L96.4886 86.3336L94.7718 86.3808L93.8747 86.4066C93.5845 86.3985 93.2948 86.4362 93.0163 86.5184C92.7348 86.6166 92.4793 86.7775 92.2689 86.989C92.0585 87.2005 91.8987 87.457 91.8017 87.7393C91.7076 88.0347 91.674 88.3462 91.703 88.6549C91.703 88.9816 91.703 89.3083 91.703 89.635C91.7588 92.2659 91.8188 95.0516 91.8789 97.9318C92.0764 106.005 92.2008 113.317 92.1622 118.609C92.1622 121.257 92.1193 123.398 92.085 124.877C92.0635 125.603 92.0506 126.166 92.0377 126.596C92.0377 126.781 92.0377 126.927 92.0377 127.026C92.0432 127.076 92.0432 127.127 92.0377 127.177C92.0312 127.127 92.0312 127.076 92.0377 127.026C92.0377 126.914 92.0377 126.768 92.0377 126.596C92.0377 126.192 92.0377 125.62 92.0377 124.877C92.0377 123.385 92.0377 121.249 92.0377 118.613C92.0377 113.322 91.8875 106.014 91.6901 97.9404C91.6343 95.0602 91.5785 92.2745 91.5227 89.6437V88.6635C91.4974 88.331 91.5368 87.9966 91.6386 87.6791C91.7455 87.3667 91.9221 87.0828 92.1548 86.849C92.3876 86.6151 92.6705 86.4374 92.982 86.3293C93.2842 86.2408 93.5987 86.2016 93.9134 86.2132L94.8061 86.1917L96.523 86.1487L107.013 85.9166L106.966 85.9596C107.137 84.9823 107.269 84.2329 107.36 83.7113L107.472 83.1352C107.462 83.0698 107.456 83.0037 107.455 82.9375Z" fill="#263238"/>
<path d="M94.6642 92.6877C95.2663 92.6877 95.7544 92.1988 95.7544 91.5958C95.7544 90.9928 95.2663 90.5039 94.6642 90.5039C94.0622 90.5039 93.5741 90.9928 93.5741 91.5958C93.5741 92.1988 94.0622 92.6877 94.6642 92.6877Z" fill="#263238"/>
<path d="M100.781 90.4223C100.781 90.4911 99.5531 90.6502 98.0595 90.9984C96.5659 91.3466 95.3855 91.7421 95.3641 91.6819C96.1982 91.257 97.0884 90.953 98.008 90.7791C98.9115 90.5334 99.8445 90.4133 100.781 90.4223Z" fill="#263238"/>
<path d="M98.9305 92.5937C98.2885 92.4948 97.6524 92.3612 97.0248 92.1934C96.3827 92.0955 95.7465 91.9619 95.1191 91.7932C96.434 91.7637 97.738 92.0376 98.9305 92.5937Z" fill="#263238"/>
<path d="M94.6642 105.033C95.2663 105.033 95.7544 104.545 95.7544 103.941C95.7544 103.338 95.2663 102.85 94.6642 102.85C94.0622 102.85 93.5741 103.338 93.5741 103.941C93.5741 104.545 94.0622 105.033 94.6642 105.033Z" fill="#263238"/>
<path d="M100.781 102.772C100.781 102.837 99.5531 102.996 98.0595 103.344C96.5659 103.692 95.3855 104.088 95.3641 104.028C96.1979 103.603 97.0883 103.3 98.008 103.129C98.911 102.881 99.8443 102.761 100.781 102.772Z" fill="#263238"/>
<path d="M98.9305 104.939C98.2885 104.841 97.6524 104.707 97.0248 104.539C96.3827 104.441 95.7465 104.308 95.1191 104.139C96.434 104.109 97.738 104.383 98.9305 104.939Z" fill="#263238"/>
<path d="M94.6642 117.384C95.2663 117.384 95.7544 116.895 95.7544 116.292C95.7544 115.689 95.2663 115.2 94.6642 115.2C94.0622 115.2 93.5741 115.689 93.5741 116.292C93.5741 116.895 94.0622 117.384 94.6642 117.384Z" fill="#263238"/>
<path d="M100.781 115.118C100.781 115.182 99.5531 115.341 98.0595 115.69C96.5659 116.038 95.3855 116.433 95.3641 116.373C96.1979 115.948 97.0883 115.646 98.008 115.475C98.911 115.227 99.8443 115.106 100.781 115.118Z" fill="#263238"/>
<path d="M98.9305 117.286C98.2885 117.187 97.6524 117.053 97.0248 116.886C96.3827 116.788 95.7465 116.654 95.1191 116.485C95.7756 116.434 96.436 116.495 97.072 116.666C97.7226 116.763 98.3514 116.973 98.9305 117.286Z" fill="#263238"/>
<path d="M77.6034 113.58C77.6122 113.473 77.6323 113.368 77.6635 113.266C77.715 113.042 77.788 112.75 77.8781 112.385C78.067 111.615 78.3503 110.51 78.6722 109.139C78.9941 107.768 79.3503 106.13 79.6293 104.281C79.941 102.291 80.0732 100.277 80.0242 98.263C79.9544 96.2469 79.6107 94.2496 79.0026 92.3264C78.51 90.7555 77.796 89.2631 76.8824 87.8943C76.2673 86.9712 75.5471 86.123 74.7363 85.3666C74.4616 85.0872 74.2084 84.9109 74.0582 84.769C73.9729 84.705 73.8952 84.6314 73.8264 84.5498C73.9167 84.6034 74.0028 84.6638 74.0839 84.7304C74.247 84.8636 74.5132 85.0313 74.7964 85.3021C75.6362 86.0413 76.3815 86.8816 77.0154 87.804C77.9562 89.1763 78.6935 90.6778 79.2044 92.2619C79.8278 94.2014 80.1803 96.2181 80.2516 98.2544C80.2996 100.287 80.1559 102.319 79.8224 104.324C79.5349 106.173 79.1572 107.815 78.8181 109.186C78.479 110.558 78.17 111.658 77.9597 112.419C77.8567 112.78 77.7708 113.072 77.7064 113.279C77.6791 113.381 77.6447 113.482 77.6034 113.58Z" fill="#263238"/>
<path d="M77.1742 113.21C77.1093 113.024 77.0605 112.833 77.0283 112.638C76.9467 112.268 76.8523 111.727 76.7536 111.052C76.5049 109.296 76.3916 107.524 76.4145 105.751C76.4402 103.977 76.6037 102.208 76.9038 100.46C77.0197 99.7933 77.1313 99.2516 77.2257 98.8862C77.2606 98.6906 77.3152 98.499 77.3888 98.3145C77.3814 98.5127 77.3555 98.7099 77.3116 98.9034C77.2429 99.2731 77.157 99.8147 77.0626 100.485C76.8063 102.231 76.6629 103.991 76.6334 105.756C76.6131 107.518 76.7048 109.28 76.9081 111.03C76.9854 111.705 77.054 112.247 77.1098 112.621C77.1535 112.814 77.1751 113.012 77.1742 113.21Z" fill="#263238"/>
<path d="M52.7738 124.413C52.9912 124.341 53.2135 124.285 53.439 124.245C54.0331 124.071 54.6083 123.838 55.1559 123.548C55.8555 123.187 56.6495 122.689 57.5551 122.143C58.5229 121.515 59.596 121.068 60.7227 120.823C61.8775 120.636 63.0617 120.831 64.0962 121.378C64.925 121.82 65.6902 122.372 66.371 123.02C66.8297 123.447 67.2599 123.903 67.6587 124.387C67.8182 124.558 67.9619 124.744 68.0879 124.941C67.9164 124.788 67.7558 124.623 67.6072 124.447C67.1828 123.995 66.7358 123.564 66.268 123.157C65.5837 122.538 64.8237 122.008 64.0061 121.58C63.0079 121.063 61.8701 120.882 60.7613 121.064C59.6588 121.306 58.6081 121.743 57.6581 122.353C56.7525 122.878 55.9413 123.372 55.2245 123.72C54.6596 124.003 54.0631 124.216 53.4476 124.357C53.2789 124.392 53.1084 124.418 52.9369 124.434C52.8818 124.433 52.8271 124.426 52.7738 124.413Z" fill="#263238"/>
<path d="M61.6624 115.467C61.8047 115.502 61.9418 115.555 62.0701 115.626C62.2294 115.689 62.3831 115.765 62.5294 115.854C62.7297 115.961 62.9245 116.079 63.1131 116.206C63.6087 116.532 64.0728 116.903 64.4994 117.315C65.5492 118.327 66.3652 119.557 66.8901 120.918C67.1056 121.474 67.268 122.05 67.3751 122.637C67.4197 122.86 67.4526 123.086 67.4738 123.312C67.4963 123.482 67.5078 123.653 67.5082 123.824C67.5295 123.966 67.5295 124.111 67.5082 124.254C67.4653 124.254 67.4481 123.63 67.2335 122.659C67.1056 122.091 66.932 121.535 66.7141 120.995C66.4363 120.339 66.1016 119.709 65.7141 119.112C65.3164 118.523 64.8652 117.972 64.3664 117.466C63.9546 117.054 63.5096 116.678 63.0358 116.339C62.2118 115.759 61.6452 115.505 61.6624 115.467Z" fill="#263238"/>
<g opacity="0.4">
<path opacity="0.4" d="M67.3023 123.716C66.5236 121.94 65.2695 120.414 63.6787 119.308C62.0879 118.202 60.2225 117.558 58.2889 117.448C57.7679 117.398 57.2426 117.479 56.761 117.684C56.5229 117.792 56.3219 117.968 56.183 118.19C56.044 118.412 55.9734 118.669 55.9798 118.931C56.0449 119.177 56.0851 119.429 56.1 119.683C56.0356 120.255 55.3274 120.462 54.7737 120.621C53.6938 120.929 52.7319 121.557 52.0139 122.422C51.6405 122.852 51.3401 123.544 51.6963 124.008C51.9925 124.386 52.5547 124.386 53.0312 124.3C54.7995 123.991 56.3747 123.037 57.9885 122.254C59.6023 121.472 61.4222 120.84 63.1733 121.235C65.109 121.665 66.5469 123.256 67.8474 124.756" fill="black"/>
</g>
<path d="M123.958 122.5C123.911 122.568 123.857 122.631 123.799 122.689L123.306 123.196C123.095 123.416 122.829 123.678 122.507 123.97C122.185 124.263 121.829 124.611 121.408 124.959C120.434 125.792 119.419 126.576 118.365 127.306C115.78 129.101 112.982 130.567 110.034 131.669C108.674 132.168 107.429 132.559 106.369 132.83C105.841 132.976 105.356 133.075 104.931 133.17C104.506 133.264 104.141 133.337 103.837 133.385L103.146 133.496C103.066 133.516 102.983 133.525 102.901 133.522C102.976 133.489 103.056 133.465 103.137 133.453L103.824 133.299C104.12 133.238 104.485 133.157 104.905 133.049C105.326 132.942 105.807 132.834 106.326 132.675C107.378 132.387 108.614 131.983 109.962 131.476C112.883 130.36 115.663 128.904 118.245 127.138C119.434 126.322 120.468 125.535 121.305 124.834C121.735 124.499 122.095 124.164 122.421 123.88C122.748 123.596 123.027 123.343 123.245 123.132L123.765 122.655C123.823 122.596 123.888 122.544 123.958 122.5Z" fill="#263238"/>
<path d="M127.958 94.2344C127.957 94.3311 127.947 94.4276 127.928 94.5224C127.898 94.733 127.855 95.0082 127.803 95.3478L127.331 98.3569C126.936 100.906 126.417 104.44 125.885 108.343C125.352 112.246 124.889 115.767 124.541 118.351L124.138 121.381C124.086 121.721 124.048 121.996 124.018 122.207C124.008 122.303 123.99 122.398 123.962 122.49C123.95 122.393 123.95 122.295 123.962 122.198C123.979 121.986 124.005 121.711 124.039 121.373C124.121 120.625 124.232 119.593 124.374 118.329C124.67 115.75 125.112 112.221 125.661 108.313C126.211 104.405 126.739 100.876 127.172 98.3311C127.395 97.0415 127.576 96.027 127.722 95.322C127.786 94.9867 127.842 94.7158 127.885 94.5052C127.898 94.4122 127.922 94.3213 127.958 94.2344Z" fill="#263238"/>
<path d="M113.434 136.733C113.492 136.58 113.569 136.435 113.665 136.303C113.829 136.049 114.069 135.684 114.374 135.232C114.987 134.338 115.859 133.117 116.859 131.793C117.859 130.469 118.803 129.309 119.507 128.483C119.855 128.053 120.142 127.739 120.365 127.512C120.589 127.284 120.687 127.168 120.7 127.181C120.626 127.319 120.537 127.449 120.434 127.568L119.627 128.625C118.962 129.485 118.039 130.654 117.052 131.97C116.065 133.285 115.163 134.489 114.52 135.361L113.738 136.363C113.652 136.498 113.55 136.622 113.434 136.733Z" fill="#263238"/>
<path d="M141.062 127.766C140.827 127.686 140.598 127.591 140.375 127.482C139.946 127.293 139.302 127.022 138.499 126.743C136.412 125.988 134.207 125.617 131.988 125.647C131.366 125.66 130.75 125.787 130.173 126.021C129.64 126.251 129.156 126.579 128.744 126.988C128.045 127.704 127.498 128.553 127.134 129.486C126.876 130.108 126.65 130.744 126.456 131.39C126.392 131.631 126.31 131.866 126.211 132.095C126.246 131.848 126.299 131.603 126.37 131.364C126.537 130.706 126.744 130.059 126.988 129.425C127.345 128.472 127.894 127.603 128.602 126.872C129.028 126.44 129.532 126.093 130.087 125.849C130.687 125.603 131.327 125.469 131.975 125.453C134.221 125.411 136.454 125.804 138.551 126.61C139.186 126.846 139.808 127.118 140.414 127.422C140.628 127.525 140.791 127.62 140.903 127.68C140.96 127.701 141.013 127.73 141.062 127.766Z" fill="#263238"/>
<path d="M137.851 121.033C137.851 121.081 137.177 121.059 136.135 121.244C135.515 121.353 134.907 121.514 134.315 121.725C132.864 122.25 131.535 123.065 130.409 124.12C129.951 124.552 129.53 125.022 129.151 125.526C128.507 126.385 128.22 126.996 128.177 126.974C128.222 126.824 128.283 126.68 128.362 126.544C128.44 126.376 128.529 126.212 128.628 126.054C128.749 125.841 128.88 125.635 129.023 125.435C129.392 124.911 129.808 124.421 130.267 123.974C131.397 122.876 132.756 122.044 134.246 121.536C134.852 121.335 135.476 121.191 136.109 121.106C136.379 121.059 136.628 121.051 136.843 121.033C137.027 121.023 137.212 121.023 137.396 121.033C137.548 121.018 137.7 121.018 137.851 121.033Z" fill="#263238"/>
<path d="M141.302 148.276C141.093 146.871 140.535 145.541 139.68 144.408C138.824 143.275 137.698 142.376 136.405 141.793C134.357 140.877 131.533 140.667 129.589 141.793C127.645 142.919 125.044 145.688 125.571 147.867L130.031 155.369C131.179 156.202 132.551 156.672 133.969 156.717C135.386 156.763 136.785 156.381 137.984 155.622C139.158 154.822 140.089 153.712 140.674 152.416C141.259 151.12 141.477 149.687 141.302 148.276Z" fill="#E12E57"/>
<g opacity="0.4">
<path opacity="0.4" d="M141.302 148.276C141.093 146.871 140.535 145.541 139.68 144.408C138.824 143.275 137.698 142.376 136.405 141.793C134.357 140.877 131.533 140.667 129.589 141.793C127.645 142.919 125.044 145.688 125.571 147.867L130.031 155.369C131.179 156.202 132.551 156.672 133.969 156.717C135.386 156.763 136.785 156.381 137.984 155.622C139.158 154.822 140.089 153.712 140.674 152.416C141.259 151.12 141.477 149.687 141.302 148.276Z" fill="black"/>
</g>
<path d="M139.911 153.743C139.911 153.743 140.07 153.442 140.341 152.909C140.714 152.14 140.973 151.321 141.109 150.476C141.304 149.223 141.192 147.941 140.783 146.741C140.66 146.395 140.517 146.058 140.353 145.73C140.182 145.391 139.989 145.064 139.774 144.75C138.883 143.414 137.614 142.374 136.13 141.763C134.234 141.044 132.141 141.044 130.246 141.763C129.443 142.053 128.685 142.457 127.997 142.962C127.512 143.327 127.263 143.555 127.245 143.538C127.297 143.474 127.355 143.415 127.417 143.362C127.582 143.195 127.757 143.038 127.941 142.893C128.619 142.349 129.378 141.914 130.19 141.603C132.118 140.842 134.261 140.829 136.199 141.565C136.96 141.87 137.671 142.291 138.306 142.811C138.94 143.334 139.494 143.947 139.95 144.63C140.166 144.954 140.363 145.292 140.538 145.64C140.703 145.977 140.847 146.325 140.967 146.68C141.38 147.912 141.479 149.227 141.255 150.506C141.102 151.363 140.812 152.188 140.396 152.952C140.25 153.219 140.109 153.417 140.023 153.55C139.995 153.619 139.957 153.684 139.911 153.743Z" fill="#263238"/>
<path d="M127.649 143.194C127.584 143.194 127.065 140.262 126.481 136.621C125.898 132.98 125.477 130.023 125.537 130.01C125.597 129.997 126.121 132.946 126.705 136.587C127.288 140.228 127.709 143.186 127.649 143.194Z" fill="#263238"/>
<g opacity="0.4">
<path opacity="0.4" d="M124.739 126.012L127.018 125.853C128.528 123.531 130.893 121.901 133.597 121.317C134.219 121.154 134.871 121.141 135.499 121.279C135.812 121.351 136.1 121.504 136.337 121.722C136.573 121.939 136.749 122.215 136.847 122.521C136.926 122.832 136.88 123.162 136.72 123.44C136.559 123.718 136.297 123.922 135.988 124.009C136.622 124.175 137.213 124.471 137.726 124.879C138.239 125.287 138.661 125.797 138.967 126.377C139.096 126.622 139.19 126.957 138.997 127.155C138.85 127.267 138.665 127.316 138.482 127.293C137.43 127.293 136.387 127.056 135.336 127.009C134.283 126.902 133.225 127.151 132.331 127.718C131.473 128.333 131.009 129.335 130.615 130.298C129.166 133.771 128.096 137.39 127.421 141.092C126.893 138.998 126.846 136.793 126.464 134.807C125.919 131.991 125.391 129.111 124.747 126.02" fill="black"/>
</g>
<g opacity="0.4">
<path opacity="0.4" d="M75.3069 144.995C78.144 148.026 81.9725 149.444 86.0714 150.115C90.1704 150.786 94.3551 150.545 98.5184 150.313C99.5399 150.253 100.75 150.076 101.197 149.152C101.514 148.494 101.295 147.716 101.042 147.037C99.2137 142.192 95.5998 138.276 92.0675 134.497C90.7798 133.113 89.3978 131.677 87.5908 131.119C85.6036 130.508 83.346 131.045 81.4618 130.168C79.1955 129.115 78.2727 126.441 77.5731 124.038L76.131 119.095C76.4486 124.481 76.3928 128.81 76.3928 128.81C76.3928 128.81 74.9078 138.766 75.1052 141.023C75.3026 143.28 75.3069 144.995 75.3069 144.995Z" fill="black"/>
</g>
<path d="M103.562 83.5394C103.371 83.5188 103.182 83.477 103 83.4147C102.639 83.3244 102.141 83.1654 101.498 82.9418C99.8657 82.3554 98.3004 81.5974 96.8279 80.6807C95.3541 79.7637 93.9803 78.6946 92.7289 77.491C92.2525 77.0267 91.8705 76.6312 91.643 76.3518C91.5056 76.216 91.3846 76.0645 91.2825 75.9004C91.4363 76.0184 91.5799 76.1493 91.7117 76.2916C91.9692 76.5581 92.3555 76.9278 92.8448 77.3749C95.3875 79.7085 98.3423 81.5468 101.558 82.7957C102.171 83.0364 102.678 83.2256 103.03 83.333C103.213 83.3862 103.391 83.4552 103.562 83.5394Z" fill="#263238"/>
<path d="M115.528 81.1531C115.493 81.2679 115.437 81.3756 115.365 81.4712C115.201 81.7513 115.016 82.0186 114.811 82.2708C113.458 83.9566 111.6 85.1623 109.511 85.7099C109.198 85.7956 108.88 85.8574 108.558 85.8947C108.441 85.9208 108.321 85.928 108.201 85.9162C108.201 85.8775 108.695 85.7958 109.468 85.5594C110.474 85.2448 111.432 84.795 112.318 84.2225C113.198 83.645 113.995 82.9493 114.687 82.1547C115.219 81.5572 115.494 81.1316 115.528 81.1531Z" fill="#263238"/>
<path d="M117.519 83.8057C116.863 85.4906 115.621 86.8813 114.021 87.7219C114.698 87.1591 115.344 86.5607 115.957 85.9293C116.515 85.2492 117.036 84.5404 117.519 83.8057Z" fill="#263238"/>
<path d="M95.0033 134.923L95.2694 134.867C96.2222 134.682 99.3812 134.106 99.8919 134.618C100.489 135.22 104.768 139.428 104.768 139.428C104.768 139.428 103.944 140.782 101.24 139.428C98.5356 138.074 95.0033 134.923 95.0033 134.923Z" fill="#FFBE9D"/>
<path d="M88.9343 126.372C89.3994 126.063 89.9657 125.945 90.5157 126.042C91.0656 126.14 91.5568 126.446 91.8872 126.897L104.931 144.225L101.587 146.68L88.4149 129.519C88.2319 129.282 88.0996 129.011 88.0263 128.72C87.953 128.43 87.9404 128.128 87.9891 127.832C88.0379 127.537 88.147 127.255 88.3096 127.004C88.4723 126.752 88.6849 126.538 88.9343 126.372Z" fill="#263238"/>
<path d="M59.1089 137.975C59.1089 137.975 74.599 140.494 76.7451 140.662C78.8911 140.83 84.7669 147.072 86.4709 147.669C88.1748 148.267 92.7888 148.181 92.7888 148.181C92.7888 148.181 101.15 148.611 101.407 148.181C101.665 147.751 102.176 147.837 101.407 146.212C100.931 145.216 100.356 144.272 99.6904 143.392C99.6904 143.392 101.836 146.04 102.424 146.126C103.013 146.212 104.3 146.367 104.214 145.223C104.128 144.08 101.909 139.377 101.909 139.377C101.909 139.377 100.974 137.18 99.2655 136.694C97.5573 136.209 90.132 132.623 90.132 132.623H82.1917L72.9294 128.213C72.9294 128.213 67.324 126.407 61.9889 132.301C60.9497 133.472 60.1597 134.842 59.6669 136.329L59.1089 137.975Z" fill="#FFBE9D"/>
<path d="M103.398 142.919C103.302 142.779 103.224 142.627 103.167 142.467C103.016 142.123 102.832 141.702 102.617 141.203C102.403 140.705 102.115 140.017 101.823 139.32C101.582 138.54 101.111 137.851 100.471 137.343C100.122 137.102 99.7498 136.898 99.3596 136.733L98.2651 136.242C97.5612 135.933 96.926 135.666 96.3938 135.443L95.1061 134.914C94.9474 134.859 94.7949 134.787 94.6512 134.699C94.8185 134.726 94.9825 134.771 95.1405 134.832C95.4452 134.936 95.8916 135.09 96.4281 135.292C96.9646 135.495 97.617 135.752 98.3252 136.053L99.4283 136.535C99.835 136.701 100.222 136.911 100.583 137.162C101.257 137.697 101.75 138.427 101.995 139.252C102.274 139.952 102.523 140.593 102.742 141.147C102.961 141.702 103.094 142.085 103.227 142.437C103.3 142.591 103.358 142.753 103.398 142.919Z" fill="#EB996E"/>
<path d="M95.63 138.611C95.929 138.788 96.2044 139.002 96.4497 139.248C97.0641 139.806 97.6378 140.408 98.1666 141.049C98.7049 141.688 99.1955 142.366 99.6345 143.078C99.8342 143.36 99.9959 143.668 100.115 143.993C99.887 143.735 99.6817 143.458 99.5014 143.164C99.1366 142.644 98.6172 141.934 97.9949 141.191C97.3725 140.447 96.7716 139.815 96.321 139.364C96.0689 139.134 95.8376 138.882 95.63 138.611Z" fill="#EB996E"/>
<path d="M100.038 148.309C99.9225 148.286 99.812 148.243 99.7119 148.18C99.4272 148.036 99.1545 147.869 98.8964 147.682C98.0634 147.042 97.3047 146.311 96.6345 145.502C95.8319 144.578 95.1151 143.735 94.6086 143.116C94.3165 142.796 94.0509 142.452 93.8146 142.089C94.1449 142.369 94.4495 142.678 94.7245 143.013C95.2653 143.606 96.0122 144.432 96.8019 145.352C97.4652 146.149 98.1977 146.885 98.9908 147.553C99.6132 148.051 100.055 148.279 100.038 148.309Z" fill="#EB996E"/>
<path d="M95.437 148.301C95.1536 148.205 94.8849 148.071 94.6386 147.901C94.0208 147.535 93.4247 147.133 92.8531 146.697C92.2832 146.263 91.7359 145.8 91.2136 145.309C90.9826 145.117 90.7764 144.898 90.5998 144.655C90.647 144.604 91.6642 145.515 92.9905 146.521C94.3167 147.527 95.4713 148.245 95.437 148.301Z" fill="#EB996E"/>
<path d="M120.85 154.749C120.85 154.749 119.49 152.643 119.301 151.89C119.112 151.138 119.301 147.557 116.794 148.12V148.4C116.859 148.705 116.794 155.987 116.794 155.987L120.85 154.749Z" fill="#FFBE9D"/>
<path d="M88.7328 158.562C88.7328 158.562 86.4194 179.945 111.416 179.321C131.795 178.814 131.439 158.919 131.439 158.919L88.7328 158.562Z" fill="#E12E57"/>
<path d="M109.712 164.404C122.577 164.404 133.005 161.879 133.005 158.764C133.005 155.649 122.577 153.124 109.712 153.124C96.848 153.124 86.4194 155.649 86.4194 158.764C86.4194 161.879 96.848 164.404 109.712 164.404Z" fill="#E12E57"/>
<path opacity="0.4" d="M110.06 162.125C121.867 162.125 131.439 160.53 131.439 158.562C131.439 156.594 121.867 154.998 110.06 154.998C98.2528 154.998 88.6812 156.594 88.6812 158.562C88.6812 160.53 98.2528 162.125 110.06 162.125Z" fill="black"/>
<path d="M132.215 160.377L132.112 160.437L131.825 160.617C131.572 160.776 131.185 160.996 130.679 161.254C129.237 161.976 127.724 162.545 126.164 162.952C123.85 163.537 121.502 163.976 119.133 164.267C116.229 164.595 113.308 164.738 110.386 164.697C107.283 164.671 104.321 164.568 101.639 164.332C99.2592 164.135 96.8968 163.767 94.5697 163.231C93.002 162.87 91.4639 162.39 89.9686 161.795C89.4364 161.593 89.0373 161.395 88.7626 161.275L88.4578 161.129C88.3849 161.099 88.3505 161.077 88.3548 161.073C88.393 161.083 88.4303 161.096 88.4664 161.112L88.784 161.236C89.063 161.344 89.4622 161.524 89.9987 161.714C91.5018 162.274 93.0421 162.73 94.6084 163.076C96.9306 163.588 99.2854 163.939 101.656 164.125C104.334 164.349 107.287 164.448 110.39 164.473C113.302 164.51 116.213 164.367 119.108 164.044C121.469 163.766 123.811 163.344 126.121 162.78C127.677 162.391 129.191 161.848 130.64 161.159C131.147 160.91 131.542 160.708 131.799 160.562L132.1 160.398C132.177 160.39 132.211 160.372 132.215 160.377Z" fill="#263238"/>
<path d="M117.949 158.082C117.949 158.082 120.498 149.523 121.382 148.383C122.108 147.442 127.245 143.547 129.009 142.228C129.444 141.899 129.938 141.658 130.464 141.518C132.211 141.058 133.958 140.749 136.834 141.995C137.741 142.398 138.557 142.981 139.231 143.71C139.906 144.439 140.425 145.297 140.757 146.234L131.164 152.205L130.791 156.246L123.065 154.273C123.102 153.866 123.023 153.458 122.837 153.095C122.837 153.095 120.382 159.053 117.949 158.082Z" fill="#FFBE9D"/>
<path d="M108.687 152.003C107.712 150.713 106.901 149.471 106.257 148.417C105.613 147.364 105.154 146.479 104.849 145.838C104.71 145.506 104.542 145.187 104.347 144.884C104.447 145.23 104.575 145.568 104.729 145.894C105.121 146.793 105.563 147.67 106.051 148.521C106.784 149.776 107.58 150.993 108.438 152.166C109.399 153.494 110.528 154.904 111.725 156.362C113.399 158.373 114.944 160.252 116.202 161.898H116.55C115.292 160.179 113.708 158.232 111.987 156.16C110.79 154.711 109.661 153.314 108.687 152.003Z" fill="#F5F5F5"/>
<path d="M102.557 145.872C102.665 146.213 102.8 146.545 102.961 146.865C103.24 147.501 103.643 148.417 104.12 149.556C105.357 152.526 106.436 155.559 107.351 158.644C107.686 159.852 108.043 161.025 108.463 162.113H108.807C108.377 161.008 108.025 159.813 107.673 158.554C106.762 155.454 105.648 152.419 104.338 149.466C103.832 148.335 103.394 147.433 103.081 146.814C102.932 146.486 102.757 146.171 102.557 145.872Z" fill="#F5F5F5"/>
<path d="M103.399 144.845C103.526 145.183 103.679 145.511 103.858 145.825C104.176 146.448 104.643 147.342 105.231 148.443C106.412 150.64 108.064 153.67 110.077 156.907C111.245 158.79 112.416 160.514 113.511 162.023H113.871C112.781 160.471 111.579 158.687 110.378 156.74C108.369 153.511 106.686 150.506 105.455 148.34L103.987 145.76C103.816 145.439 103.619 145.133 103.399 144.845Z" fill="#F5F5F5"/>
<path d="M122.168 159.538C121.32 157.53 120.024 155.745 118.378 154.319C116.905 153.04 115.325 151.89 113.657 150.88C112.116 149.904 110.652 149.018 109.408 148.12C107.413 146.704 105.6 145.048 104.008 143.189C103.446 142.532 103.03 141.998 102.755 141.637L102.437 141.207C102.406 141.158 102.367 141.113 102.322 141.074C102.345 141.129 102.375 141.181 102.412 141.229L102.699 141.659C102.961 142.037 103.356 142.583 103.91 143.258C105.472 145.162 107.274 146.855 109.27 148.296C110.528 149.212 111.974 150.115 113.507 151.099C115.156 152.112 116.717 153.262 118.172 154.538C119.781 155.937 121.048 157.687 121.876 159.654C122.123 160.239 122.314 160.846 122.447 161.468L122.782 161.433C122.636 160.784 122.43 160.149 122.168 159.538Z" fill="#F5F5F5"/>
<path d="M121.383 160.957C120.823 159.54 120.05 158.218 119.091 157.036C117.909 155.601 116.57 154.303 115.099 153.167C113.558 151.942 112.017 150.885 110.644 149.892C109.27 148.899 108.069 147.97 107.09 147.136C106.324 146.478 105.596 145.776 104.91 145.034C104.673 144.746 104.419 144.472 104.15 144.213C104.188 144.303 104.241 144.388 104.305 144.462C104.412 144.617 104.584 144.841 104.811 145.12C105.464 145.901 106.172 146.634 106.931 147.312C108.059 148.314 109.237 149.258 110.459 150.141C111.829 151.151 113.361 152.217 114.889 153.43C116.34 154.549 117.668 155.82 118.85 157.221C119.802 158.37 120.581 159.654 121.16 161.03C121.237 161.215 121.301 161.395 121.366 161.572L121.589 161.55C121.537 161.365 121.477 161.167 121.383 160.957Z" fill="#F5F5F5"/>
<path d="M110.142 158.966C108.493 155.957 107.107 153.154 106.124 151.121L104.965 148.713C104.838 148.414 104.686 148.127 104.51 147.854C104.595 148.171 104.707 148.48 104.845 148.778C105.086 149.362 105.442 150.201 105.905 151.232C106.837 153.292 108.193 156.107 109.841 159.138C110.403 160.165 110.957 161.15 111.494 162.078H111.863C111.309 161.085 110.73 160.049 110.142 158.966Z" fill="#F5F5F5"/>
<path d="M113.571 155.105C111.259 152.826 109.073 150.422 107.021 147.905C106.236 146.938 105.618 146.142 105.184 145.592C104.977 145.288 104.746 145 104.493 144.732C104.664 145.053 104.861 145.36 105.081 145.648C105.481 146.224 106.069 147.045 106.837 148.034C108.838 150.612 111.009 153.054 113.335 155.342C114.691 156.687 116.069 157.874 117.224 159.039C118.06 159.861 118.814 160.762 119.477 161.73H119.76C119.098 160.683 118.322 159.713 117.447 158.837C116.288 157.633 114.919 156.442 113.571 155.105Z" fill="#F5F5F5"/>
<path d="M106.523 161.026C105.952 159.306 105.566 157.638 105.206 156.129C104.51 153.12 103.862 150.657 103.171 149.053C102.848 148.21 102.435 147.405 101.939 146.65C101.939 146.65 101.939 146.711 102.008 146.814L102.248 147.278C102.45 147.686 102.742 148.293 103.051 149.101C103.699 150.713 104.309 153.15 104.97 156.185C105.321 157.698 105.695 159.362 106.257 161.112C106.369 161.443 106.493 161.778 106.618 162.118H106.927C106.789 161.752 106.648 161.382 106.523 161.026Z" fill="#F5F5F5"/>
<path d="M123.82 155.832C123.854 155.827 123.889 155.827 123.923 155.832C124.023 155.827 124.124 155.827 124.224 155.832C124.485 155.854 124.872 155.896 125.365 155.965C126.763 156.158 128.142 156.464 129.49 156.881C129.933 157.038 130.364 157.229 130.778 157.453C131.01 157.575 131.211 157.748 131.366 157.96C131.443 158.079 131.494 158.214 131.514 158.355C131.535 158.496 131.525 158.64 131.486 158.777C131.439 158.914 131.365 159.04 131.27 159.148C131.174 159.257 131.058 159.345 130.928 159.409C130.693 159.563 130.445 159.696 130.185 159.804C129.654 160.032 129.108 160.223 128.55 160.376C126.078 161.049 123.559 161.534 121.013 161.825C116.391 162.318 111.737 162.447 107.094 162.211C105.313 162.143 103.875 162.057 102.879 161.997L101.733 161.915L101.437 161.889C101.403 161.896 101.368 161.896 101.334 161.889H101.738L102.883 161.928L107.098 162.07C111.732 162.263 116.374 162.12 120.987 161.64C123.521 161.347 126.03 160.87 128.494 160.213C129.044 160.063 129.583 159.877 130.108 159.658C130.358 159.557 130.598 159.431 130.825 159.284C131.047 159.179 131.22 158.993 131.31 158.764C131.343 158.652 131.352 158.534 131.336 158.418C131.319 158.302 131.278 158.192 131.215 158.093C131.077 157.903 130.898 157.746 130.692 157.633C130.287 157.413 129.867 157.223 129.434 157.066C128.097 156.638 126.73 156.31 125.344 156.086C124.855 156.004 124.485 155.944 124.215 155.909C123.945 155.875 123.82 155.841 123.82 155.832Z" fill="#263238"/>
<path d="M125.902 150.549C125.941 150.6 125.142 151.224 124.228 152.071C123.314 152.917 122.632 153.665 122.58 153.622C123.456 152.373 124.589 151.325 125.902 150.549Z" fill="#EB996E"/>
<path d="M125.713 153.938C125.272 153.77 124.807 153.673 124.335 153.649C123.864 153.693 123.402 153.809 122.966 153.994C122.966 153.972 123.061 153.843 123.301 153.705C123.614 153.527 123.967 153.431 124.327 153.425C124.689 153.417 125.047 153.498 125.37 153.662C125.614 153.791 125.73 153.916 125.713 153.938Z" fill="#EB996E"/>
<path d="M47.8552 65.209C47.6063 65.4067 33.9961 71.5282 33.9961 71.5282C33.9961 71.5282 37.7431 79.4983 45.0139 75.9474C51.6537 72.7061 47.8552 65.209 47.8552 65.209Z" fill="#455A64"/>
<path d="M47.705 21.1846C48.0097 21.1846 48.263 31.7683 48.263 44.8281C48.263 57.8879 48.0097 68.4715 47.705 68.4715C47.4003 68.4715 47.1427 57.8922 47.1427 44.8281C47.1427 31.764 47.396 21.1846 47.705 21.1846Z" fill="#455A64"/>
<path d="M38.0179 53.1113C37.769 53.3091 24.1588 59.4306 24.1588 59.4306C24.1588 59.4306 27.9058 67.4006 35.1809 63.8498C41.8207 60.6085 38.0179 53.1113 38.0179 53.1113Z" fill="#455A64"/>
<path d="M37.8678 20.3848C38.1768 20.3848 38.4258 28.4407 38.4258 38.3753C38.4258 48.3099 38.1768 56.3659 37.8678 56.3659C37.5588 56.3659 37.3098 48.3099 37.3098 38.3753C37.3098 28.4407 37.5588 20.3848 37.8678 20.3848Z" fill="#455A64"/>
<path d="M26.0988 41.1826C25.8456 41.3761 12.2355 47.4976 12.2355 47.4976C12.2355 47.4976 15.9867 55.4676 23.2575 51.9168C29.9059 48.6669 26.0988 41.1826 26.0988 41.1826Z" fill="#455A64"/>
<path d="M25.9527 21.584C26.2617 21.584 26.5107 26.6953 26.5107 32.9973C26.5107 39.2994 26.2617 44.415 25.9527 44.415C25.6437 44.415 25.3947 39.3037 25.3947 32.9973C25.3947 26.691 25.6437 21.584 25.9527 21.584Z" fill="#455A64"/>
<path d="M63.8947 67.3798C71.575 67.3798 77.8011 61.1439 77.8011 53.4516C77.8011 45.7593 71.575 39.5234 63.8947 39.5234C56.2145 39.5234 49.9884 45.7593 49.9884 53.4516C49.9884 61.1439 56.2145 67.3798 63.8947 67.3798Z" fill="#455A64"/>
<path d="M63.3755 41.0831L62.2853 23.1699H67.4101L65.9894 41.0831H63.3755Z" fill="#455A64"/>
<path d="M69.7446 63.2228L69.6545 63.2873L69.3712 63.4506C69.2467 63.5194 69.0965 63.6183 68.9077 63.7086L68.2467 64.0052C66.8134 64.5863 65.2773 64.87 63.7314 64.8392C61.4308 64.8 59.1923 64.0855 57.2933 62.7843C56.1759 62.0068 55.221 61.0182 54.482 59.874C52.881 57.4016 52.2496 54.4235 52.7094 51.5128C52.9171 50.167 53.3851 48.8747 54.0871 47.7084C55.2968 45.7404 57.0562 44.1711 59.1475 43.1946C60.5473 42.5359 62.0656 42.1674 63.6112 42.1113H64.298C64.5083 42.1113 64.6843 42.1457 64.8259 42.1543L65.1478 42.193C65.1849 42.1886 65.2223 42.1886 65.2594 42.193H65.1564H64.8302C64.6885 42.193 64.5126 42.1672 64.3023 42.1672H63.5855C62.0594 42.259 60.5654 42.6459 59.1861 43.3064C57.1383 44.295 55.4219 45.8588 54.2459 47.8073C53.5603 48.9533 53.104 50.2222 52.9025 51.5429C52.4605 54.4004 53.0822 57.3209 54.6494 59.7494C55.3695 60.8728 56.3011 61.8453 57.392 62.6124C58.9581 63.6866 60.7597 64.3666 62.6441 64.5949C64.5285 64.8231 66.44 64.5928 68.2166 63.9235L68.8776 63.6441C69.0707 63.5581 69.221 63.4721 69.3497 63.4077L69.6416 63.2615L69.7446 63.2228Z" fill="#263238"/>
<path d="M8.14072 0L13.0637 17.8401H33.9189L38.8462 0H8.14072Z" fill="#455A64"/>
<path d="M37.8678 3.52987C37.8678 3.59443 31.4297 3.64607 23.4936 3.64607C15.5576 3.64607 9.11949 3.59873 9.11949 3.52987C9.11949 3.46101 15.5576 3.41797 23.4936 3.41797C31.4297 3.41797 37.8678 3.47392 37.8678 3.52987Z" fill="#263238"/>
<path d="M41.692 4.60006H37.3999L38.0866 2.73438H41.6705C41.9175 2.73437 42.1544 2.83266 42.3291 3.0076C42.5038 3.18254 42.6019 3.41981 42.6019 3.66722C42.602 3.91094 42.5068 4.14501 42.3367 4.31935C42.1667 4.49369 41.9352 4.59445 41.692 4.60006Z" fill="#263238"/>
<path d="M5.26077 4.60006H9.53138L8.84894 2.73438H5.26077C5.01375 2.73437 4.77685 2.83266 4.60219 3.0076C4.42752 3.18254 4.32939 3.41981 4.32939 3.66722C4.32939 3.91462 4.42752 4.1519 4.60219 4.32684C4.77685 4.50178 5.01375 4.60006 5.26077 4.60006Z" fill="#263238"/>
<path d="M80.7582 17.5996H2.87006V23.1752H80.7582V17.5996Z" fill="#E12E57"/>
<path d="M181.523 96.9939C180.95 96.7702 180.313 96.7831 179.749 97.0297C179.186 97.2762 178.744 97.7364 178.519 98.3093L175.063 107.582L179.355 109.164L182.841 99.9815C183.058 99.4101 183.042 98.7758 182.795 98.2163C182.548 97.6569 182.091 97.2176 181.523 96.9939Z" fill="#E12E57"/>
<path d="M181.429 99.9262C181.429 100.122 181.371 100.313 181.262 100.476C181.153 100.639 180.999 100.765 180.818 100.84C180.638 100.915 180.439 100.934 180.247 100.896C180.056 100.857 179.88 100.763 179.742 100.624C179.604 100.485 179.51 100.309 179.473 100.116C179.435 99.9244 179.455 99.7255 179.531 99.5449C179.606 99.3643 179.733 99.2102 179.896 99.102C180.059 98.9939 180.25 98.9367 180.446 98.9375C180.575 98.9369 180.704 98.9621 180.823 99.0117C180.943 99.0612 181.052 99.1341 181.143 99.2261C181.235 99.3181 181.307 99.4273 181.356 99.5475C181.405 99.6677 181.43 99.7964 181.429 99.9262Z" fill="#FAFAFA"/>
<path d="M178.983 106.004C178.983 106.2 178.926 106.391 178.818 106.554C178.71 106.718 178.556 106.845 178.376 106.92C178.196 106.996 177.997 107.016 177.805 106.979C177.614 106.941 177.437 106.847 177.299 106.709C177.16 106.571 177.066 106.395 177.028 106.203C176.989 106.011 177.008 105.812 177.083 105.631C177.158 105.45 177.284 105.295 177.447 105.186C177.609 105.078 177.8 105.02 177.995 105.02C178.257 105.02 178.507 105.123 178.692 105.308C178.877 105.492 178.981 105.742 178.983 106.004Z" fill="#FAFAFA"/>
<path d="M175.072 107.582L168.415 124.975L176.609 124.872L183.291 110.501L175.072 107.582Z" fill="#E0E0E0"/>
<path d="M181.261 124.975H158.299V151.425H181.261V124.975Z" fill="#E12E57"/>
<path d="M181.261 131.561C181.261 131.626 176.111 131.677 169.78 131.677C163.449 131.677 158.294 131.634 158.294 131.561C158.294 131.488 163.445 131.449 169.776 131.449C176.107 131.449 181.261 131.501 181.261 131.561Z" fill="white"/>
<path d="M181.261 134.411C181.261 134.471 176.111 134.523 169.78 134.523C163.449 134.523 158.294 134.471 158.294 134.411C158.294 134.35 163.445 134.299 169.776 134.299C176.107 134.299 181.261 134.346 181.261 134.411Z" fill="white"/>
<path d="M181.261 137.256C181.261 137.321 176.111 137.368 169.78 137.368C163.449 137.368 158.299 137.321 158.299 137.256C158.299 137.192 163.449 137.145 169.78 137.145C176.111 137.145 181.261 137.196 181.261 137.256Z" fill="white"/>
<path d="M181.261 140.107C181.261 140.167 176.111 140.219 169.78 140.219C163.449 140.219 158.299 140.167 158.299 140.107C158.299 140.047 163.449 139.995 169.78 139.995C176.111 139.995 181.261 140.042 181.261 140.107Z" fill="white"/>
<path d="M181.261 142.953C181.261 143.013 176.111 143.065 169.78 143.065C163.449 143.065 158.299 143.013 158.299 142.953C158.299 142.892 163.449 142.841 169.78 142.841C176.111 142.841 181.261 142.892 181.261 142.953Z" fill="white"/>
<path d="M181.261 145.82C181.261 145.884 176.111 145.932 169.78 145.932C163.449 145.932 158.294 145.863 158.294 145.82C158.294 145.777 163.445 145.708 169.776 145.708C176.107 145.708 181.261 145.738 181.261 145.82Z" fill="white"/>
<path d="M144.804 110.415L160.157 111.644C160.157 111.644 160.586 104.177 153.401 103.386C146.216 102.595 144.804 110.415 144.804 110.415Z" fill="#455A64"/>
<path d="M164.368 124.975C164.076 125.074 162.479 121.243 160.805 116.416C159.131 111.588 158.007 107.586 158.299 107.487C158.591 107.388 160.183 111.219 161.861 116.046C163.539 120.874 164.659 124.872 164.368 124.975Z" fill="#455A64"/>
<path d="M165.286 175.628C165.187 175.661 165.085 175.684 164.982 175.697L164.102 175.843L163.467 175.942C163.231 175.972 162.977 175.989 162.703 176.02C162.153 176.067 161.531 176.149 160.84 176.157L159.754 176.191C159.376 176.191 158.981 176.191 158.574 176.191C157.758 176.191 156.891 176.11 155.998 176.037C152.024 175.652 148.144 174.593 144.526 172.903C143.706 172.499 142.916 172.125 142.212 171.708C141.86 171.506 141.513 171.321 141.191 171.119L140.268 170.513C139.676 170.152 139.182 169.76 138.736 169.442C138.513 169.279 138.307 169.133 138.118 168.987L137.62 168.557L136.937 167.985C136.856 167.921 136.78 167.851 136.71 167.774C136.803 167.822 136.889 167.881 136.967 167.951L137.676 168.488L138.182 168.884C138.371 169.025 138.581 169.167 138.809 169.313C139.259 169.623 139.757 170.001 140.354 170.354L141.272 170.925C141.594 171.123 141.942 171.299 142.294 171.497C142.998 171.906 143.783 172.271 144.603 172.671C146.41 173.485 148.275 174.164 150.183 174.7C152.093 175.21 154.038 175.575 156.003 175.792C156.908 175.869 157.771 175.959 158.578 175.964C158.986 175.964 159.376 176.002 159.75 175.994L160.836 175.972C161.522 175.972 162.145 175.903 162.694 175.869C162.964 175.869 163.222 175.835 163.454 175.809L164.089 175.732L164.973 175.624C165.078 175.618 165.182 175.619 165.286 175.628Z" fill="#455A64"/>
<path d="M147.01 173.935C143.791 173.505 139.585 174.752 137.173 176.944C140.594 176.484 143.916 175.467 147.01 173.935Z" fill="#455A64"/>
<path d="M147.174 173.973C148.354 170.938 146.611 166.665 146.611 166.665C146.272 166.089 146.423 170.607 147.174 173.973Z" fill="#455A64"/>
<path d="M142.092 171.566C142.95 169.339 141.701 166.21 141.701 166.21C141.461 165.78 141.56 169.103 142.092 171.566Z" fill="#455A64"/>
<path d="M151.723 175.052C152.582 172.826 151.333 169.696 151.333 169.696C151.088 169.266 151.187 172.589 151.723 175.052Z" fill="#455A64"/>
<path d="M142.191 171.613C139.791 171.295 136.662 172.223 134.873 173.848C137.417 173.507 139.889 172.752 142.191 171.613Z" fill="#455A64"/>
<path d="M152.213 175.392C148.809 175.439 144.646 177.373 142.478 180C145.952 179.005 149.24 177.449 152.213 175.392Z" fill="#455A64"/>
<path d="M165.183 159.112C164.489 158.069 163.526 157.232 162.396 156.692C161.265 156.152 160.01 155.929 158.764 156.046C157.517 156.163 156.325 156.615 155.314 157.356C154.304 158.096 153.512 159.097 153.024 160.252C152.244 162.229 152.28 164.435 153.122 166.386C153.977 168.315 155.369 169.957 157.131 171.115C161.668 174.21 168.248 174.068 172.462 170.547C174.029 169.258 175.287 167.456 175.574 165.436C175.741 164.261 175.576 163.062 175.099 161.975C174.621 160.889 173.85 159.957 172.872 159.287C171.894 158.616 170.748 158.232 169.564 158.18C168.379 158.127 167.204 158.407 166.17 158.988" fill="#E12E57"/>
<path d="M165.2 159.104C165.05 158.551 164.708 158.07 164.237 157.745C163.765 157.421 163.194 157.275 162.625 157.333L164.144 159.142C163.731 159.199 163.341 159.365 163.013 159.622C162.685 159.88 162.431 160.22 162.277 160.608C162.209 160.793 162.187 161.038 162.363 161.15C162.425 161.171 162.491 161.177 162.557 161.17C162.622 161.163 162.685 161.141 162.741 161.107L164.586 160.342C164.713 161.373 165.09 162.358 165.685 163.209C166.107 162.304 166.344 161.323 166.381 160.325L168.419 161.227C168.258 160.64 167.925 160.114 167.462 159.719C168.07 159.603 168.652 159.377 169.179 159.052C169.338 158.953 169.509 158.786 169.441 158.622C169.372 158.459 169.218 158.455 169.076 158.442C167.729 158.314 166.376 158.596 165.192 159.25" fill="#455A64"/>
<path d="M165.067 159.869C165.383 157.803 165.21 155.691 164.561 153.705C165.046 153.597 165.642 153.524 165.96 153.911C166.117 154.155 166.19 154.443 166.166 154.732C166.189 156.688 165.819 158.628 165.076 160.437" fill="#455A64"/>
<path d="M155.17 167.267C155.049 167.177 154.942 167.07 154.852 166.949C154.588 166.632 154.359 166.288 154.17 165.921C153.525 164.703 153.297 163.306 153.522 161.945C153.747 160.584 154.412 159.335 155.414 158.39C155.71 158.103 156.037 157.851 156.389 157.638C156.514 157.554 156.65 157.486 156.792 157.436C156.349 157.764 155.926 158.12 155.526 158.502C154.583 159.446 153.958 160.662 153.74 161.98C153.523 163.297 153.722 164.65 154.311 165.848C154.567 166.339 154.854 166.813 155.17 167.267Z" fill="white"/>
<path d="M157.217 168.815C157.195 168.871 156.873 168.815 156.547 168.57C156.221 168.325 156.054 168.053 156.118 168.015C156.182 167.976 156.397 168.174 156.693 168.389C156.989 168.604 157.238 168.755 157.217 168.815Z" fill="white"/>
<path d="M70.9634 135.525C70.7746 135.568 72.1609 142.54 72.1609 142.54H75.7062L77.2728 135.804C75.2401 135.106 73.0497 135.009 70.9634 135.525Z" fill="#455A64"/>
<path d="M68.8265 174.778C68.8265 174.778 63.6074 160.136 64.337 156.164C65.0667 152.192 66.6333 151.353 67.8866 150.098C69.1399 148.843 70.1828 147.798 70.4962 146.543C70.8095 145.288 70.4962 140.271 70.4962 140.271C70.4962 140.271 69.5562 138.805 69.8695 138.285C70.1828 137.765 77.9086 138.285 77.9086 138.285C77.8647 138.923 77.6481 139.537 77.2819 140.06C77.2819 140.06 77.0759 145.915 77.3892 146.543C77.7025 147.171 82.5054 152.505 83.235 155.222C83.9647 157.939 80.3507 174.778 80.3507 174.778H68.8265Z" fill="#F5F5F5"/>
<path d="M68.8262 174.777H69.0279H69.6159H71.8821L80.3504 174.738L80.2817 174.794C80.7109 172.666 81.2045 170.254 81.6938 167.602C82.1831 164.95 82.6938 162.052 83.0501 158.944C83.1316 158.166 83.2046 157.379 83.2218 156.576C83.2958 155.771 83.1237 154.963 82.7282 154.259C81.9299 152.769 80.9975 151.356 79.9426 150.037C79.419 149.349 78.8696 148.666 78.3159 147.978C78.0412 147.63 77.7623 147.286 77.4919 146.925C77.4192 146.831 77.3518 146.734 77.2901 146.632C77.2468 146.518 77.218 146.398 77.2043 146.276C77.1717 146.049 77.1516 145.821 77.1442 145.592C77.0626 143.782 77.1184 141.951 77.1699 140.09V140.06V140.034C77.2472 139.905 77.333 139.767 77.406 139.604C77.6149 139.203 77.7404 138.765 77.7751 138.314L77.8781 138.422C76.1184 138.31 74.3758 138.224 72.6719 138.194C71.8365 138.164 71 138.197 70.1696 138.293C70.0913 138.306 70.0159 138.332 69.9464 138.37C69.9086 138.44 69.8907 138.519 69.8949 138.598C69.9073 138.793 69.9508 138.984 70.0236 139.165C70.171 139.539 70.352 139.899 70.5645 140.24V140.266V140.292C70.6417 141.629 70.6975 142.944 70.7018 144.238C70.7119 144.882 70.6876 145.527 70.6288 146.168C70.5484 146.809 70.3078 147.42 69.9292 147.944C69.5739 148.449 69.1761 148.924 68.7403 149.362C68.3111 149.792 67.8819 150.222 67.4527 150.63C67.0155 151.012 66.6026 151.422 66.2166 151.855C65.8533 152.284 65.5447 152.756 65.2981 153.261C64.8388 154.241 64.5223 155.282 64.3581 156.352C64.3045 156.864 64.3045 157.379 64.3581 157.891C64.3925 158.394 64.4611 158.893 64.5298 159.378C64.8324 161.168 65.2249 162.942 65.7058 164.692C66.5642 167.89 67.3712 170.409 67.9248 172.142C68.2081 173.001 68.427 173.659 68.5772 174.119C68.6502 174.338 68.7017 174.51 68.7446 174.631C68.7875 174.751 68.7961 174.807 68.7961 174.807C68.7692 174.753 68.7463 174.697 68.7274 174.639L68.5386 174.132C68.3798 173.702 68.148 173.023 67.8562 172.163C67.2767 170.444 66.4441 167.929 65.5685 164.726C65.1393 163.127 64.6886 161.356 64.3667 159.404C64.2937 158.914 64.2251 158.415 64.1864 157.9C64.1286 157.377 64.1286 156.849 64.1864 156.326C64.3505 155.237 64.6699 154.177 65.135 153.18C65.3871 152.659 65.7029 152.173 66.0749 151.731C66.4641 151.29 66.8813 150.875 67.3239 150.488C67.7531 150.089 68.1824 149.659 68.5901 149.225C69.018 148.793 69.4086 148.325 69.7575 147.827C70.116 147.33 70.3434 146.751 70.4185 146.142C70.474 145.509 70.4969 144.874 70.4872 144.238C70.4872 142.948 70.4228 141.637 70.3456 140.305V140.356C70.1203 140.003 69.9306 139.629 69.779 139.238C69.6998 139.033 69.652 138.817 69.6374 138.598C69.6299 138.47 69.6645 138.343 69.7361 138.237C69.8329 138.149 69.9543 138.094 70.0837 138.078C70.931 137.977 71.7849 137.942 72.6375 137.975C74.3543 138 76.0712 138.086 77.8567 138.202H78.0326V138.31C77.9998 138.799 77.8669 139.276 77.6421 139.711C77.5655 139.859 77.4809 140.003 77.3888 140.141V140.085C77.3373 141.938 77.2815 143.774 77.3588 145.566C77.3678 145.788 77.3878 146.009 77.4189 146.228C77.4298 146.328 77.4514 146.426 77.4833 146.521C77.5391 146.607 77.5949 146.693 77.6635 146.783C77.9253 147.135 78.2086 147.479 78.4833 147.823C79.037 148.515 79.5864 149.199 80.11 149.891C81.1737 151.223 82.1119 152.65 82.9127 154.155C83.3195 154.89 83.4974 155.73 83.4235 156.567C83.4235 157.379 83.3291 158.175 83.2432 158.953C82.8827 162.069 82.3548 164.971 81.8655 167.619C81.3762 170.267 80.874 172.688 80.4147 174.811V174.871H80.3547L71.8521 174.833H69.5987H69.0236L68.8262 174.777Z" fill="#263238"/>
<path d="M79.3506 173.259C80.6732 168.366 81.5495 163.364 81.9687 158.312C82.016 157.736 82.016 157.07 81.5782 156.687C81.0459 156.223 80.2347 156.472 79.5609 156.687C77.5804 157.317 75.4722 157.429 73.4361 157.014C71.4575 156.584 69.4917 155.699 67.5002 156.03C67.2468 156.051 67.0002 156.123 66.7753 156.242C66.5504 156.361 66.3517 156.524 66.1911 156.722C65.8692 157.203 65.9465 157.835 66.0366 158.407C66.822 163.325 68.423 168.973 69.7235 173.259H79.3506Z" fill="#E12E57"/>
<path d="M80.6595 157.294C80.5518 157.445 80.4265 157.582 80.2861 157.703C79.918 158.052 79.5218 158.369 79.1015 158.653C77.7153 159.609 76.12 160.218 74.4499 160.428C72.7799 160.638 71.0838 160.444 69.5044 159.861C69.027 159.691 68.5647 159.481 68.1224 159.233C67.9549 159.153 67.799 159.05 67.6588 158.928C67.6588 158.889 68.3542 159.311 69.5559 159.715C71.1179 160.241 72.7782 160.407 74.4131 160.201C76.0481 159.994 77.6155 159.421 78.9985 158.524C80.0801 157.858 80.6295 157.26 80.6595 157.294Z" fill="white"/>
</svg>
