<svg width="24" height="24" viewBox="0 0 24 24" fill="none" xmlns="http://www.w3.org/2000/svg">
<g clip-path="url(#clip0_269_616)">
<path d="M15.8881 18.5381V12.3579H6.26274V18.5381H15.8881Z" fill="#A0A0A0"/>
<path d="M10.3743 4.08891V5.97117C10.3081 5.97117 10.2523 5.97117 10.197 5.97117C9.97163 5.97405 9.7565 6.06582 9.59841 6.22649C9.44033 6.38717 9.35207 6.60376 9.35285 6.82916C9.34537 7.28951 9.32753 7.74986 9.3609 8.20676C9.37817 8.43694 9.50016 8.65675 9.57381 8.8806C7.81009 8.93066 6.68626 9.84101 6.25525 11.6473H15.8651C15.7634 10.8501 15.3562 10.1235 14.7292 9.62061C14.0887 9.09235 13.3418 8.87255 12.4585 8.90074C12.7836 8.61302 12.8089 8.27755 12.7974 7.92595C12.7859 7.58932 12.7974 7.25153 12.7974 6.91432C12.7974 6.33313 12.4648 5.99361 11.8859 5.97002C11.8514 5.97002 11.8175 5.96543 11.7708 5.96198V4.15797C11.9711 4.01987 12.1449 3.89498 12.325 3.77989C12.3783 3.7484 12.4392 3.73209 12.5011 3.73271C13.5996 3.73271 14.6981 3.72524 15.7966 3.73732C15.9693 3.73732 16.1419 3.81672 16.3145 3.86966C16.5815 3.9531 16.8439 4.0492 17.1104 4.13322C17.4907 4.25348 17.8486 4.08315 17.9655 3.73041C18.0823 3.37766 17.9045 3.02607 17.527 2.89602C17.0256 2.72416 16.5226 2.5567 16.0182 2.39366C15.9226 2.36499 15.8233 2.35083 15.7235 2.35166C14.6751 2.34859 13.6268 2.34859 12.5788 2.35166C12.4538 2.35342 12.333 2.30684 12.2416 2.22162C12.1 2.10551 11.9276 2.03347 11.7455 2.01446C11.295 1.98626 10.8415 2.00006 10.3892 2.00639C9.98641 2.01215 9.70502 2.30274 9.69869 2.70555C9.69408 2.88508 9.69869 3.06464 9.69869 3.24418C9.69351 3.75862 9.86902 3.97957 10.3743 4.08891Z" fill="#A0A0A0"/>
<path d="M6.27999 19.2511C6.38296 20.0318 6.77644 20.745 7.38196 21.2485C7.94764 21.7361 8.67104 22.0019 9.41786 21.9966C10.5302 22.0012 11.6425 22.004 12.7554 21.9966C13.4899 21.9877 14.1987 21.725 14.7616 21.253C15.3244 20.781 15.7066 20.1288 15.8432 19.4071C15.8497 19.3557 15.8536 19.304 15.8547 19.2523L6.27999 19.2511Z" fill="#A0A0A0"/>
<path d="M16.9308 4.75636C16.5856 5.49811 16.2455 6.17425 15.9526 6.87111C15.7799 7.28485 15.9739 7.76995 16.3421 8.02659C16.5228 8.15244 16.7391 8.21705 16.9591 8.21094C17.1792 8.20483 17.3916 8.12833 17.565 7.99265C17.9327 7.70493 18.0771 7.22674 17.8866 6.79861C17.5914 6.13225 17.2703 5.47566 16.9308 4.75636Z" fill="#A0A0A0"/>
</g>
<defs>
<clipPath id="clip0_269_616">
<rect width="11.747" height="20" fill="white" transform="matrix(-1 0 0 1 18 2)"/>
</clipPath>
</defs>
</svg>
