<svg width="40" height="40" viewBox="0 0 40 40" fill="none" xmlns="http://www.w3.org/2000/svg">
<g clip-path="url(#clip0_3_1128)">
<path d="M26.4802 30.8968V20.5964H10.4379V30.8968H26.4802Z" fill="#E12E57"/>
<path d="M17.2905 6.81472V9.95182C17.1802 9.95182 17.0872 9.95182 16.9951 9.95182C16.6195 9.95662 16.2609 10.1096 15.9974 10.3774C15.734 10.6452 15.5869 11.0061 15.5882 11.3818C15.5757 12.1491 15.546 12.9163 15.6016 13.6778C15.6304 14.0614 15.8337 14.4278 15.9564 14.8009C13.0169 14.8843 11.1438 16.4016 10.4255 19.4121H26.4419C26.2724 18.0833 25.5937 16.8723 24.5487 16.0342C23.4813 15.1538 22.2364 14.7875 20.7642 14.8344C21.3061 14.3549 21.3483 13.7958 21.3291 13.2098C21.31 12.6487 21.3291 12.0858 21.3291 11.5237C21.3291 10.5551 20.7748 9.98922 19.81 9.9499C19.7524 9.9499 19.6958 9.94226 19.6182 9.93651V6.92982C19.9519 6.69965 20.2416 6.4915 20.5417 6.29969C20.6306 6.24721 20.732 6.22003 20.8352 6.22106C22.6661 6.22106 24.4969 6.2086 26.3278 6.22874C26.6155 6.22874 26.9032 6.36107 27.1909 6.44931C27.636 6.58837 28.0733 6.74854 28.5173 6.88857C29.1513 7.08901 29.7478 6.80513 29.9425 6.21722C30.1372 5.62931 29.8409 5.04332 29.2117 4.82657C28.376 4.54013 27.5378 4.26105 26.697 3.98931C26.5378 3.94153 26.3722 3.91793 26.206 3.9193C24.4586 3.91419 22.7115 3.91419 20.9647 3.9193C20.7564 3.92224 20.555 3.8446 20.4027 3.70257C20.1668 3.50905 19.8794 3.38899 19.576 3.3573C18.825 3.31031 18.0693 3.33331 17.3154 3.34386C16.6441 3.35345 16.1751 3.83777 16.1646 4.50912C16.1569 4.80835 16.1646 5.10761 16.1646 5.40684C16.1559 6.26424 16.4484 6.6325 17.2905 6.81472Z" fill="#E12E57"/>
<path d="M10.4666 32.0852C10.6383 33.3864 11.2941 34.575 12.3033 35.4141C13.2461 36.2268 14.4517 36.6698 15.6964 36.6609C17.5503 36.6686 19.4042 36.6734 21.259 36.6609C22.4832 36.6462 23.6645 36.2083 24.6026 35.4217C25.5407 34.635 26.1776 33.548 26.4054 32.3451C26.4162 32.2595 26.4226 32.1734 26.4246 32.0871L10.4666 32.0852Z" fill="#E12E57"/>
<path d="M28.2181 7.92725C27.6427 9.16348 27.0759 10.2904 26.5877 11.4518C26.3 12.1414 26.6232 12.9499 27.237 13.3776C27.5381 13.5874 27.8985 13.6951 28.2653 13.6849C28.6321 13.6747 28.986 13.5472 29.275 13.3211C29.8879 12.8415 30.1286 12.0445 29.8112 11.331C29.3191 10.2204 28.784 9.12608 28.2181 7.92725Z" fill="#E12E57"/>
</g>
<defs>
<clipPath id="clip0_3_1128">
<rect width="19.5784" height="33.3333" fill="white" transform="matrix(-1 0 0 1 30 3.33325)"/>
</clipPath>
</defs>
</svg>
