<svg width="24" height="24" viewBox="0 0 24 24" fill="none" xmlns="http://www.w3.org/2000/svg">
<g clip-path="url(#clip0_1530_2784)">
<path d="M8.23872 20.8922C7.46715 20.6779 7.1391 20.0579 6.90451 19.3609C6.53293 18.2527 6.54301 17.1355 6.84678 16.0113C6.98148 15.5128 7.08869 15.0067 7.2179 14.5067C7.43049 13.6823 7.40117 12.8588 7.22981 12.0325C7.15421 11.6688 7.07174 11.3061 6.99523 10.9424C6.93704 10.6655 7.0809 10.4583 7.35718 10.455C8.08294 10.4466 8.80854 10.4466 9.53399 10.455C9.80889 10.4583 9.94635 10.6655 9.89229 10.9457C9.78736 11.4694 9.67373 11.9918 9.57843 12.5175C9.42998 13.3321 9.57018 14.1248 9.7617 14.9161C9.9381 15.6435 10.1438 16.3708 10.2318 17.1103C10.3637 18.2228 10.0888 19.2704 9.50375 20.2232C9.30452 20.5549 8.98581 20.794 8.6158 20.8894L8.23872 20.8922Z" fill="#A0A0A0"/>
<path d="M5.88056 8.21618H5.67209C5.1406 8.21618 4.60911 8.22038 4.07763 8.21618C3.42106 8.20918 2.95876 7.73346 2.95738 7.06541C2.95463 6.09314 2.95463 5.12086 2.95738 4.14859C2.95967 3.48521 3.43298 3.00342 4.08542 3.00296C6.98722 3.00109 9.89022 3.00109 12.7945 3.00296C13.4574 3.00296 13.9289 3.48241 13.9307 4.15747C13.9335 5.12974 13.9335 6.10217 13.9307 7.07476C13.9285 7.73207 13.4648 8.20825 12.8183 8.21618C12.2868 8.22225 11.7553 8.21618 11.2238 8.21618H11.0076C11.0076 8.32402 11.0076 8.41972 11.0076 8.51542C11.0021 9.23809 10.5416 9.70867 9.83647 9.70961C8.91095 9.70961 7.98528 9.70961 7.05945 9.70961C6.34286 9.70961 5.88423 9.2395 5.88056 8.50609C5.88056 8.41972 5.88056 8.33289 5.88056 8.21618ZM8.44361 5.97954H4.92984C4.86136 5.97749 4.79283 5.98155 4.72504 5.99168C4.64231 6.00411 4.56665 6.04621 4.51164 6.11038C4.45664 6.17456 4.42589 6.25661 4.42493 6.34181C4.41959 6.4299 4.44653 6.51687 4.50054 6.58587C4.55454 6.65487 4.63178 6.70099 4.71725 6.71528C4.79039 6.72736 4.86449 6.73221 4.93854 6.72975H11.9487C12.0229 6.73222 12.0971 6.72737 12.1704 6.71528C12.2558 6.70089 12.3329 6.65473 12.3869 6.58574C12.4408 6.51675 12.4676 6.42983 12.4623 6.34181C12.4559 6.11259 12.2923 5.98 12.0087 5.97954C10.8208 5.97891 9.63334 5.97891 8.44636 5.97954H8.44361ZM8.43307 5.23726H11.9812C12.0384 5.23977 12.0956 5.23804 12.1526 5.23212C12.2412 5.21977 12.3221 5.17416 12.3795 5.10422C12.4368 5.03428 12.4665 4.94506 12.4627 4.85399C12.4626 4.7628 12.4281 4.67514 12.3664 4.60911C12.3047 4.54309 12.2204 4.50373 12.131 4.49919C12.0747 4.49405 12.0169 4.49546 11.9601 4.49546C9.61761 4.49546 7.27495 4.49546 4.93214 4.49546C4.86933 4.49374 4.80647 4.49529 4.74382 4.50012C4.6543 4.50751 4.57103 4.54977 4.5113 4.61811C4.45157 4.68644 4.41997 4.77561 4.42309 4.86706C4.42309 5.09395 4.58575 5.2368 4.8492 5.23726C6.04474 5.23758 7.23952 5.23773 8.43353 5.23773L8.43307 5.23726Z" fill="#A0A0A0"/>
<path d="M18.9905 15.079C19.1179 15.1267 19.2428 15.1814 19.3644 15.2429C19.5298 15.334 19.6878 15.4386 19.8367 15.5557C19.9398 15.6362 20.0226 15.7404 20.0784 15.8599C20.1341 15.9794 20.1612 16.1106 20.1575 16.2429C20.1543 17.1583 20.1575 18.0738 20.1575 18.9898C20.1575 19.3786 19.9742 19.6756 19.6993 19.9202C19.2457 20.3207 18.7037 20.5453 18.131 20.6881C16.3683 21.127 14.6121 21.119 12.872 20.5626C12.4526 20.4352 12.063 20.2226 11.7265 19.9374C11.4058 19.6573 11.2381 19.3208 11.2459 18.8782C11.2606 18.0239 11.2606 17.1691 11.2459 16.3138C11.2376 16.1518 11.2702 15.9902 11.3407 15.8447C11.4112 15.6992 11.5173 15.5746 11.6486 15.4829C11.7806 15.3834 11.9304 15.3073 12.0802 15.2158C12.1174 15.4124 12.1481 15.5753 12.1778 15.7293C12.0691 15.8077 11.9645 15.8918 11.8644 15.9814C11.7187 16.1252 11.7219 16.2531 11.8681 16.4016C12.0825 16.6168 12.3561 16.7284 12.6333 16.825C13.4717 17.1191 14.3414 17.2279 15.2224 17.2573C16.3587 17.2951 17.4863 17.2307 18.5809 16.8871C18.8484 16.8031 19.1018 16.6682 19.357 16.5468C19.4312 16.5057 19.4974 16.4511 19.5522 16.3857C19.6814 16.2457 19.6865 16.1192 19.5481 15.9898C19.4315 15.8885 19.306 15.7982 19.1733 15.72C19.1434 15.7061 19.1182 15.6835 19.1008 15.6551C19.0834 15.6268 19.0745 15.5938 19.0752 15.5604C19.0615 15.4077 19.0216 15.2569 18.9905 15.079Z" fill="#A0A0A0"/>
<path d="M13.5037 13.6435C13.7607 13.798 13.9921 13.9442 14.2304 14.0772C14.3825 14.1622 14.5318 14.1127 14.5969 13.9754C14.662 13.8382 14.6079 13.7112 14.4627 13.6206C14.2643 13.4969 14.0544 13.3872 13.8753 13.2383C13.4721 12.9045 13.3882 12.5012 13.604 12.0189C13.8143 11.5488 14.163 11.194 14.5511 10.8518C14.6633 11.5885 15.0267 12.1095 15.7034 12.362C16.0374 12.4872 16.3861 12.5735 16.7311 12.6655C16.9657 12.728 17.2067 12.7663 17.4436 12.8209C17.6095 12.8596 17.7654 12.9339 17.9009 13.0389C18.0365 13.1439 18.1485 13.2771 18.2295 13.4296C18.3105 13.5822 18.3586 13.7506 18.3707 13.9236C18.3827 14.0966 18.3585 14.2703 18.2994 14.4329C18.261 14.4147 18.2243 14.3933 18.1854 14.3788C17.8605 14.2574 17.5384 14.1286 17.2094 14.0203C17.0321 13.9619 16.8887 14.0511 16.8603 14.2023C16.8291 14.3606 16.9217 14.4624 17.099 14.5244C17.4161 14.636 17.7377 14.7443 18.0355 14.8979C18.2051 14.9852 18.3521 15.143 18.4717 15.2989C18.671 15.5585 18.5505 15.8647 18.233 15.9362C17.8747 16.0165 17.5146 16.0902 17.1531 16.1514C16.2546 16.3031 15.3506 16.3904 14.4393 16.3381C14.0927 16.3187 13.7479 16.2744 13.4075 16.2055C12.8146 16.0842 12.4989 15.5417 12.6409 14.9311C12.7688 14.3839 13.095 13.9759 13.5037 13.6435Z" fill="#A0A0A0"/>
<path d="M16.1145 9.27295C16.1575 9.61234 16.1777 9.91019 16.2363 10.2001C16.3028 10.5269 16.4934 10.7556 16.8081 10.885C17.2608 11.0717 17.4679 11.4592 17.5692 11.9199C17.598 12.0511 17.6182 12.1846 17.6516 12.37C17.0276 12.1972 16.4306 12.0684 15.8583 11.8653C14.9791 11.5535 14.7793 10.3714 15.484 9.75099C15.6856 9.57546 15.9074 9.42887 16.1145 9.27295Z" fill="#A0A0A0"/>
</g>
<defs>
<clipPath id="clip0_1530_2784">
<rect width="17.2" height="18" fill="white" transform="translate(2.95557 3)"/>
</clipPath>
</defs>
</svg>
