<svg width="24" height="24" viewBox="0 0 24 24" fill="none" xmlns="http://www.w3.org/2000/svg">
<g clip-path="url(#clip0_1530_244)">
<path d="M2 12.7886V11.7347C2.0144 11.6794 2.02571 11.6233 2.03389 11.5668C2.10032 10.789 2.29854 10.0283 2.62007 9.31701C3.59736 7.16843 5.25521 5.71867 7.37824 4.77997C9.60452 3.79642 11.9299 3.58782 14.3069 4.05665C16.6281 4.51505 18.6463 5.56221 20.1607 7.4104C22.1424 9.83068 22.5361 12.507 21.2668 15.3966C21.2032 15.5411 21.1234 15.5927 20.9617 15.5922C19.1531 15.5859 17.3451 15.588 15.5381 15.588H15.3233C15.3472 15.5041 15.3629 15.4436 15.3827 15.3841C15.6873 14.4658 15.9949 13.5485 16.2964 12.6296C16.4205 12.251 16.2301 11.9099 15.8651 11.8353C15.5704 11.7748 15.2977 11.9396 15.1908 12.2593C14.8815 13.1761 14.5775 14.0939 14.2688 15.0107C14.2052 15.1995 14.1822 15.4571 14.0477 15.5526C13.9131 15.648 13.6607 15.5859 13.4599 15.5875C13.17 15.5875 12.8795 15.5875 12.5781 15.5875V15.3461C12.5781 14.3962 12.5781 13.4466 12.5781 12.4971C12.5781 12.0914 12.334 11.8145 11.9857 11.8192C11.6373 11.8239 11.4078 12.0956 11.4073 12.4908C11.4073 13.4473 11.4073 14.4034 11.4073 15.3591V15.5849C10.9176 15.5849 10.4509 15.5886 9.98415 15.5797C9.94347 15.5797 9.88559 15.5067 9.86681 15.4561C9.78807 15.2433 9.72079 15.0259 9.64882 14.8105C9.36512 13.9604 9.08093 13.1107 8.79619 12.2614C8.68302 11.9261 8.39828 11.7618 8.08695 11.8411C7.74328 11.9287 7.56909 12.2583 7.68747 12.6233C7.91797 13.3263 8.15682 14.0272 8.38836 14.7296C8.48014 15.005 8.56933 15.2809 8.66373 15.5703C8.61953 15.5777 8.57496 15.5828 8.53022 15.5854C6.67003 15.5854 4.80985 15.5854 2.95018 15.5802C2.90928 15.5754 2.87009 15.561 2.83582 15.5382C2.80156 15.5153 2.77319 15.4847 2.75304 15.4488C2.55748 14.9341 2.35567 14.4199 2.20078 13.8921C2.09857 13.5375 2.06467 13.1584 2 12.7886Z" fill="#A0A0A0"/>
<path d="M3.2334 16.7705H20.725C20.725 17.6378 20.847 18.5092 20.2671 19.2675C19.5647 20.1853 18.2985 20.4612 17.2977 19.886C17.1799 19.8182 17.1027 19.8197 16.9848 19.886C16.2229 20.3006 15.4563 20.2943 14.6991 19.8719C14.6605 19.8449 14.6145 19.8305 14.5674 19.8305C14.5203 19.8305 14.4743 19.8449 14.4357 19.8719C13.6696 20.2969 12.8978 20.2959 12.1318 19.8719C12.0238 19.8124 11.9544 19.8197 11.8517 19.8761C11.0841 20.2933 10.3148 20.288 9.54407 19.8729C9.50681 19.8554 9.46627 19.846 9.4251 19.8453C9.38393 19.8445 9.34307 19.8525 9.30522 19.8688C8.52297 20.2943 7.74385 20.2933 6.95847 19.8688C6.92036 19.8531 6.87937 19.8458 6.83821 19.8471C6.79704 19.8485 6.75663 19.8585 6.71962 19.8766C5.32201 20.6505 3.62662 19.9063 3.31529 18.3418C3.21621 17.8396 3.25739 17.3092 3.2334 16.7705Z" fill="#A0A0A0"/>
</g>
<defs>
<clipPath id="clip0_1530_244">
<rect width="20" height="16.373" fill="white" transform="translate(2 3.8186)"/>
</clipPath>
</defs>
</svg>
