<svg width="20" height="20" viewBox="0 0 20 20" fill="none" xmlns="http://www.w3.org/2000/svg">
<path d="M10.0715 15.3825C9.12838 14.7334 8.45008 13.767 8.16033 12.6594C8.10949 12.556 8.08952 12.4402 8.10281 12.3257C8.11611 12.2112 8.1621 12.103 8.23528 12.0141L8.85983 11.0064L9.54684 9.90723C9.79666 9.49086 9.73004 9.44506 10.2338 9.49086C10.0215 9.93221 9.81748 10.3736 9.59264 10.8149C9.42609 11.1605 9.09716 11.5977 9.11798 11.9849C9.16378 12.9092 10.0465 13.9835 10.7002 14.5747C10.8792 14.7288 11.3789 15.2242 11.6162 15.2076C11.9243 15.1868 11.5787 14.9744 11.4871 14.8995C11.3289 14.7662 11.1707 14.6372 11.0249 14.4831C10.4629 13.9335 9.72171 12.9092 9.73421 12.0765C9.73421 11.6352 10.2672 11.0689 10.5003 10.6942L11.0416 9.81979C11.2539 9.48253 11.2331 9.54082 11.6828 9.51584C11.5412 9.80313 11.3997 10.0946 11.2664 10.3819C11.0566 10.7091 10.8861 11.0598 10.7585 11.427C10.6502 12.0265 11.2706 12.9509 11.612 13.4089C11.938 13.861 12.3378 14.2551 12.7945 14.5747C12.9194 14.6622 13.4857 15.066 13.315 14.683C13.24 14.5081 12.8361 14.3082 12.6863 14.1583C12.2723 13.7369 11.9418 13.2411 11.712 12.6969C11.5207 12.3535 11.4056 11.9729 11.3747 11.581C11.4915 11.3097 11.6457 11.056 11.8327 10.8274L12.5655 9.64908C12.7987 9.27018 13.0943 9.30349 13.4857 9.07865C13.7245 8.93403 13.9312 8.74202 14.0929 8.51447C14.2547 8.28691 14.3682 8.02863 14.4263 7.75555C14.4844 7.48247 14.486 7.20038 14.4309 6.92667C14.3758 6.65295 14.2653 6.39342 14.1061 6.16408C13.2733 5.0149 11.4163 5.09817 10.1797 5.20643C8.30502 5.40546 6.45611 5.79896 4.66284 6.38059C5.02092 4.57771 6.01187 2.8706 7.66069 1.97541C9.41777 1.02193 11.5371 1.1052 13.4357 1.50491C13.7313 1.56737 14.027 1.63815 14.3184 1.71726C14.4558 1.75473 15.1512 2.02537 15.072 1.77972C14.9929 1.53406 13.5273 1.32171 13.2775 1.27175C11.3872 0.880361 9.29702 0.83456 7.54827 1.73808C6.94432 2.05833 6.40052 2.48097 5.94109 2.98718C5.50821 3.48704 5.15181 4.04829 4.88351 4.65266C4.73732 4.97405 4.6135 5.30516 4.51295 5.64361C4.45882 5.81849 4.41302 5.99336 4.37138 6.16824C4.3006 6.48468 4.30893 6.49717 3.99665 6.58461C4.02163 4.45697 4.9543 2.30434 6.82379 1.19264C8.75574 0.0517879 11.1623 0.0767701 13.3316 0.418192C13.4024 0.418192 13.8021 0.530612 13.6939 0.322427C13.6481 0.230826 13.2775 0.226663 13.1901 0.214172C12.8403 0.139225 12.4906 0.0975885 12.1283 0.064279C11.1077 -0.0426667 10.0776 -0.0160725 9.06385 0.143389C6.80297 0.530612 4.96679 1.85466 4.13405 4.03227C3.90258 4.81915 3.73822 5.62423 3.64274 6.43888C3.64274 6.49717 3.66356 6.67204 3.64274 6.70952C3.62192 6.74699 3.30548 6.82194 3.22637 6.84692L2.55185 7.08009C2.47274 7.10923 1.93563 7.22998 2.00641 7.3882C2.07719 7.54642 3.01402 7.49645 3.1764 7.49645L4.51295 7.58389C4.22671 7.60428 3.94557 7.67035 3.68021 7.77958C3.50534 7.92115 3.58028 7.90033 3.75932 8.01275C4.05265 8.14327 4.36 8.23967 4.67533 8.30004C6.04032 8.72011 7.43114 9.05112 8.83901 9.291L7.90219 11.2438C7.73024 11.5153 7.59051 11.8059 7.48582 12.1098C7.47534 12.4094 7.54735 12.7061 7.694 12.9675C7.95396 13.611 8.3405 14.1958 8.83069 14.6871C9.0351 14.8945 9.2581 15.0826 9.49688 15.2492C9.60241 15.3325 9.71693 15.4037 9.8383 15.4616C9.88826 15.4699 10.2963 15.5407 10.0715 15.3825ZM7.19436 6.73034C7.19436 6.57684 7.25533 6.42963 7.36387 6.3211C7.47241 6.21256 7.61962 6.15158 7.77311 6.15158C7.92661 6.15158 8.07381 6.21256 8.18235 6.3211C8.29089 6.42963 8.35186 6.57684 8.35186 6.73034C8.35186 6.88383 8.29089 7.03104 8.18235 7.13957C8.07381 7.24811 7.92661 7.30909 7.77311 7.30909C7.61962 7.30909 7.47241 7.24811 7.36387 7.13957C7.25533 7.03104 7.19436 6.88383 7.19436 6.73034V6.73034Z" fill="#F2F2F7"/>
<path d="M12.8443 16.074C12.7916 16.0007 12.7599 15.9143 12.7527 15.8242L10.7042 16.124C10.5833 16.1308 10.466 16.167 10.3622 16.2294C10.2585 16.2918 10.1715 16.3785 10.1088 16.4821C10.0723 16.5657 10.0573 16.6572 10.0653 16.7482C10.0733 16.8391 10.104 16.9266 10.1546 17.0025C10.1625 17.0182 10.1754 17.0308 10.1912 17.0383C10.207 17.0458 10.2249 17.0479 10.242 17.0442L10.8791 16.9526L10.3919 17.1025C10.3777 17.107 10.3648 17.1152 10.3546 17.1261C10.3444 17.137 10.3372 17.1504 10.3336 17.1649C10.3277 17.1773 10.3247 17.1908 10.3247 17.2045C10.3247 17.2182 10.3277 17.2317 10.3336 17.244L10.8291 17.8145C10.8414 17.8282 10.8574 17.8379 10.8752 17.8423C10.8931 17.8468 10.9118 17.8458 10.929 17.8394L11.3454 17.6687L11.0248 17.8686C11.0135 17.875 11.0038 17.884 10.9966 17.8949C10.9893 17.9057 10.9847 17.9181 10.9832 17.931C10.9815 17.9436 10.9826 17.9564 10.9861 17.9686C10.9897 17.9808 10.9958 17.9921 11.004 18.0018L11.2955 18.3224C11.311 18.3377 11.3319 18.3462 11.3537 18.3462C11.3755 18.3462 11.3965 18.3377 11.412 18.3224L11.7326 18.0893L11.4537 18.3724C11.4384 18.388 11.4299 18.4089 11.4299 18.4307C11.4299 18.4525 11.4384 18.4734 11.4537 18.489L11.7784 18.8679C11.7962 18.8856 11.82 18.896 11.8451 18.897V18.897C11.8579 18.8967 11.8706 18.8936 11.8821 18.8878C11.8936 18.8821 11.9037 18.8738 11.9117 18.8637L12.1657 18.5639L11.9325 18.9511C11.9225 18.9666 11.9171 18.9847 11.9171 19.0032C11.9171 19.0217 11.9225 19.0397 11.9325 19.0552L12.4238 19.6257C12.4332 19.6371 12.4455 19.6459 12.4594 19.651C12.4733 19.6561 12.4883 19.6574 12.5029 19.6548C12.5174 19.6531 12.5312 19.6475 12.5429 19.6387C12.5546 19.63 12.5638 19.6183 12.5695 19.6048L12.7902 19.1552L12.607 19.7797C12.6025 19.7972 12.6033 19.8156 12.6092 19.8326C12.6151 19.8497 12.626 19.8646 12.6403 19.8755C12.7386 19.9541 12.8601 19.998 12.9859 20.0004C13.2441 20.0004 13.4606 19.7922 13.5688 19.4383L14.1767 17.4023C13.6711 17.0258 13.2224 16.5784 12.8443 16.074V16.074Z" fill="#F2F2F7"/>
<path d="M18.0783 10.7981C18.0782 10.7843 18.0742 10.7707 18.0669 10.7589C18.0595 10.7472 18.049 10.7377 18.0366 10.7315C18.0244 10.7253 18.0108 10.7221 17.9971 10.7221C17.9833 10.7221 17.9698 10.7253 17.9575 10.7315C17.6492 10.8585 17.3281 10.9521 16.9999 11.0105C17.3504 10.8674 17.6819 10.6814 17.9867 10.4567C18.0003 10.448 18.0112 10.4355 18.0178 10.4207C18.0245 10.4059 18.0267 10.3895 18.0241 10.3734C17.902 9.67715 17.64 9.01285 17.2538 8.42068C17.2468 8.40932 17.237 8.39992 17.2254 8.39336C17.2137 8.38681 17.2006 8.38332 17.1872 8.38321C17.1739 8.38126 17.1603 8.38293 17.1478 8.38806C17.1354 8.39319 17.1245 8.40158 17.1164 8.41235C16.8364 8.75486 16.5082 9.05499 16.1421 9.30338C16.4816 8.9473 16.7627 8.53978 16.9749 8.09591C16.9844 8.08253 16.9895 8.06653 16.9895 8.05011C16.9895 8.0337 16.9844 8.01769 16.9749 8.00431C16.3282 7.20417 15.51 6.55957 14.5808 6.11816C14.7893 6.50089 14.8941 6.93152 14.8847 7.36727C14.9052 7.87044 14.7587 8.36628 14.468 8.77749C14.1773 9.1887 13.7587 9.49219 13.2775 9.64064C13.9281 10.0486 14.4292 10.6563 14.7057 11.3727C15.2261 12.7967 14.664 14.4205 13.2026 15.7196C13.1887 15.7367 13.1812 15.758 13.1812 15.78C13.1812 15.802 13.1887 15.8233 13.2026 15.8404C13.5606 16.304 13.9809 16.7159 14.4517 17.0645C14.4693 17.0699 14.4882 17.0699 14.5058 17.0645C14.522 17.0699 14.5396 17.0699 14.5558 17.0645C15.1358 16.6751 15.6743 16.2272 16.163 15.7279C16.1798 15.7066 16.1886 15.6801 16.1879 15.653C16.1856 15.6403 16.1807 15.6283 16.1735 15.6175C16.1663 15.6068 16.1571 15.5976 16.1463 15.5905C16.0277 15.5201 15.9137 15.4422 15.8049 15.3574C15.9554 15.427 16.1097 15.4882 16.2671 15.5406C16.2831 15.5452 16.3002 15.5453 16.3163 15.5409C16.3325 15.5365 16.3471 15.5277 16.3587 15.5156C16.9258 14.8959 17.3822 14.1832 17.7077 13.4088C17.7146 13.3967 17.7183 13.3831 17.7183 13.3692C17.7183 13.3553 17.7146 13.3417 17.7077 13.3297C17.7008 13.3169 17.6906 13.3063 17.6781 13.2989C17.6656 13.2916 17.6514 13.2878 17.6369 13.288C17.3326 13.279 17.03 13.2399 16.7334 13.1714H16.7875C17.129 13.1709 17.4695 13.1346 17.8035 13.0632C17.818 13.0596 17.8313 13.0524 17.8423 13.0422C17.8532 13.032 17.8613 13.0191 17.8659 13.0049C18.0874 12.2917 18.1596 11.5405 18.0783 10.7981Z" fill="#F2F2F7"/>
</svg>
