<svg width="24" height="24" viewBox="0 0 24 24" fill="none" xmlns="http://www.w3.org/2000/svg">
<g clip-path="url(#clip0_1530_2493)">
<path d="M20.5342 15.5434C20.5164 16.7018 19.7515 17.6724 18.5821 17.9855C14.9482 18.9595 11.3129 19.9317 7.67617 20.9019C6.2537 21.2818 4.92253 20.5309 4.53639 19.1152C4.03544 17.2791 3.54321 15.4402 3.05966 13.5986C2.7017 12.2382 3.48545 10.9003 4.83956 10.5366C8.50444 9.55311 12.1698 8.57053 15.8358 7.58882C17.2181 7.21886 18.5607 7.97653 18.938 9.35621C19.4441 11.2045 19.9352 13.0574 20.4262 14.9104C20.4836 15.116 20.4997 15.332 20.5342 15.5434ZM8.98435 18.5041C9.24108 18.4697 9.50615 18.4608 9.75453 18.3956C11.6774 17.89 13.605 17.3989 15.5169 16.8531C17.3313 16.3355 18.3655 14.4246 17.875 12.5982C17.3887 10.786 15.5373 9.65626 13.7115 10.1123C11.7884 10.5924 9.87368 11.1041 7.96732 11.6475C6.30429 12.1203 5.28259 13.7948 5.53724 15.5288C5.78197 17.2027 7.27123 18.4801 8.98435 18.5041Z" fill="#A0A0A0"/>
<path d="M17.0292 4.44227C17.7075 4.17249 18.3765 4.17458 19.0397 4.47984C19.5961 4.7337 20.0397 5.18326 20.2861 5.74297C20.5325 6.30268 20.5646 6.93345 20.3761 7.51524C20.2566 7.88051 19.9284 8.0741 19.5934 7.97183C19.2391 7.86485 19.0716 7.53298 19.1811 7.1484C19.3512 6.54101 19.1676 6.01815 18.6724 5.70193C18.1772 5.38571 17.6287 5.4358 17.1591 5.82873C16.7281 6.18722 16.2198 6.01919 16.0836 5.47233C15.9119 4.78823 15.3734 4.31443 14.6998 4.2539C14.0183 4.19232 13.4109 4.56698 13.1182 5.22864C12.9423 5.62626 12.6344 5.75672 12.2311 5.59913C11.7411 5.40867 11.2918 5.47963 10.9077 5.83395C10.5237 6.18826 10.412 6.62815 10.5613 7.13274C10.6536 7.44583 10.5801 7.70674 10.3614 7.87059C10.1527 8.02713 9.87822 8.05636 9.66897 7.90503C9.54797 7.81978 9.45311 7.70251 9.39502 7.56637C8.75475 5.86317 10.256 4.01125 12.0605 4.26537C12.0985 4.26957 12.1371 4.26513 12.1732 4.25239C12.2093 4.23966 12.2421 4.21894 12.2692 4.1918C13.4913 2.50477 15.9547 2.64097 16.9963 4.39739C17.0061 4.41318 17.0171 4.42818 17.0292 4.44227Z" fill="#A0A0A0"/>
<path d="M5.81528 7.99902C5.23571 7.99945 4.67947 7.77072 4.26785 7.36272C3.85623 6.95471 3.62261 6.40051 3.61793 5.82096C3.61667 5.24123 3.84516 4.68463 4.25338 4.273C4.66159 3.86136 5.21625 3.62823 5.79597 3.62464C6.37569 3.62325 6.93235 3.85161 7.34408 4.25972C7.75582 4.66784 7.98909 5.22246 7.99281 5.80217C7.9942 6.3819 7.76586 6.93856 7.35774 7.35029C6.94963 7.76202 6.39499 7.99529 5.81528 7.99902ZM6.74255 5.81574C6.74258 5.56941 6.64584 5.33292 6.47318 5.15724C6.30052 4.98155 6.06575 4.88072 5.81946 4.87647C5.69567 4.87489 5.57279 4.89779 5.45788 4.94386C5.34298 4.98993 5.23832 5.05826 5.14991 5.14492C5.06151 5.23157 4.99112 5.33485 4.94277 5.44881C4.89442 5.56277 4.86908 5.68517 4.86819 5.80896C4.86819 5.93257 4.89259 6.05496 4.93999 6.16912C4.98739 6.28329 5.05684 6.38697 5.14439 6.47423C5.23194 6.56149 5.33587 6.63061 5.45019 6.67763C5.56451 6.72464 5.68698 6.74863 5.81059 6.74822C6.0569 6.74577 6.29237 6.64666 6.4663 6.47224C6.64023 6.29782 6.73869 6.06205 6.74046 5.81574H6.74255Z" fill="#A0A0A0"/>
<path d="M8.99794 17.2466C7.90839 17.2409 6.92791 16.4117 6.77867 15.3556C6.61169 14.1783 7.28587 13.1196 8.41612 12.8128C10.2414 12.3181 12.0678 11.8295 13.8952 11.347C15.1131 11.0245 16.3357 11.7222 16.6608 12.9156C16.7407 13.2003 16.7634 13.498 16.7275 13.7916C16.6917 14.0851 16.5981 14.3686 16.452 14.6258C16.306 14.8829 16.1104 15.1086 15.8767 15.2898C15.6429 15.4709 15.3756 15.6039 15.0901 15.6812C13.2481 16.1889 11.4004 16.6752 9.55315 17.1652C9.37521 17.2117 9.18422 17.22 8.99794 17.2466Z" fill="#A0A0A0"/>
</g>
<defs>
<clipPath id="clip0_1530_2493">
<rect width="17.5585" height="18" fill="white" transform="translate(2.97559 3)"/>
</clipPath>
</defs>
</svg>
