<svg width="27" height="28" viewBox="0 0 27 28" fill="none" xmlns="http://www.w3.org/2000/svg">
<path d="M16.0312 3.875C16.7313 3.875 17.2969 4.44176 17.2969 5.14062V6.40625V6.41218C18.8235 6.49761 20.1564 7.4935 20.6666 8.94937L22.0588 12.9242C22.9764 13.3039 23.625 14.2096 23.625 15.2656V22.8594C23.625 23.5594 23.0594 24.125 22.3594 24.125H21.0938C20.3937 24.125 19.8281 23.5594 19.8281 22.8594V20.9609H7.17188V22.8594C7.17188 23.5594 6.6063 24.125 5.90625 24.125H4.64062C3.94176 24.125 3.375 23.5594 3.375 22.8594V15.2656C3.375 14.2096 4.02205 13.3039 4.94161 12.9242L6.3334 8.94937C6.8436 7.4935 8.17647 6.49761 9.70312 6.41218V6.40625V5.14062C9.70312 4.44176 10.2687 3.875 10.9688 3.875H16.0312ZM9.9167 8.9375C9.37881 8.9375 8.90024 9.27764 8.72227 9.78389L7.68999 12.7344H19.31L18.2777 9.78389C18.0998 9.27764 17.6212 8.9375 17.0833 8.9375H9.9167ZM7.17188 17.7969C7.87192 17.7969 8.4375 17.2313 8.4375 16.5312C8.4375 15.8312 7.87192 15.2656 7.17188 15.2656C6.47183 15.2656 5.90625 15.8312 5.90625 16.5312C5.90625 17.2313 6.47183 17.7969 7.17188 17.7969ZM19.8281 15.2656C19.1281 15.2656 18.5625 15.8312 18.5625 16.5312C18.5625 17.2313 19.1281 17.7969 19.8281 17.7969C20.5282 17.7969 21.0938 17.2313 21.0938 16.5312C21.0938 15.8312 20.5282 15.2656 19.8281 15.2656Z" fill="#E12E57"/>
</svg>
