<svg width="24" height="24" viewBox="0 0 24 24" fill="none" xmlns="http://www.w3.org/2000/svg">
<g clip-path="url(#clip0_1530_2760)">
<path d="M18.2506 21H9.71045C9.75021 20.5492 9.78815 20.1111 9.82853 19.6737C9.97494 18.0942 10.122 16.5144 10.2696 14.9344C10.4152 13.37 10.5614 11.8057 10.7082 10.2417C10.7865 9.406 10.8502 8.56912 10.9529 7.73652C10.9942 7.38354 11.1646 7.05833 11.4315 6.82359C11.6983 6.58886 12.0426 6.46122 12.3979 6.46528C13.466 6.45916 14.5346 6.45916 15.6035 6.46528C15.9703 6.46549 16.3236 6.60427 16.5924 6.85384C16.8613 7.10341 17.0259 7.44534 17.0534 7.81115C17.2854 10.3173 17.5161 12.8237 17.7453 15.3303C17.9149 17.1688 18.084 19.0069 18.2524 20.8446C18.2542 20.8893 18.2506 20.934 18.2506 21Z" fill="#A0A0A0"/>
<path d="M5.00167 16.0559C5.00167 15.0636 5.00779 14.0714 5.00167 13.0791C4.99249 11.8666 5.39688 10.859 6.34327 10.0558C7.3545 9.19933 7.68486 8.04862 7.6353 6.7523C7.59248 5.62484 7.59431 4.49492 7.59369 3.36623C7.6018 3.20158 7.65842 3.04302 7.75643 2.91047C7.88857 2.72695 8.10084 2.69085 8.31496 2.7661C8.41138 2.79412 8.49686 2.85111 8.55978 2.92936C8.62271 3.00761 8.66004 3.10331 8.66672 3.2035C8.82639 4.98983 9.00563 6.77433 8.85025 8.57228C8.80803 9.06169 8.58046 9.45444 8.29966 9.83128C8.19867 9.96536 8.09045 10.0938 7.97545 10.2161C7.05475 11.2194 6.71154 12.3725 6.91954 13.7367C7.1153 15.0214 7.19851 16.33 7.33188 17.6269C7.38571 18.1506 7.43219 18.6755 7.49703 19.1973C7.5992 20.0207 7.20341 20.5517 6.42159 20.619C5.63976 20.6863 5.01454 20.1522 5.00475 19.379C4.98884 18.2723 5.00107 17.1656 5.00107 16.059L5.00167 16.0559Z" fill="#A0A0A0"/>
<path d="M12.2266 6.00585C12.341 5.45527 12.4517 4.92059 12.5637 4.38592C12.653 3.96136 12.7386 3.53557 12.8395 3.11346C12.8555 3.04861 12.9436 2.95379 12.9998 2.95318C13.693 2.94217 14.3861 2.94584 15.1049 2.94584C15.3202 3.96441 15.5331 4.97443 15.7509 6.00463L12.2266 6.00585Z" fill="#A0A0A0"/>
<path d="M7.11721 3.23888V3.93445C6.51769 3.93445 5.93348 3.94239 5.34986 3.93016C5.15104 3.92649 5.03052 3.79313 5.01767 3.59003C5.0156 3.54392 5.02313 3.49788 5.03977 3.45484C5.05642 3.41179 5.08181 3.37267 5.11436 3.33995C5.14691 3.30723 5.1859 3.28163 5.22886 3.26475C5.27181 3.24788 5.31782 3.24011 5.36393 3.24193C5.94082 3.23276 6.51769 3.23888 7.11721 3.23888Z" fill="#A0A0A0"/>
<path d="M7.11847 5.50296V6.19057C6.51528 6.19057 5.92128 6.19852 5.32849 6.18629C5.13456 6.182 5.02993 6.04008 5.01708 5.85043C5.01467 5.80616 5.02133 5.76188 5.03659 5.72025C5.05185 5.67863 5.07541 5.64055 5.10586 5.60833C5.13631 5.57611 5.173 5.55042 5.21369 5.53283C5.25439 5.51524 5.29822 5.50611 5.34256 5.50601C5.92923 5.49806 6.51651 5.50296 7.11847 5.50296Z" fill="#A0A0A0"/>
<path d="M7.11921 4.36941V5.0558C6.51174 5.0558 5.91772 5.06253 5.3237 5.05152C5.1261 5.04785 5.01782 4.90286 5.01782 4.71444C5.01782 4.52602 5.13528 4.37919 5.3237 4.3743C5.91833 4.35962 6.51235 4.36941 7.11921 4.36941Z" fill="#A0A0A0"/>
<path d="M7.11787 6.63716V7.32295C6.51162 7.32295 5.91881 7.33212 5.32663 7.31743C5.13821 7.31315 5.02075 7.17123 5.02075 6.97975C5.02075 6.78827 5.12537 6.64512 5.32236 6.64083C5.91515 6.62982 6.50856 6.63716 7.11787 6.63716Z" fill="#A0A0A0"/>
</g>
<defs>
<clipPath id="clip0_1530_2760">
<rect width="13.2519" height="18.2738" fill="white" transform="translate(5 2.7262)"/>
</clipPath>
</defs>
</svg>
