<svg width="24" height="24" viewBox="0 0 24 24" fill="none" xmlns="http://www.w3.org/2000/svg">
<g clip-path="url(#clip0_269_597)">
<path d="M6.91158 2H15.5034C15.5588 2.01609 15.615 2.02932 15.6717 2.03963C16.2715 2.11937 16.8414 2.29597 17.359 2.61052C18.8711 3.5312 19.6474 4.88091 19.6513 6.65231C19.6598 10.2196 19.6598 13.7866 19.6513 17.3536C19.6519 17.5877 19.6366 17.8216 19.6054 18.0536C19.4694 19.0578 19.0021 19.9879 18.2775 20.6963C17.553 21.4047 16.6126 21.851 15.6057 21.9643C15.4247 21.9852 15.2428 21.9962 15.0607 21.9971C12.04 21.9993 9.01954 21.9993 5.99921 21.9971C5.17834 21.9971 4.5595 21.614 4.20238 20.8719C3.88049 20.2041 3.94115 19.5408 4.36773 18.9322C4.51449 18.7243 4.71604 18.5565 4.899 18.3638C4.22439 17.649 3.99496 16.7778 4.0023 15.7969C4.02187 13.0828 4.00817 10.3668 4.00915 7.65369C4.00915 6.80786 3.98469 5.96008 4.02236 5.11572C4.07813 3.86092 4.69794 2.9334 5.80745 2.36055C6.14842 2.18492 6.54272 2.11692 6.91158 2ZM10.6902 20.6963C12.103 20.6963 13.5156 20.6963 14.9281 20.6963C15.1363 20.6999 15.3445 20.6878 15.5509 20.6601C17.3722 20.3759 18.5599 18.7757 18.3148 16.9456C18.1153 15.454 16.7739 14.2173 15.272 14.1914C13.71 14.1645 12.1475 14.1796 10.5855 14.1787C9.45297 14.1787 8.31999 14.1654 7.18749 14.1865C6.15332 14.2056 5.31189 15.0964 5.3114 16.1306C5.3114 17.2176 6.19588 18.0874 7.32202 18.0874C9.87988 18.0919 12.4381 18.0919 14.9966 18.0874C15.062 18.0889 15.1275 18.085 15.1923 18.0756C15.3484 18.0524 15.4906 17.9727 15.592 17.8518C15.6934 17.7308 15.747 17.5769 15.7426 17.4191C15.7411 17.2613 15.6809 17.1097 15.5737 16.9938C15.4666 16.8779 15.3202 16.8059 15.1629 16.792C15.0724 16.7824 14.9814 16.7785 14.8904 16.7802C12.417 16.7802 9.94348 16.7802 7.46976 16.7802C7.37177 16.782 7.27377 16.7781 7.17623 16.7685C7.03956 16.752 6.9121 16.691 6.81352 16.5949C6.71494 16.4988 6.65073 16.3729 6.63077 16.2367C6.56424 15.8033 6.8695 15.4775 7.35039 15.4775C9.91478 15.4775 12.4795 15.4791 15.0445 15.4824C15.2909 15.4876 15.5351 15.5303 15.7686 15.6091C16.8306 15.9515 17.3658 17.2993 16.8448 18.286C16.4534 19.0237 15.8414 19.3867 15.0118 19.3872C12.0501 19.3872 9.08835 19.3872 6.12641 19.3872C6.01601 19.3842 5.90565 19.3944 5.79766 19.4175C5.71235 19.4388 5.63234 19.4775 5.56264 19.5311C5.49294 19.5847 5.43505 19.6521 5.39258 19.7291C5.35011 19.8061 5.32398 19.891 5.31582 19.9785C5.30766 20.0661 5.31765 20.1544 5.34515 20.2379C5.44299 20.5422 5.68417 20.6943 6.07895 20.6943C7.61733 20.6963 9.1544 20.6969 10.6902 20.6963Z" fill="#A0A0A0"/>
</g>
<defs>
<clipPath id="clip0_269_597">
<rect width="15.6574" height="20" fill="white" transform="translate(4 2)"/>
</clipPath>
</defs>
</svg>
