<svg width="33" height="34" viewBox="0 0 33 34" fill="none" xmlns="http://www.w3.org/2000/svg">
<g clip-path="url(#clip0_3_1118)">
<path d="M9.5035 3.25H21.3173C21.3934 3.27212 21.4706 3.29031 21.5487 3.30449C22.3733 3.41413 23.157 3.65695 23.8686 4.08947C25.9478 5.3554 27.0153 7.21125 27.0207 9.64692C27.0323 14.5519 27.0323 19.4566 27.0207 24.3612C27.0215 24.6831 27.0004 25.0047 26.9575 25.3237C26.7705 26.7045 26.128 27.9833 25.1317 28.9574C24.1354 29.9315 22.8425 30.5451 21.4579 30.7009C21.2091 30.7297 20.9589 30.7447 20.7085 30.746C16.5551 30.7491 12.402 30.7491 8.249 30.746C7.1203 30.746 6.26939 30.2193 5.77836 29.1989C5.33575 28.2807 5.41916 27.3686 6.00571 26.5318C6.20751 26.2459 6.48464 26.0152 6.73621 25.7502C5.80863 24.7674 5.49316 23.5694 5.50325 22.2208C5.53015 18.4889 5.51132 14.7543 5.51266 11.0238C5.51266 9.8608 5.47903 8.69511 5.53083 7.53411C5.60751 5.80876 6.45976 4.53343 7.98533 3.74575C8.45417 3.50427 8.99632 3.41076 9.5035 3.25ZM14.6991 28.9574C16.6417 28.9574 18.5841 28.9574 20.5262 28.9574C20.8125 28.9624 21.0988 28.9458 21.3825 28.9076C23.8868 28.5168 25.52 26.3165 25.183 23.8002C24.9086 21.7492 23.0642 20.0488 20.9991 20.0131C18.8513 19.9761 16.7029 19.997 14.5551 19.9957C12.9979 19.9957 11.4401 19.9775 9.88288 20.0064C8.46089 20.0326 7.30393 21.2576 7.30326 22.6795C7.30326 24.1742 8.51941 25.3701 10.0679 25.3701C13.5849 25.3764 17.1024 25.3764 20.6204 25.3701C20.7104 25.3723 20.8004 25.3669 20.8895 25.354C21.1041 25.322 21.2997 25.2125 21.4391 25.0462C21.5785 24.8799 21.6522 24.6682 21.6462 24.4513C21.644 24.2343 21.5613 24.0258 21.4139 23.8664C21.2666 23.7071 21.0653 23.6082 20.8491 23.589C20.7247 23.5758 20.5995 23.5704 20.4744 23.5728C17.0735 23.5728 13.6724 23.5728 10.271 23.5728C10.1363 23.5752 10.0015 23.5698 9.86741 23.5567C9.67947 23.534 9.50422 23.4501 9.36867 23.318C9.23313 23.1859 9.14483 23.0128 9.1174 22.8255C9.02592 22.2295 9.44565 21.7815 10.1069 21.7815C13.6329 21.7815 17.1594 21.7838 20.6863 21.7883C21.0251 21.7955 21.3608 21.8542 21.6819 21.9625C23.1422 22.4333 23.8781 24.2865 23.1617 25.6432C22.6236 26.6576 21.7821 27.1567 20.6413 27.1574C16.569 27.1574 12.4966 27.1574 8.42389 27.1574C8.2721 27.1533 8.12036 27.1673 7.97187 27.1991C7.85456 27.2283 7.74455 27.2815 7.64872 27.3552C7.55288 27.4289 7.47328 27.5216 7.41488 27.6275C7.35649 27.7333 7.32056 27.8501 7.30934 27.9705C7.29812 28.0909 7.31185 28.2123 7.34967 28.3271C7.4842 28.7455 7.81582 28.9547 8.35865 28.9547C10.4739 28.9574 12.5874 28.9583 14.6991 28.9574Z" fill="#E12E57"/>
</g>
<defs>
<clipPath id="clip0_3_1118">
<rect width="21.5289" height="27.5" fill="white" transform="translate(5.5 3.25)"/>
</clipPath>
</defs>
</svg>
