<svg width="52" height="52" viewBox="0 0 52 52" fill="none" xmlns="http://www.w3.org/2000/svg">
<rect opacity="0.1" width="52" height="52" rx="12" fill="#F46A6A"/>
<path d="M38.39 21.9375H35.3497L34.5047 19.825C33.6363 17.6531 31.5639 16.25 29.2244 16.25H22.7752C20.4362 16.25 18.3633 17.6531 17.4945 19.825L16.6495 21.9375H13.6097C13.2131 21.9375 12.9221 22.3102 13.0186 22.6947L13.3233 23.9134C13.3908 24.1846 13.6346 24.375 13.9144 24.375H14.9336C14.2516 24.9707 13.8123 25.8365 13.8123 26.8125V29.25C13.8123 30.0686 14.1251 30.8075 14.6248 31.3793V34.125C14.6248 35.0223 15.3525 35.75 16.2498 35.75H17.8748C18.7721 35.75 19.4998 35.0223 19.4998 34.125V32.5H32.4998V34.125C32.4998 35.0223 33.2275 35.75 34.1248 35.75H35.7498C36.6472 35.75 37.3748 35.0223 37.3748 34.125V31.3793C37.8745 30.808 38.1873 30.0691 38.1873 29.25V26.8125C38.1873 25.8365 37.7481 24.9707 37.0666 24.375H38.0858C38.3656 24.375 38.6093 24.1846 38.6769 23.9134L38.9816 22.6947C39.0775 22.3102 38.7866 21.9375 38.39 21.9375ZM20.5119 21.0321C20.8821 20.1068 21.7784 19.5 22.7752 19.5H29.2244C30.2213 19.5 31.1176 20.1068 31.4878 21.0321L32.4998 23.5625H19.4998L20.5119 21.0321ZM17.8748 29.2399C16.8998 29.2399 16.2498 28.5919 16.2498 27.6199C16.2498 26.648 16.8998 26 17.8748 26C18.8498 26 20.3123 27.4579 20.3123 28.4299C20.3123 29.4019 18.8498 29.2399 17.8748 29.2399ZM34.1248 29.2399C33.1498 29.2399 31.6873 29.4019 31.6873 28.4299C31.6873 27.4579 33.1498 26 34.1248 26C35.0998 26 35.7498 26.648 35.7498 27.6199C35.7498 28.5919 35.0998 29.2399 34.1248 29.2399V29.2399Z" fill="#F46A6A"/>
</svg>
