<svg width="24" height="24" viewBox="0 0 24 24" fill="none" xmlns="http://www.w3.org/2000/svg">
<g clip-path="url(#clip0_269_625)">
<path d="M3.23212 16.8772V16.6442C3.23212 12.6529 3.23212 8.66193 3.23212 4.6711C3.23212 3.2992 4.08031 2.26458 5.38755 2.03448C5.56723 2.00784 5.7489 1.99693 5.93048 2.00185C8.64165 2.00185 11.3528 2.00185 14.064 2.00185C15.6264 2.00185 16.7257 3.10228 16.7274 4.66467C16.7274 6.80883 16.7274 8.9532 16.7274 11.0977V11.3366C15.0433 11.1787 13.5444 11.6022 12.2633 12.6933C10.9823 13.7845 10.3153 15.1954 10.211 16.8778L3.23212 16.8772ZM9.98442 5.71909C10.2891 5.71909 10.5938 5.72316 10.8984 5.71909C11.3062 5.71151 11.6051 5.41267 11.6039 5.02003C11.6027 4.62739 11.3021 4.3303 10.892 4.3268C10.2823 4.32214 9.67276 4.32214 9.06342 4.3268C8.65272 4.3303 8.35679 4.63031 8.35854 5.02586C8.36028 5.42141 8.65855 5.71327 9.06982 5.71968C9.3745 5.7226 9.68208 5.71909 9.98442 5.71909Z" fill="#A0A0A0"/>
<path d="M16.0318 21.9988C14.7363 22.0012 13.4929 21.4889 12.5751 20.5745C11.6574 19.6602 11.1405 18.4187 11.1381 17.1232C11.1357 15.8277 11.648 14.5843 12.5624 13.6666C13.4767 12.7488 14.7182 12.2319 16.0137 12.2295C18.7056 12.2185 20.9176 14.4251 20.9152 17.1194C20.9137 18.4138 20.3986 19.6546 19.483 20.5694C18.5673 21.4843 17.3261 21.9984 16.0318 21.9988ZM16.5188 15.7796C16.5188 15.3794 16.5228 15.1108 16.5188 14.8423C16.5106 14.4205 16.2059 14.1146 15.8086 14.121C15.4113 14.1275 15.1282 14.424 15.1259 14.8423C15.1218 15.5174 15.1259 16.1926 15.1259 16.8678C15.1233 16.9731 15.1426 17.0778 15.1827 17.1752C15.2229 17.2726 15.2829 17.3605 15.3589 17.4334C15.8989 17.9711 16.4349 18.5135 16.9772 19.0488C17.2848 19.3529 17.7042 19.3587 17.9879 19.0756C18.2716 18.7925 18.2606 18.3731 17.9623 18.0643C17.7153 17.8086 17.4794 17.5365 17.205 17.314C16.6621 16.8771 16.3277 16.3755 16.5193 15.7796H16.5188Z" fill="#A0A0A0"/>
<path d="M10.3292 18.295C10.6752 19.8387 11.5007 21.0586 12.8406 21.986C12.7153 21.9924 12.6466 21.9994 12.5778 21.9994C10.3548 21.9994 8.13164 21.9994 5.90825 21.9994C4.33537 21.9994 3.23495 20.9013 3.23203 19.3284C3.23203 18.9882 3.23203 18.648 3.23203 18.295H10.3292Z" fill="#A0A0A0"/>
</g>
<defs>
<clipPath id="clip0_269_625">
<rect width="17.6844" height="20" fill="white" transform="translate(3.23145 2)"/>
</clipPath>
</defs>
</svg>
