<svg width="36" height="36" viewBox="0 0 36 36" fill="none" xmlns="http://www.w3.org/2000/svg">
<g clip-path="url(#clip0_3_1133)">
<path d="M4.84814 25.3157V24.9662C4.84814 18.9793 4.84814 12.9928 4.84814 7.00657C4.84814 4.94872 6.12043 3.3968 8.08128 3.05164C8.35081 3.01169 8.6233 2.99531 8.89568 3.0027C12.9624 3.0027 17.0292 3.0027 21.096 3.0027C23.4395 3.0027 25.0884 4.65334 25.0911 6.99693C25.0911 10.2132 25.0911 13.4297 25.0911 16.6465V17.0048C22.5648 16.768 20.3165 17.4033 18.395 19.0399C16.4735 20.6766 15.4729 22.793 15.3165 25.3166L4.84814 25.3157ZM14.9766 8.57855C15.4336 8.57855 15.8906 8.58467 16.3476 8.57855C16.9593 8.56719 17.4076 8.11892 17.4058 7.52997C17.4041 6.94101 16.9532 6.49537 16.338 6.49013C15.4234 6.48314 14.5091 6.48314 13.5951 6.49013C12.979 6.49537 12.5351 6.94539 12.5378 7.53871C12.5404 8.13204 12.9878 8.56984 13.6047 8.57945C14.0617 8.58382 14.5231 8.57855 14.9766 8.57855Z" fill="#E12E57"/>
<path d="M24.0476 32.9982C22.1043 33.0018 20.2393 32.2334 18.8626 30.8618C17.486 29.4903 16.7106 27.6281 16.707 25.6848C16.7035 23.7416 17.472 21.8765 18.8435 20.4999C20.215 19.1233 22.0772 18.3479 24.0205 18.3443C28.0584 18.3277 31.3763 21.6377 31.3728 25.6791C31.3705 27.6206 30.5978 29.4819 29.2244 30.8541C27.8509 32.2264 25.9891 32.9975 24.0476 32.9982ZM24.7781 23.6694C24.7781 23.069 24.7842 22.6662 24.7781 22.2634C24.7659 21.6307 24.3088 21.172 23.7129 21.1816C23.117 21.1912 22.6923 21.636 22.6888 22.2634C22.6827 23.2762 22.6888 24.2889 22.6888 25.3016C22.6848 25.4596 22.7139 25.6167 22.7741 25.7628C22.8342 25.9089 22.9242 26.0408 23.0383 26.1501C23.8483 26.9567 24.6523 27.7702 25.4658 28.5732C25.9272 29.0294 26.5563 29.0381 26.9819 28.6134C27.4074 28.1888 27.3908 27.5596 26.9434 27.0965C26.5729 26.7128 26.219 26.3048 25.8074 25.971C24.993 25.3156 24.4915 24.5633 24.779 23.6694H24.7781Z" fill="#E12E57"/>
<path d="M15.4939 27.4424C16.0129 29.758 17.2511 31.5878 19.2609 32.9789C19.0731 32.9886 18.9699 32.999 18.8668 32.999C15.5323 32.999 12.1976 32.999 8.86247 32.999C6.50315 32.999 4.85251 31.3519 4.84814 28.9926C4.84814 28.4822 4.84814 27.9719 4.84814 27.4424H15.4939Z" fill="#E12E57"/>
</g>
<defs>
<clipPath id="clip0_3_1133">
<rect width="26.5266" height="30" fill="white" transform="translate(4.84717 3)"/>
</clipPath>
</defs>
</svg>
