<svg width="101" height="100" viewBox="0 0 101 100" fill="none" xmlns="http://www.w3.org/2000/svg">
<path opacity="0.1" d="M100.5 50C100.5 77.6142 78.1142 100 50.5 100C22.8858 100 0.5 77.6142 0.5 50C0.5 22.3858 22.8858 0 50.5 0C78.1142 0 100.5 22.3858 100.5 50Z" fill="#FFB74D"/>
<path d="M44.9286 31.0418V33.7502H56.0714V31.0418C56.0714 29.5463 57.3163 28.3335 58.8571 28.3335C60.398 28.3335 61.6429 29.5463 61.6429 31.0418V33.7502H65.8214C68.1283 33.7502 70 35.569 70 37.8127V41.8752H31V37.8127C31 35.569 32.8708 33.7502 35.1786 33.7502H39.3571V31.0418C39.3571 29.5463 40.602 28.3335 42.1429 28.3335C43.6837 28.3335 44.9286 29.5463 44.9286 31.0418ZM31 44.5835H70V67.6043C70 69.8472 68.1283 71.6668 65.8214 71.6668H35.1786C32.8708 71.6668 31 69.8472 31 67.6043V44.5835ZM59.5623 54.0711C60.4502 53.3517 60.4502 52.0653 59.5623 51.2697C58.8223 50.4826 57.4991 50.4826 56.6808 51.2697L48.4107 59.3185L44.2408 55.3322C43.5009 54.5451 42.1777 54.5451 41.3594 55.3322C40.5498 56.1278 40.5498 57.4142 41.3594 58.1336L46.9308 63.5503C47.7491 64.4136 49.0723 64.4136 49.8123 63.5503L59.5623 54.0711Z" fill="#FFB74D"/>
</svg>
