<svg width="24" height="24" viewBox="0 0 24 24" fill="none" xmlns="http://www.w3.org/2000/svg">
<g clip-path="url(#clip0_1530_2529)">
<path d="M4.99543 16.9878V13.0224C4.74491 12.9829 4.50817 12.9642 4.28396 12.9084C2.49026 12.4599 1.54143 10.5981 2.2172 8.81581C2.67251 7.61115 3.49734 6.76982 4.74366 6.36012C6.74779 5.70047 8.75193 5.02205 10.7604 4.36115C10.9483 4.2985 11.0147 4.21203 11.0053 4.01596C10.989 3.68081 10.9959 3.34441 11.0053 3.00801C11.0166 2.42917 11.4331 2.00567 11.988 2.00003C12.556 1.99565 12.9825 2.41913 12.9944 3.00862C13.0007 3.35254 13.0069 3.69771 12.9944 4.03975C12.9869 4.2208 13.0495 4.29722 13.2186 4.35298C15.2034 5.00699 17.1843 5.6723 19.1684 6.32693C20.7285 6.84125 21.6636 7.91308 21.9579 9.51616C22.2711 11.2383 20.9558 12.8765 19.2079 12.988C19.1452 12.9917 19.0876 13.0011 19.0037 13.0111V16.9878H4.99543ZM19.0338 10.9814C19.6294 10.9576 20.079 10.4521 19.9832 9.87074C19.858 9.1046 19.444 8.54455 18.6924 8.29021C16.5213 7.55476 14.3485 6.82703 12.174 6.10703C12.0579 6.07133 11.9337 6.07133 11.8176 6.10703C9.63479 6.83121 7.45383 7.55936 5.27475 8.29147C4.60337 8.51574 4.03908 9.23739 3.99461 9.93776C3.95892 10.506 4.44868 11.0178 4.98979 10.9639C4.9948 10.9295 5.00169 10.8919 5.00482 10.8543C5.09313 9.8031 5.92485 9.00061 6.97075 8.99873C10.3202 8.99038 13.67 8.99038 17.0202 8.99873C17.872 9.00249 18.4858 9.44226 18.8315 10.2203C18.9354 10.4552 18.9674 10.7164 19.0356 10.9814H19.0338Z" fill="#A0A0A0"/>
<path d="M5.00121 19.0062H18.9506C19.2894 20.1401 18.8053 21.3736 17.8233 21.8077C17.5521 21.9259 17.2598 21.9878 16.964 21.99C13.6513 22.0021 10.3393 22.0038 7.02789 21.995C5.85297 21.995 5.01625 21.1393 4.99934 19.9634C4.99558 19.6515 5.00121 19.3401 5.00121 19.0062Z" fill="#A0A0A0"/>
<rect x="5" y="16" width="14" height="2" fill="#A0A0A0"/>
</g>
<defs>
<clipPath id="clip0_1530_2529">
<rect width="20" height="20" fill="white" transform="translate(2 2)"/>
</clipPath>
</defs>
</svg>
