<svg width="24" height="24" viewBox="0 0 24 24" fill="none" xmlns="http://www.w3.org/2000/svg">
<path d="M5.00423 10.5091C5.00423 8.57326 6.57331 7.03235 8.48099 7.03235C10.1286 7.03235 11.5009 8.17301 11.8764 9.70548C12.4741 9.41695 13.1 9.25735 13.7384 9.25735C13.8826 9.25735 14.0248 9.26927 14.1665 9.28302L14.9216 8.19524C15.0826 7.96323 14.9497 7.64227 14.6718 7.5922L11.9265 7.09118L11.4258 4.31947C11.3757 4.04142 11.0565 3.90861 10.8218 4.06962L8.50916 5.67544L6.19653 4.06959C5.96183 3.90858 5.64263 4.04145 5.59256 4.31947L5.09123 7.09118L2.31952 7.59251C2.0415 7.64258 1.90857 7.96491 2.06957 8.19648L3.67495 10.5104L2.0696 12.8217C1.9086 13.0537 2.04152 13.3747 2.31942 13.4248L5.09123 13.9264L5.59224 16.6984C5.64244 16.9764 5.96339 17.1093 6.19528 16.9482L6.53044 16.7156C6.61571 15.6157 7.15162 14.6343 7.96464 13.9586C6.29041 13.6948 5.00423 12.2584 5.00423 10.5091ZM6.00564 10.5091C6.00564 11.8917 7.12659 13.0126 8.50916 13.0126C8.81362 13.0126 9.10155 12.9502 9.37162 12.8507C9.59074 11.7976 10.1706 10.8838 10.9855 10.2395C10.8499 8.98509 9.79847 8.00559 8.50916 8.00559C7.12596 8.00559 6.00564 9.12591 6.00564 10.5091ZM20.0003 14.1893C20.0042 14.1267 20.0236 14.0721 20.0236 14.0134C20.0236 12.9063 19.1239 12.0106 18.049 12.0106C17.6541 12.0106 17.2901 12.1279 16.9809 12.3235C16.4295 11.1068 15.2128 10.2863 13.7921 10.2863C11.8597 10.2863 10.2871 11.8548 10.2871 13.7631C10.2871 13.8569 10.3107 13.9428 10.3146 14.0328C8.76147 14.1501 7.53318 15.4328 7.53318 17.0173C7.47959 18.6768 8.82523 20.0225 10.4838 20.0225H18.9958C20.6544 20.0225 22 18.6772 22 17.0186C22 15.7008 21.1738 14.5961 20.0003 14.1893Z" fill="#FFB74D"/>
</svg>
